<svg width="52" height="52" viewBox="0 0 52 52" fill="none" xmlns="http://www.w3.org/2000/svg">
<path fill-rule="evenodd" clip-rule="evenodd" d="M41.6 6.93333H46.8C48.1791 6.93333 49.5018 7.48119 50.477 8.45638C51.4521 9.43157 52 10.7542 52 12.1333V46.8C52 48.1791 51.4521 49.5018 50.477 50.477C49.5018 51.4521 48.1791 52 46.8 52H5.2C3.82087 52 2.49823 51.4521 1.52304 50.477C0.547856 49.5018 0 48.1791 0 46.8L0 12.1333C0 10.7542 0.547856 9.43157 1.52304 8.45638C2.49823 7.48119 3.82087 6.93333 5.2 6.93333H10.4V0H13.8667V6.93333H38.1333V0H41.6V6.93333ZM20.8 27.7333H10.4V24.2667H20.8V27.7333ZM41.6 24.2667H31.2V27.7333H41.6V24.2667ZM20.8 38.1333H10.4V34.6667H20.8V38.1333ZM31.2 38.1333H41.6V34.6667H31.2V38.1333Z" fill="#006997"/>
</svg>
