<svg width="48" height="44" viewBox="0 0 48 44" fill="none" xmlns="http://www.w3.org/2000/svg">
<path d="M10.3608 4.03837L7.30579 0.961707C0.166626 8.05321 0.166626 13.1925 0.166626 19.8334H2.33329L4.49996 19.6969C4.49996 13.3529 4.49996 9.85804 10.3608 4.03837ZM40.692 0.961707L37.6413 4.03837C43.5 9.85804 43.5 13.3529 43.5 19.8334L47.8333 19.6969C47.8333 13.1925 47.8333 8.05321 40.692 0.961707ZM24 43.6667C25.3418 43.6684 26.6508 43.252 27.745 42.4754C28.8393 41.6988 29.6644 40.6006 30.1056 39.3334H17.8943C18.3356 40.6006 19.1607 41.6988 20.2549 42.4754C21.3491 43.252 22.6581 43.6684 24 43.6667ZM39.1666 27.603V17.6667C39.1666 10.6965 34.4325 4.82487 28.0191 3.05904C27.3843 1.46004 25.833 0.333374 24 0.333374C22.167 0.333374 20.6156 1.46004 19.9808 3.05904C13.5653 4.82487 8.83329 10.6965 8.83329 17.6667V27.603L5.13479 31.3015C4.9332 31.5024 4.77333 31.7412 4.66438 32.004C4.55542 32.2669 4.49955 32.5488 4.49996 32.8334V35C4.49996 35.5747 4.72823 36.1258 5.13456 36.5321C5.54089 36.9384 6.09199 37.1667 6.66663 37.1667H41.3333C41.9079 37.1667 42.459 36.9384 42.8654 36.5321C43.2717 36.1258 43.5 35.5747 43.5 35V32.8334C43.5004 32.5488 43.4445 32.2669 43.3355 32.004C43.2266 31.7412 43.0667 31.5024 42.8651 31.3015L39.1666 27.603Z" fill="#006997"/>
</svg>
