<svg width="50" height="50" viewBox="0 0 50 50" fill="none" xmlns="http://www.w3.org/2000/svg">
<path d="M22.5834 49.1667C21.8987 49.1667 21.3251 48.9347 20.8627 48.4707C20.3987 48.0083 20.1667 47.4348 20.1667 46.75V34.123C20.1667 34.0424 20.207 33.841 20.2875 33.5188L23.55 24.1542C23.7514 23.7111 24.043 23.339 24.4249 23.0377C24.8083 22.7348 25.282 22.5834 25.8459 22.5834H43.4875C44.0514 22.5834 44.5251 22.7348 44.9085 23.0377C45.2904 23.339 45.582 23.7111 45.7834 24.1542L49.0459 33.5188L49.1667 34.123V46.75C49.1667 47.4348 48.9347 48.0083 48.4707 48.4707C48.0083 48.9347 47.4348 49.1667 46.75 49.1667C46.0653 49.1667 45.4918 48.9347 45.0294 48.4707C44.5654 48.0083 44.3334 47.4348 44.3334 46.75V45.5417H25V46.75C25 47.4348 24.7688 48.0083 24.3065 48.4707C23.8425 48.9347 23.2681 49.1667 22.5834 49.1667ZM25 31.0417H44.3334L42.6417 26.2084H26.6917L25 31.0417ZM27.4167 40.7084C28.1014 40.7084 28.6758 40.4764 29.1398 40.0124C29.6022 39.55 29.8334 38.9764 29.8334 38.2917C29.8334 37.607 29.6022 37.0334 29.1398 36.571C28.6758 36.107 28.1014 35.875 27.4167 35.875C26.732 35.875 26.1584 36.107 25.696 36.571C25.232 37.0334 25 37.607 25 38.2917C25 38.9764 25.232 39.55 25.696 40.0124C26.1584 40.4764 26.732 40.7084 27.4167 40.7084ZM41.9167 40.7084C42.6014 40.7084 43.175 40.4764 43.6374 40.0124C44.1014 39.55 44.3334 38.9764 44.3334 38.2917C44.3334 37.607 44.1014 37.0334 43.6374 36.571C43.175 36.107 42.6014 35.875 41.9167 35.875C41.232 35.875 40.6584 36.107 40.196 36.571C39.732 37.0334 39.5 37.607 39.5 38.2917C39.5 38.9764 39.732 39.55 40.196 40.0124C40.6584 40.4764 41.232 40.7084 41.9167 40.7084ZM10.5 29.8334V25H15.3334V29.8334H10.5ZM22.5834 15.3334V10.5H27.4167V15.3334H22.5834ZM10.5 39.5V34.6667H15.3334V39.5H10.5ZM10.5 49.1667V44.3334H15.3334V49.1667H10.5ZM0.833374 49.1667V20.1667C0.833374 18.8375 1.30704 17.6993 2.25437 16.752C3.2001 15.8062 4.33754 15.3334 5.66671 15.3334H12.9167V5.66671C12.9167 4.33754 13.3904 3.19929 14.3377 2.25196C15.2834 1.30623 16.4209 0.833374 17.75 0.833374H32.25C33.5792 0.833374 34.7175 1.30623 35.6648 2.25196C36.6105 3.19929 37.0834 4.33754 37.0834 5.66671V17.75H32.25V5.66671H17.75V20.1667H5.66671V49.1667H0.833374Z" fill="#006997"/>
</svg>
