<svg width="64" height="46" viewBox="0 0 64 46" fill="none" xmlns="http://www.w3.org/2000/svg">
<path d="M11.75 0.5C8.76631 0.5 5.90483 1.68526 3.79505 3.79505C1.68526 5.90483 0.5 8.76631 0.5 11.75V14H63.5V11.75C63.5 8.76631 62.3147 5.90483 60.205 3.79505C58.0952 1.68526 55.2337 0.5 52.25 0.5H11.75ZM63.5 18.5H0.5V34.25C0.5 37.2337 1.68526 40.0952 3.79505 42.205C5.90483 44.3147 8.76631 45.5 11.75 45.5H52.25C55.2337 45.5 58.0952 44.3147 60.205 42.205C62.3147 40.0952 63.5 37.2337 63.5 34.25V18.5ZM43.25 32H52.25C52.8467 32 53.419 32.2371 53.841 32.659C54.2629 33.081 54.5 33.6533 54.5 34.25C54.5 34.8467 54.2629 35.419 53.841 35.841C53.419 36.2629 52.8467 36.5 52.25 36.5H43.25C42.6533 36.5 42.081 36.2629 41.659 35.841C41.2371 35.419 41 34.8467 41 34.25C41 33.6533 41.2371 33.081 41.659 32.659C42.081 32.2371 42.6533 32 43.25 32Z" fill="#006997"/>
</svg>
