<svg width="46" height="46" viewBox="0 0 46 46" fill="none" xmlns="http://www.w3.org/2000/svg">
<path d="M3 25.5H18C19.375 25.5 20.5 24.375 20.5 23V3C20.5 1.625 19.375 0.5 18 0.5H3C1.625 0.5 0.5 1.625 0.5 3V23C0.5 24.375 1.625 25.5 3 25.5ZM3 45.5H18C19.375 45.5 20.5 44.375 20.5 43V33C20.5 31.625 19.375 30.5 18 30.5H3C1.625 30.5 0.5 31.625 0.5 33V43C0.5 44.375 1.625 45.5 3 45.5ZM28 45.5H43C44.375 45.5 45.5 44.375 45.5 43V23C45.5 21.625 44.375 20.5 43 20.5H28C26.625 20.5 25.5 21.625 25.5 23V43C25.5 44.375 26.625 45.5 28 45.5ZM25.5 3V13C25.5 14.375 26.625 15.5 28 15.5H43C44.375 15.5 45.5 14.375 45.5 13V3C45.5 1.625 44.375 0.5 43 0.5H28C26.625 0.5 25.5 1.625 25.5 3Z" fill="#006997"/>
</svg>
