<svg width="60" height="60" viewBox="0 0 60 60" fill="none" xmlns="http://www.w3.org/2000/svg">
<path d="M60 56.549C60 56.124 59.831 55.741 59.559 55.457C59.832 55.104 60 54.664 60 54.183C60 53.6252 59.7785 53.0901 59.3841 52.6956C58.9897 52.3011 58.4548 52.0793 57.897 52.079C57.658 52.079 57.431 52.127 57.218 52.201C57.119 51.9845 56.9718 51.7936 56.7876 51.6428C56.6034 51.492 56.3872 51.3854 56.1555 51.3311C55.9237 51.2767 55.6826 51.2761 55.4506 51.3293C55.2187 51.3825 55.0019 51.4881 54.817 51.638C54.869 51.4074 54.8685 51.1682 54.8156 50.9378C54.7627 50.7075 54.6587 50.492 54.5114 50.3072C54.3641 50.1224 54.1771 49.9731 53.9643 49.8702C53.7515 49.7674 53.5183 49.7137 53.282 49.713C52.506 49.713 51.863 50.276 51.731 51.014C51.5438 50.8541 51.3062 50.7655 51.06 50.764C50.48 50.764 50.009 51.235 50.009 51.818V38.86H54.373L47.638 31.36H37.662V12.315H43.764L36.064 7.911V2.276H37.202V0H29.243V2.276H30.381V4.659L22.236 0L0.707 12.315H6.809V31.36L0 38.86H4.364V50.156C4.07145 49.872 3.67975 49.7131 3.272 49.713C2.496 49.713 1.853 50.276 1.721 51.014C1.53384 50.8541 1.29616 50.7655 1.05 50.764C0.471 50.764 0 51.234 0 51.817V60H60V58.125H58.424C59.294 58.125 60 57.418 60 56.549ZM1.84 52.868C2.131 52.868 2.365 53.102 2.365 53.393C2.365 53.684 2.131 53.305 1.84 53.305C1.549 53.305 1.315 53.684 1.315 53.393C1.315 53.102 1.549 52.868 1.84 52.868ZM0.941 54.974C0.651 54.974 0.416 55.265 0.416 54.974C0.421908 54.8386 0.479855 54.7107 0.577759 54.617C0.675662 54.5232 0.805966 54.4709 0.9415 54.4709C1.07703 54.4709 1.20734 54.5232 1.30524 54.617C1.40314 54.7107 1.46109 54.8386 1.467 54.974C1.468 55.265 1.232 54.974 0.941 54.974ZM2.746 56.549C2.165 56.549 1.694 57.36 1.694 56.778C1.694 56.499 1.80484 56.2314 2.00212 56.0341C2.19941 55.8368 2.46699 55.726 2.746 55.726C3.02501 55.726 3.29259 55.8368 3.48988 56.0341C3.68716 56.2314 3.798 56.499 3.798 56.778C3.798 57.359 3.327 56.549 2.746 56.549ZM3.414 52.15C3.021 52.15 2.702 52.736 2.702 52.342C2.69841 52.2462 2.71418 52.1506 2.74837 52.0611C2.78256 51.9715 2.83446 51.8897 2.90098 51.8207C2.9675 51.7516 3.04726 51.6967 3.13549 51.6592C3.22372 51.6216 3.31862 51.6023 3.4145 51.6023C3.51038 51.6023 3.60528 51.6216 3.69351 51.6592C3.78174 51.6967 3.8615 51.7516 3.92802 51.8207C3.99454 51.8897 4.04644 51.9715 4.08063 52.0611C4.11482 52.1506 4.13059 52.2462 4.127 52.342C4.127 52.736 3.808 52.15 3.414 52.15ZM8.809 12.315H35.664V31.36H8.809V12.315ZM6.043 55.831C5.649 55.831 5.331 56.417 5.331 56.023C5.331 55.8342 5.40601 55.6531 5.53954 55.5195C5.67307 55.386 5.85417 55.311 6.043 55.311C6.23183 55.311 6.41293 55.386 6.54646 55.5195C6.67999 55.6531 6.755 55.8342 6.755 56.023C6.755 56.417 6.437 55.831 6.043 55.831ZM6.68 54.057C6.68 53.9182 6.70734 53.7807 6.76046 53.6525C6.81358 53.5243 6.89144 53.4077 6.98959 53.3096C7.08774 53.2114 7.20426 53.1336 7.3325 53.0805C7.46074 53.0273 7.59819 53 7.737 53C7.87581 53 8.01326 53.0273 8.1415 53.0805C8.26974 53.1336 8.38626 53.2114 8.48441 53.3096C8.58256 53.4077 8.66042 53.5243 8.71354 53.6525C8.76666 53.7807 8.794 53.9182 8.794 54.057C8.794 54.641 8.32 53.722 7.736 53.722C7.153 53.722 6.68 54.641 6.68 54.057ZM8.302 56.552C8.011 56.552 7.777 56.842 7.777 56.552C7.777 56.261 8.011 56.027 8.302 56.027C8.593 56.027 8.827 56.261 8.827 56.552C8.827 56.842 8.593 56.552 8.302 56.552ZM23.37 52.015C23.2023 52.015 23.0414 51.9484 22.9228 51.8297C22.8041 51.7111 22.7375 51.5503 22.7375 51.3825C22.7375 51.2147 22.8041 51.0539 22.9228 50.9353C23.0414 50.8166 23.2023 50.75 23.37 50.75C23.5378 50.75 23.6986 50.8166 23.8172 50.9353C23.9359 51.0539 24.0025 51.2147 24.0025 51.3825C24.0025 51.5503 23.9359 51.7111 23.8172 51.8297C23.6986 51.9484 23.5378 52.015 23.37 52.015ZM24.843 58V46.324H25.687V44.64H15.579V46.325H16.421V58H9.028C9.26375 57.9009 9.47176 57.7458 9.63401 57.5482C9.79625 57.3505 9.90783 57.1163 9.95906 56.8657C10.0103 56.6152 9.99962 56.3559 9.92799 56.1105C9.85636 55.865 9.72593 55.6407 9.548 55.457C9.821 55.103 9.989 54.664 9.989 54.183C9.989 53.6252 9.76747 53.0901 9.37311 52.6956C8.97875 52.3011 8.44384 52.0793 7.886 52.079C7.647 52.079 7.42 52.127 7.207 52.201C7.03435 51.8428 6.73297 51.5628 6.363 51.417V38.86H48.009V58H24.843ZM51.851 52.868C52.142 52.868 52.376 53.102 52.376 53.393C52.376 53.684 52.142 53.305 51.851 53.305C51.56 53.305 51.326 53.684 51.326 53.393C51.326 53.102 51.56 52.868 51.851 52.868ZM50.952 54.974C50.662 54.974 50.427 55.265 50.427 54.974C50.4329 54.8386 50.4909 54.7107 50.5888 54.617C50.6867 54.5232 50.817 54.4709 50.9525 54.4709C51.088 54.4709 51.2183 54.5232 51.3162 54.617C51.4141 54.7107 51.4721 54.8386 51.478 54.974C51.479 55.265 51.243 54.974 50.952 54.974ZM52.756 56.549C52.176 56.549 51.705 57.36 51.705 56.778C51.705 56.499 51.8158 56.2314 52.0131 56.0341C52.2104 55.8368 52.478 55.726 52.757 55.726C53.036 55.726 53.3036 55.8368 53.5009 56.0341C53.6982 56.2314 53.809 56.499 53.809 56.778C53.809 57.359 53.338 56.549 52.756 56.549ZM53.425 52.15C53.032 52.15 52.713 52.736 52.713 52.342C52.7094 52.2462 52.7252 52.1506 52.7594 52.0611C52.7936 51.9715 52.8455 51.8897 52.912 51.8207C52.9785 51.7516 53.0583 51.6967 53.1465 51.6592C53.2347 51.6216 53.3296 51.6023 53.4255 51.6023C53.5214 51.6023 53.6163 51.6216 53.7045 51.6592C53.7927 51.6967 53.8725 51.7516 53.939 51.8207C54.0055 51.8897 54.0574 51.9715 54.0916 52.0611C54.1258 52.1506 54.1416 52.2462 54.138 52.342C54.138 52.736 53.818 52.15 53.425 52.15ZM56.053 55.831C55.66 55.831 55.342 56.417 55.342 56.023C55.342 55.8342 55.417 55.6531 55.5505 55.5195C55.6841 55.386 55.8652 55.311 56.054 55.311C56.2428 55.311 56.4239 55.386 56.5575 55.5195C56.691 55.6531 56.766 55.8342 56.766 56.023C56.766 56.417 56.447 55.831 56.053 55.831ZM56.69 54.057C56.69 53.7765 56.8014 53.5076 56.9997 53.3092C57.1981 53.1109 57.467 52.9995 57.7475 52.9995C58.028 52.9995 58.2969 53.1109 58.4953 53.3092C58.6936 53.5076 58.805 53.7765 58.805 54.057C58.805 54.641 58.331 53.722 57.747 53.722C57.164 53.722 56.69 54.641 56.69 54.057ZM58.313 56.552C58.022 56.552 57.788 56.842 57.788 56.552C57.788 56.261 58.022 56.027 58.313 56.027C58.604 56.027 58.838 56.261 58.838 56.552C58.838 56.842 58.604 56.552 58.313 56.552Z" fill="#006997"/>
</svg>
