<svg width="41" height="53" viewBox="0 0 41 53" fill="none" xmlns="http://www.w3.org/2000/svg">
<path fill-rule="evenodd" clip-rule="evenodd" d="M8.66663 4.33337C8.66663 3.27251 9.08805 2.25509 9.8382 1.50495C10.5883 0.754801 11.6058 0.333374 12.6666 0.333374H23.3333C24.3942 0.333374 25.4116 0.754801 26.1617 1.50495C26.9119 2.25509 27.3333 3.27251 27.3333 4.33337H31.3333C32.3942 4.33337 33.4116 4.7548 34.1617 5.50495C34.9119 6.25509 35.3333 7.27251 35.3333 8.33337V28.3334H32.6666V8.33337C32.6666 7.97975 32.5262 7.64061 32.2761 7.39056C32.0261 7.14052 31.6869 7.00004 31.3333 7.00004H27.3333C27.3333 8.06091 26.9119 9.07832 26.1617 9.82847C25.4116 10.5786 24.3942 11 23.3333 11H12.6666C11.6058 11 10.5883 10.5786 9.8382 9.82847C9.08805 9.07832 8.66663 8.06091 8.66663 7.00004H4.66663C4.313 7.00004 3.97387 7.14052 3.72382 7.39056C3.47377 7.64061 3.33329 7.97975 3.33329 8.33337V45.6667C3.33329 46.0203 3.47377 46.3595 3.72382 46.6095C3.97387 46.8596 4.313 47 4.66663 47H20.6666V49.6667H4.66663C3.60576 49.6667 2.58834 49.2453 1.8382 48.4951C1.08805 47.745 0.666626 46.7276 0.666626 45.6667V8.33337C0.666626 7.27251 1.08805 6.25509 1.8382 5.50495C2.58834 4.7548 3.60576 4.33337 4.66663 4.33337H8.66663ZM12.6666 3.00004C12.313 3.00004 11.9739 3.14052 11.7238 3.39057C11.4738 3.64061 11.3333 3.97975 11.3333 4.33337V7.00004C11.3333 7.35366 11.4738 7.6928 11.7238 7.94285C11.9739 8.1929 12.313 8.33337 12.6666 8.33337H23.3333C23.6869 8.33337 24.0261 8.1929 24.2761 7.94285C24.5262 7.6928 24.6666 7.35366 24.6666 7.00004V4.33337C24.6666 3.97975 24.5262 3.64061 24.2761 3.39057C24.0261 3.14052 23.6869 3.00004 23.3333 3.00004H12.6666ZM16.6666 16.3334V20.3334H12.6666V23H16.6666V27H19.3333V23H23.3333V20.3334H19.3333V16.3334H16.6666ZM23.3333 31C22.9797 31 22.6405 31.1405 22.3905 31.3906C22.1404 31.6406 22 31.9797 22 32.3334V41.3854C22 42.9218 22.3794 44.4345 23.1044 45.7891C23.8294 47.1437 24.8776 48.2984 26.156 49.1507L30.5933 52.1107C30.8124 52.2569 31.0699 52.3349 31.3333 52.3349C31.5967 52.3349 31.8542 52.2569 32.0733 52.1107L36.5106 49.1507C37.7888 48.2985 38.8369 47.1441 39.5619 45.7897C40.2869 44.4353 40.6663 42.9229 40.6666 41.3867V32.3334C40.6666 31.9797 40.5262 31.6406 40.2761 31.3906C40.0261 31.1405 39.6869 31 39.3333 31H23.3333ZM36.276 38.6094L30.9426 43.9427C30.6926 44.1927 30.3535 44.3331 30 44.3331C29.6464 44.3331 29.3073 44.1927 29.0573 43.9427L26.3906 41.276L28.276 39.3907L30 41.1147L34.3906 36.724L36.276 38.6094Z" fill="#006997"/>
</svg>
