<svg width="4079" height="2719" viewBox="0 0 4079 2719" fill="none" xmlns="http://www.w3.org/2000/svg">
<path d="M4079 0H0V2719H4079V0Z" fill="white"/>
<path d="M3626.23 2345.69L3027.39 2349.42L2263.7 2346.84L556.321 2341.06C556.321 2341.06 311.364 2156.77 317.346 1835.6C321.14 1630.39 371.733 1197.19 902.288 1095.93C1399.93 1000.96 1267.58 396.811 2001.24 456.18C2290.73 479.605 2419.17 712.093 2642.91 650.167C3588.41 388.423 3795.9 932.712 3867.12 1461.08C3893.38 1656.03 3822.49 2262.63 3626.23 2345.69Z" fill="#EBFAFF"/>
<path d="M2170.64 669.485H1998.32C1990.37 669.485 1983.93 675.925 1983.93 683.869V850.176C1983.93 858.12 1990.37 864.56 1998.32 864.56H2170.64C2178.58 864.56 2185.03 858.12 2185.03 850.176V683.869C2185.03 675.925 2178.58 669.485 2170.64 669.485Z" fill="#C0D8FB"/>
<path d="M2163.19 677.941H2005.78C1998.53 677.941 1992.65 683.821 1992.65 691.074V842.971C1992.65 850.224 1998.53 856.104 2005.78 856.104H2163.19C2170.44 856.104 2176.32 850.224 2176.32 842.971V691.074C2176.32 683.821 2170.44 677.941 2163.19 677.941Z" fill="#DFEBFD"/>
<path d="M2080.29 695.752C2080.29 694.925 2080.53 694.116 2080.99 693.428C2081.45 692.739 2082.1 692.202 2082.86 691.885C2083.62 691.567 2084.46 691.483 2085.28 691.644C2086.09 691.805 2086.83 692.202 2087.42 692.787C2088 693.371 2088.4 694.116 2088.56 694.927C2088.72 695.738 2088.64 696.578 2088.32 697.342C2088 698.105 2087.46 698.756 2086.77 699.214C2086.09 699.672 2085.28 699.914 2084.45 699.912C2083.35 699.912 2082.29 699.474 2081.51 698.693C2080.73 697.913 2080.29 696.855 2080.29 695.752Z" fill="#B7D3F3"/>
<path d="M2113.93 701.638C2114.33 700.918 2114.93 700.333 2115.66 699.957C2116.39 699.58 2117.22 699.429 2118.04 699.523C2118.86 699.617 2119.63 699.951 2120.26 700.483C2120.88 701.015 2121.34 701.721 2121.57 702.512C2121.79 703.303 2121.78 704.144 2121.53 704.927C2121.28 705.711 2120.8 706.402 2120.15 706.914C2119.51 707.425 2118.73 707.735 2117.91 707.802C2117.09 707.87 2116.27 707.693 2115.55 707.293C2114.58 706.758 2113.87 705.861 2113.57 704.8C2113.26 703.74 2113.39 702.602 2113.93 701.638Z" fill="#B7D3F3"/>
<path d="M2142.73 724.505C2143.42 724.06 2144.23 723.83 2145.05 723.843C2145.87 723.857 2146.67 724.114 2147.34 724.582C2148.02 725.049 2148.54 725.707 2148.85 726.471C2149.15 727.235 2149.22 728.072 2149.05 728.876C2148.87 729.679 2148.47 730.414 2147.88 730.987C2147.29 731.56 2146.54 731.945 2145.73 732.094C2144.92 732.243 2144.09 732.149 2143.33 731.824C2142.58 731.5 2141.94 730.958 2141.49 730.269C2141.19 729.81 2140.99 729.296 2140.89 728.757C2140.79 728.218 2140.8 727.665 2140.91 727.13C2141.02 726.594 2141.24 726.087 2141.56 725.636C2141.87 725.186 2142.27 724.801 2142.73 724.505Z" fill="#B7D3F3"/>
<path d="M2156.99 759.961C2157.81 759.961 2158.62 760.205 2159.3 760.662C2159.98 761.119 2160.52 761.769 2160.83 762.529C2161.15 763.289 2161.23 764.126 2161.07 764.933C2160.91 765.74 2160.51 766.481 2159.93 767.063C2159.35 767.644 2158.61 768.041 2157.8 768.201C2156.99 768.362 2156.16 768.279 2155.4 767.964C2154.64 767.65 2153.99 767.116 2153.53 766.432C2153.07 765.748 2152.83 764.944 2152.83 764.121C2152.83 763.018 2153.27 761.96 2154.05 761.179C2154.83 760.399 2155.89 759.961 2156.99 759.961Z" fill="#B7D3F3"/>
<path d="M2146.76 808.114C2149.06 808.114 2150.92 806.252 2150.92 803.954C2150.92 801.656 2149.06 799.794 2146.76 799.794C2144.47 799.794 2142.6 801.656 2142.6 803.954C2142.6 806.252 2144.47 808.114 2146.76 808.114Z" fill="#B7D3F3"/>
<path d="M2123.55 827.228C2124.14 827.812 2124.54 828.555 2124.7 829.365C2124.86 830.175 2124.78 831.014 2124.46 831.777C2124.14 832.54 2123.61 833.192 2122.92 833.651C2122.24 834.109 2121.43 834.354 2120.6 834.354C2119.78 834.354 2118.97 834.109 2118.28 833.651C2117.6 833.192 2117.06 832.54 2116.75 831.777C2116.43 831.014 2116.35 830.175 2116.51 829.365C2116.67 828.555 2117.07 827.812 2117.65 827.228C2118.44 826.446 2119.5 826.007 2120.6 826.007C2121.71 826.007 2122.77 826.446 2123.55 827.228Z" fill="#B7D3F3"/>
<path d="M2080.29 840.742C2080.29 839.915 2080.53 839.106 2080.99 838.418C2081.45 837.73 2082.1 837.193 2082.86 836.875C2083.62 836.557 2084.46 836.474 2085.28 836.634C2086.09 836.795 2086.83 837.193 2087.42 837.777C2088 838.362 2088.4 839.107 2088.56 839.917C2088.72 840.728 2088.64 841.569 2088.32 842.332C2088 843.095 2087.46 843.747 2086.77 844.204C2086.09 844.662 2085.28 844.905 2084.45 844.902C2083.35 844.902 2082.29 844.464 2081.51 843.684C2080.73 842.903 2080.29 841.845 2080.29 840.742Z" fill="#B7D3F3"/>
<path d="M2054.9 701.638C2054.51 700.918 2053.9 700.333 2053.17 699.957C2052.44 699.58 2051.61 699.429 2050.79 699.523C2049.98 699.617 2049.2 699.951 2048.58 700.483C2047.95 701.015 2047.49 701.721 2047.27 702.512C2047.04 703.303 2047.05 704.144 2047.31 704.927C2047.56 705.711 2048.03 706.402 2048.68 706.914C2049.32 707.425 2050.11 707.735 2050.93 707.802C2051.75 707.87 2052.57 707.693 2053.29 707.293C2054.25 706.758 2054.96 705.861 2055.27 704.8C2055.57 703.74 2055.44 702.602 2054.9 701.638Z" fill="#B7D3F3"/>
<path d="M2026.11 724.505C2025.42 724.06 2024.61 723.83 2023.79 723.843C2022.96 723.857 2022.16 724.114 2021.49 724.582C2020.81 725.049 2020.29 725.707 2019.99 726.471C2019.68 727.235 2019.61 728.072 2019.79 728.876C2019.96 729.679 2020.37 730.414 2020.96 730.987C2021.55 731.56 2022.29 731.945 2023.1 732.094C2023.91 732.243 2024.74 732.149 2025.5 731.824C2026.25 731.5 2026.9 730.958 2027.34 730.269C2027.64 729.81 2027.85 729.296 2027.95 728.757C2028.05 728.218 2028.04 727.665 2027.92 727.13C2027.81 726.594 2027.59 726.087 2027.28 725.636C2026.97 725.186 2026.57 724.801 2026.11 724.505Z" fill="#B7D3F3"/>
<path d="M2011.84 759.961C2011.02 759.961 2010.22 760.205 2009.53 760.662C2008.85 761.119 2008.32 761.769 2008 762.529C2007.69 763.289 2007.6 764.126 2007.76 764.933C2007.92 765.74 2008.32 766.481 2008.9 767.063C2009.48 767.644 2010.23 768.041 2011.03 768.201C2011.84 768.362 2012.68 768.279 2013.44 767.964C2014.2 767.65 2014.85 767.116 2015.3 766.432C2015.76 765.748 2016 764.944 2016 764.121C2016 763.019 2015.56 761.963 2014.78 761.183C2014 760.404 2012.95 759.965 2011.84 759.961Z" fill="#B7D3F3"/>
<path d="M2019.11 801.004C2018.52 801.587 2018.12 802.331 2017.96 803.14C2017.8 803.95 2017.88 804.79 2018.2 805.552C2018.51 806.315 2019.05 806.967 2019.74 807.426C2020.42 807.885 2021.23 808.13 2022.06 808.13C2022.88 808.13 2023.69 807.885 2024.37 807.426C2025.06 806.967 2025.6 806.315 2025.91 805.552C2026.23 804.79 2026.31 803.95 2026.15 803.14C2025.99 802.331 2025.59 801.587 2025.01 801.004C2024.22 800.222 2023.16 799.782 2022.06 799.782C2020.95 799.782 2019.89 800.222 2019.11 801.004Z" fill="#B7D3F3"/>
<path d="M2048.23 834.325C2050.53 834.325 2052.39 832.462 2052.39 830.165C2052.39 827.867 2050.53 826.005 2048.23 826.005C2045.93 826.005 2044.07 827.867 2044.07 830.165C2044.07 832.462 2045.93 834.325 2048.23 834.325Z" fill="#B7D3F3"/>
<path d="M2083.36 764.039C2083.36 763.216 2083.61 762.412 2084.06 761.728C2084.52 761.044 2085.17 760.51 2085.93 760.196C2086.69 759.881 2087.53 759.798 2088.34 759.959C2089.14 760.119 2089.88 760.516 2090.47 761.097C2091.05 761.679 2091.44 762.42 2091.6 763.227C2091.76 764.034 2091.68 764.871 2091.37 765.631C2091.05 766.391 2090.52 767.041 2089.83 767.498C2089.15 767.955 2088.35 768.199 2087.52 768.199C2086.42 768.199 2085.36 767.761 2084.58 766.981C2083.8 766.2 2083.36 765.142 2083.36 764.039Z" fill="#B7D3F3"/>
<path d="M2088.09 712.052H2086.95V764.08H2088.09V712.052Z" fill="#B7D3F3"/>
<path d="M2113.55 741.054L2085.96 762.716L2088.07 765.4L2115.66 743.738L2113.55 741.054Z" fill="#B7D3F3"/>
<path d="M930.406 1698.52C930.406 1698.52 901.214 1664.53 928.598 1642.78C928.598 1642.78 948.612 1630.67 964.928 1631.66C964.928 1631.66 941.814 1670.42 949.292 1674.27C956.77 1678.11 971.931 1629.22 971.931 1629.22C971.931 1629.22 1017.47 1624.81 1032.11 1631.85C1032.11 1631.85 993.196 1663.7 1001.38 1665.59C1009.57 1667.48 1051.69 1636.23 1051.69 1636.23C1051.69 1636.23 1094.07 1643.45 1091.8 1669.29C1089.53 1695.13 1074.94 1703.11 1068.52 1702.43C1062.1 1701.75 1024.56 1687.48 1023.75 1692.67C1022.93 1697.87 1045.5 1715.12 1061.36 1715.92C1061.36 1715.92 1031.44 1748.86 1011.62 1739.36C991.795 1729.86 990.069 1714.78 977.628 1709.12C965.187 1703.47 954.69 1703.48 959.802 1709.25C964.915 1715.01 987.309 1720.62 994.392 1733.14C1001.48 1745.67 1007.81 1754.11 987.268 1751.01C966.723 1747.91 933.33 1732.89 931.861 1715.66L930.406 1698.52Z" fill="#C8DBF4"/>
<path d="M1070.93 1670.04C1070.93 1670.04 955.819 1665.61 930.406 1698.52C930.406 1698.52 924.777 1715.35 907.483 1730.68L904.763 1738.04C904.763 1738.04 924.737 1717.05 931.861 1715.69C931.861 1715.69 920.712 1674.9 1070.93 1670.04Z" fill="#C8DBF4"/>
<path d="M907.482 1730.64C907.482 1730.64 882.777 1748.92 881.064 1781.56L885.537 1781.96C885.537 1781.96 893.437 1748.21 907.7 1735.01C921.963 1721.81 907.482 1730.64 907.482 1730.64Z" fill="#C8DBF4"/>
<path d="M828.336 1655.69C828.336 1655.69 874.768 1629.69 853.095 1594.41C853.095 1594.41 835.759 1572.74 817.186 1567.22C817.186 1567.22 827.098 1619.84 817.186 1621.08C807.274 1622.32 810.388 1561.64 810.388 1561.64C810.388 1561.64 761.44 1538.11 742.282 1539.97C742.282 1539.97 772.617 1591.36 762.677 1590.13C752.738 1588.89 718.719 1536.87 718.719 1536.87C718.719 1536.87 668.561 1527.59 660.512 1557.27C652.463 1586.94 665.475 1601.84 672.899 1603.71C680.322 1605.57 728.006 1604.94 726.769 1611.13C725.531 1617.32 693.334 1627.23 675.373 1621.65C675.373 1621.65 695.197 1670.59 721.194 1668.09C747.191 1665.59 755.254 1649.52 771.352 1648.27C787.451 1647.02 799.212 1651.37 791.162 1655.71C783.113 1660.04 755.879 1657.07 742.867 1668.17C729.855 1679.28 719.345 1686.04 743.493 1691C767.64 1695.96 810.986 1692.85 819.634 1674.28L828.336 1655.69Z" fill="#C8DBF4"/>
<path d="M683.437 1566.54C683.437 1566.54 813.475 1608.68 828.336 1655.69C828.336 1655.69 827.711 1676.74 840.709 1700.88V1710.17C840.709 1710.17 827.113 1678.6 819.662 1674.26C819.662 1674.26 848.758 1633.4 683.437 1566.54Z" fill="#C8DBF4"/>
<path d="M840.709 1700.88C840.709 1700.88 860.764 1731.34 849.329 1768.4L844.176 1767.04C844.176 1767.04 849.18 1726.25 838.737 1705.68C828.295 1685.11 840.709 1700.88 840.709 1700.88Z" fill="#C8DBF4"/>
<path d="M902.207 1619.83C902.207 1619.83 841.022 1585.56 869.575 1539.04C869.575 1539.04 892.431 1510.49 916.918 1503.13C916.918 1503.13 903.852 1572.47 916.918 1574.12C929.985 1575.78 925.892 1495.79 925.892 1495.79C925.892 1495.79 990.381 1464.77 1015.63 1467.24C1015.63 1467.24 975.629 1534.98 988.695 1533.35C1001.76 1531.72 1046.64 1463.16 1046.64 1463.16C1046.64 1463.16 1112.75 1450.93 1123.37 1490.09C1133.99 1529.26 1116.83 1548.85 1107.05 1551.27C1097.28 1553.69 1034.41 1552.9 1036.04 1561.06C1037.67 1569.22 1080.12 1582.28 1103.79 1574.93C1103.79 1574.93 1077.67 1639.41 1043.39 1636.1C1009.12 1632.8 998.526 1611.63 977.274 1609.99C956.022 1608.34 940.563 1614.07 951.155 1619.78C961.747 1625.49 997.683 1621.65 1014.83 1636.21C1031.97 1650.77 1045.84 1659.77 1014.01 1666.3C982.182 1672.82 925.036 1668.75 913.614 1644.26L902.207 1619.83Z" fill="#D4E4F8"/>
<path d="M1093.17 1502.32C1093.17 1502.32 921.854 1557.81 902.207 1619.83C902.207 1619.83 903.022 1647.58 885.891 1679.4V1691.64C885.891 1691.64 903.838 1650.01 913.641 1644.3C913.696 1644.32 875.272 1590.45 1093.17 1502.32Z" fill="#D4E4F8"/>
<path d="M885.891 1679.4C885.891 1679.4 859.459 1719.54 874.524 1768.4L881.322 1766.58C881.322 1766.58 874.728 1712.77 888.556 1685.7C902.384 1658.63 885.891 1679.4 885.891 1679.4Z" fill="#D4E4F8"/>
<path d="M900.1 1874.34C915.846 1874.34 931.439 1871.24 945.987 1865.22C960.535 1859.19 973.754 1850.36 984.888 1839.23C996.023 1828.09 1004.86 1814.88 1010.88 1800.33C1016.91 1785.78 1020.01 1770.19 1020.01 1754.45H780.245C780.242 1786.24 792.866 1816.73 815.343 1839.21C837.819 1861.69 868.306 1874.33 900.1 1874.34Z" fill="#D4E4F8"/>
<path d="M1021.72 1880.45H778.586C778.586 1878.5 778.969 1876.58 779.712 1874.79C780.455 1872.99 781.545 1871.36 782.919 1869.99C784.292 1868.61 785.923 1867.52 787.718 1866.78C789.513 1866.04 791.436 1865.66 793.379 1865.66H1006.93C1008.87 1865.66 1010.79 1866.04 1012.59 1866.78C1014.38 1867.52 1016.02 1868.61 1017.39 1869.99C1018.76 1871.36 1019.85 1872.99 1020.6 1874.79C1021.34 1876.58 1021.72 1878.5 1021.72 1880.45Z" fill="#D4E4F8"/>
<path d="M1022.8 1754.45H776.302V1758.12H1022.8V1754.45Z" fill="#9FC1F4"/>
<path d="M1046.81 1887.76V1899.22C1046.81 1903.3 1045.45 1906.54 1043.91 1906.54H623.964C622.374 1906.54 621.068 1903.25 621.068 1899.22V1887.71C621.068 1883.63 622.428 1880.39 623.964 1880.39H1043.91C1045.5 1880.45 1046.81 1883.74 1046.81 1887.76Z" fill="#9ABFE2"/>
<path d="M1046.81 1887.76V1899.22C1046.81 1903.3 1045.61 1906.54 1044.09 1906.54H710.766C709.298 1906.54 708.047 1903.25 708.047 1899.22V1887.71C708.047 1883.63 709.243 1880.39 710.766 1880.39H1044.14C1045.58 1880.45 1046.81 1883.74 1046.81 1887.76Z" fill="#BAD4F4"/>
<path d="M940.522 1906.59H642.388V2341.07H940.522V1906.59Z" fill="#C8DBF4"/>
<path d="M1024.07 1906.59H725.939V2341.07H1024.07V1906.59Z" fill="#DFEBFD"/>
<path d="M1008.04 2317.09H741.956V1918.87H1008.04V2317.09ZM744.825 2314.21H1005.17V1921.73H744.825V2314.21Z" fill="#B7D3F3"/>
<path d="M1006.62 2050.6H743.397V2053.47H1006.62V2050.6Z" fill="#B7D3F3"/>
<path d="M1006.62 2184.91H743.397V2187.77H1006.62V2184.91Z" fill="#B7D3F3"/>
<path d="M901.976 1944.55H853.136C851.994 1944.54 850.9 1944.09 850.093 1943.28C849.285 1942.47 848.83 1941.38 848.826 1940.24C848.83 1939.1 849.285 1938 850.093 1937.19C850.9 1936.39 851.994 1935.93 853.136 1935.93H901.976C903.118 1935.93 904.212 1936.39 905.019 1937.19C905.827 1938 906.282 1939.1 906.286 1940.24C906.282 1941.38 905.827 1942.47 905.019 1943.28C904.212 1944.09 903.118 1944.54 901.976 1944.55Z" fill="#B7D3F3"/>
<path d="M901.976 2075.88H853.136C851.993 2075.88 850.897 2075.42 850.089 2074.61C849.28 2073.8 848.826 2072.71 848.826 2071.57C848.83 2070.42 849.285 2069.33 850.093 2068.53C850.901 2067.72 851.996 2067.27 853.136 2067.27H901.976C903.115 2067.27 904.207 2067.73 905.015 2068.53C905.822 2069.34 906.279 2070.43 906.286 2071.57C906.282 2072.71 905.827 2073.8 905.019 2074.61C904.212 2075.42 903.118 2075.87 901.976 2075.88Z" fill="#B7D3F3"/>
<path d="M901.976 2212.79H853.136C851.994 2212.79 850.9 2212.33 850.093 2211.52C849.285 2210.72 848.83 2209.62 848.826 2208.48C848.826 2207.34 849.28 2206.24 850.089 2205.43C850.897 2204.62 851.993 2204.17 853.136 2204.17H901.976C903.118 2204.17 904.212 2204.63 905.019 2205.44C905.827 2206.24 906.282 2207.34 906.286 2208.48C906.282 2209.62 905.827 2210.72 905.019 2211.52C904.212 2212.33 903.118 2212.79 901.976 2212.79Z" fill="#B7D3F3"/>
<path d="M708.386 1820.86V1881.24H647.541V1820.67C647.539 1820.09 647.571 1819.51 647.636 1818.93C647.948 1815.6 649.157 1812.41 651.134 1809.71C653.111 1807 655.784 1804.89 658.867 1803.58C661.021 1802.72 662.888 1801.26 664.251 1799.38C665.615 1797.5 666.421 1795.28 666.576 1792.96L667.025 1784.25H689.351L689.487 1792.94C689.563 1795.25 690.309 1797.48 691.635 1799.37C692.96 1801.27 694.807 1802.73 696.951 1803.59C700.044 1804.9 702.73 1807.01 704.727 1809.71C706.724 1812.41 707.96 1815.59 708.305 1818.93C708.366 1819.57 708.393 1820.22 708.386 1820.86Z" fill="#C8DBF4"/>
<path d="M690.969 1788.07H664.891L665.584 1781.26H690.276L690.969 1788.07Z" fill="#B7D3F3"/>
<path d="M708.386 1820.86V1859.8H647.541V1820.67C647.539 1820.09 647.571 1819.51 647.636 1818.93H708.386C708.42 1819.57 708.42 1820.22 708.386 1820.86Z" fill="white"/>
<path d="M758.422 1847.47V1881.24H724.431V1847.36C724.41 1847.04 724.41 1846.71 724.431 1846.39C724.601 1844.52 725.275 1842.74 726.382 1841.23C727.488 1839.71 728.985 1838.53 730.712 1837.8C731.916 1837.31 732.96 1836.5 733.722 1835.45C734.484 1834.4 734.935 1833.15 735.022 1831.86L735.267 1826.98H747.817V1831.84C747.861 1833.13 748.279 1834.38 749.02 1835.44C749.761 1836.5 750.793 1837.32 751.991 1837.8C753.722 1838.53 755.224 1839.72 756.341 1841.23C757.458 1842.74 758.149 1844.52 758.341 1846.39C758.389 1846.75 758.416 1847.11 758.422 1847.47Z" fill="#C8DBF4"/>
<path d="M748.66 1829.13H734.084L734.465 1825.32H748.279L748.66 1829.13Z" fill="#B7D3F3"/>
<path d="M758.422 1847.47V1869.22H724.431V1847.33C724.41 1847.01 724.41 1846.69 724.431 1846.36H758.422C758.444 1846.73 758.444 1847.1 758.422 1847.47Z" fill="white"/>
<g opacity="0.5">
<path d="M3536.52 818.392H2731.67V2345.69H3536.52V818.392Z" fill="#BAD4F4"/>
<path d="M3502.18 845.215H2767V2345.69H3502.18V845.215Z" fill="#DFEBFD"/>
<path d="M3377.41 1585.18C3377.41 1566.55 3391.96 1551.45 3409.92 1551.45C3427.88 1551.45 3442.42 1566.55 3442.42 1585.18C3442.42 1603.8 3427.87 1618.92 3409.92 1618.92C3391.97 1618.92 3377.41 1603.83 3377.41 1585.18Z" fill="#C8DBF4"/>
<path d="M3287.4 1072.6H2983.92V1172.05H3287.4V1072.6Z" fill="white"/>
<path d="M3231.07 1103.44H3040.24V1113.68H3231.07V1103.44Z" fill="#BAD4F4"/>
<path d="M3204.37 1131H3066.96V1141.23H3204.37V1131Z" fill="#BAD4F4"/>
<path d="M3291.03 1175.83H2980.28V1068.83H3291.03V1175.83ZM2987.57 1168.27H3283.76V1076.38H2987.57V1168.27Z" fill="#BAD4F4"/>
</g>
<path d="M2831.03 2340.11H2746.53C2748.02 2329.84 2750.29 2319.71 2753.32 2309.79C2754.61 2305.6 2756.21 2301.51 2758.11 2297.55C2766.27 2281.16 2818.49 2291.59 2818.49 2291.59C2818.49 2291.59 2823.35 2295.75 2827.13 2311.6C2829.24 2320.97 2830.54 2330.51 2831.03 2340.11Z" fill="#233862"/>
<path d="M2675.97 1050.2C2675.97 1050.2 2608.68 1062.01 2593.47 1101.74C2578.25 1141.46 2492.27 1783.04 2492.27 1783.04C2492.27 1783.04 2534.83 1816.75 2626.2 1804.64C2717.57 1792.53 2675.97 1050.2 2675.97 1050.2Z" fill="#AEC3FF"/>
<path d="M2575.81 2313.45C2575.58 2324.94 2574.13 2335.81 2569.96 2340.11H2402.91C2405.03 2334.06 2411.07 2324.98 2428.19 2322.19C2447.69 2319.03 2478.06 2309.65 2495.79 2290.92C2502.24 2284.36 2506.76 2276.17 2508.88 2267.22C2516.74 2232.23 2573.86 2277.94 2573.86 2277.94C2575.26 2289.72 2575.91 2301.58 2575.81 2313.45Z" fill="#233862"/>
<path d="M2503.87 2296.44C2522.54 2302.39 2558.25 2320.57 2580.88 2312.02C2595.52 2306.5 2677.42 2069.68 2682.72 1966.09C2683.51 1955.74 2684.91 1945.44 2686.91 1935.25C2691.76 1908.51 2700.24 1871.77 2710.02 1831.23C2736.23 1722.62 2771.67 1586.74 2770.91 1543.32C2769.71 1475.9 2570 1529.19 2570 1529.19C2570 1529.19 2556.26 1584.48 2553.52 1664.53C2548.08 1823.44 2533.13 2091.86 2492.62 2278.26C2490.91 2286.18 2496.12 2293.98 2503.87 2296.44Z" fill="#233862"/>
<path d="M2642.48 1543.55L2748.06 2308.66C2748.06 2308.66 2794.43 2319.85 2830.49 2310.9C2830.49 2310.9 2861.4 1903.98 2858.82 1805.59C2856.24 1707.21 2881.01 1542.35 2853.17 1524.18C2825.32 1506 2642.48 1543.55 2642.48 1543.55Z" fill="#2B478B"/>
<path d="M2866.52 1085.25C2866.52 1085.25 2755.57 1013.52 2675.97 1050.2C2663.3 1056.05 2648.78 1072.36 2638.47 1083.78C2609.7 1115.47 2553.5 1618.93 2553.5 1618.93C2553.5 1618.93 2713.07 1672.97 2866.52 1600.61V1085.25Z" fill="white"/>
<path d="M2669.66 1048.38C2669.66 1048.38 2557.34 1094.4 2542.13 1129.74C2526.91 1165.09 2477.46 1382.29 2477.46 1407.75C2477.46 1433.21 2563.56 1413.45 2577.42 1372.4C2588.93 1338.29 2627.73 1233.5 2648.22 1167.24L2669.66 1048.38Z" fill="#AEC3FF"/>
<path d="M2693 1083.52C2717.47 1088.33 2753.54 1083.21 2779.91 1065.85C2768.01 1037.41 2763.13 1014.95 2761.39 1000.43C2761.28 999.654 2761.21 998.906 2761.13 998.186C2760.47 993.228 2760.37 988.212 2760.83 983.231H2697.43C2697.43 983.231 2680.11 991.144 2680.11 996.623C2680.11 999.559 2680.08 1002.36 2680.03 1005.02C2679.9 1012.32 2679.6 1018.69 2679.22 1024.15C2678.03 1041.93 2675.97 1050.31 2675.97 1050.31C2675.97 1050.31 2668.24 1078.6 2693 1083.52Z" fill="#FFB27D"/>
<path d="M2679.22 1024.04C2727.26 1033.32 2755.13 1007.08 2761.39 1000.35C2762.27 999.382 2762.75 998.811 2762.75 998.811C2762.23 998.553 2761.7 998.335 2761.14 998.104C2743.26 990.858 2702.68 996.622 2680.04 1004.9C2679.9 1012.22 2679.6 1018.58 2679.22 1024.04Z" fill="#E2915A"/>
<path d="M2777.08 972.695C2768.49 1018.92 2708.89 1017.37 2683.14 1014.46C2675.88 1013.66 2671.32 1012.73 2671.32 1012.73C2663.17 1010.54 2658.6 997.683 2656.48 980.811C2652.26 947.449 2657.58 898.466 2663.27 885.945C2671.76 867.089 2687.75 846.697 2747.75 861.474C2807.75 876.252 2788.09 913.584 2777.08 972.695Z" fill="#FFB27D"/>
<path d="M2660.98 860.183C2669.13 848.817 2686.58 834.951 2702.38 826.399C2736.37 808.046 2779.76 826.97 2779.88 827.052C2828.91 848.614 2841.7 886.109 2815.72 944.54C2788.23 1006.32 2762.05 999.355 2762.05 999.355C2762.05 999.355 2767.62 995.902 2767.11 976.651C2767.11 975.55 2767.11 974.639 2766.99 973.851C2766.83 971.9 2767.11 969.939 2767.82 968.114C2768.53 966.289 2769.64 964.648 2771.07 963.315C2777.16 957.877 2780.12 941.454 2775.03 936.872C2768.87 931.353 2760.23 938.055 2757.47 943.221C2756.94 944.11 2756.24 944.881 2755.4 945.487C2754.56 946.092 2753.61 946.519 2752.6 946.741C2751.59 946.963 2750.55 946.975 2749.53 946.776C2748.52 946.578 2747.55 946.173 2746.7 945.587C2731.45 935.948 2741.36 916.657 2726.78 904.802C2712.21 892.947 2682.61 902.912 2660.75 893.504C2632.18 882.887 2654.8 868.721 2660.98 860.183Z" fill="#233862"/>
<path d="M2654.15 1830.17C2663.82 1832.66 2673.4 1834.69 2682.88 1836.26C2691.28 1837.7 2699.67 1838.77 2708.03 1839.47C2755.51 1843.55 2803.21 1836.93 2858.96 1820.94C2871.51 1817.32 2884.51 1813.24 2897.94 1808.71C2899.37 1808.22 2894.28 1660.82 2888.42 1508.79C2887.82 1493.08 2887.2 1477.33 2886.6 1461.68C2886.33 1455.05 2886.06 1448.46 2885.81 1441.89C2880.47 1307.42 2875.18 1185.97 2874.06 1179.5C2871.52 1164.71 2869.14 1152.09 2866.53 1141.16C2858.94 1109.31 2849.51 1091.84 2828.95 1076.82C2826.94 1075.3 2810.5 1067 2795.99 1059.8C2783.97 1053.82 2773.3 1048.61 2773.3 1048.61C2768.51 1050.96 2762.77 1061.91 2756.76 1077.28C2745.72 1105.63 2733.8 1149.04 2725.49 1181.46C2725.49 1181.51 2725.49 1181.57 2725.49 1181.62C2720.16 1202.55 2716.33 1218.86 2715.24 1223.54C2713.39 1231.43 2710.94 1246.65 2708.06 1267.45C2704.16 1295.66 2699.5 1333.94 2694.56 1377.39C2694.06 1381.85 2693.55 1386.38 2693.04 1390.99C2692.45 1396.21 2691.85 1401.48 2691.28 1406.8C2691.09 1408.51 2690.9 1410.22 2690.73 1411.94C2688.82 1429.13 2686.91 1446.9 2685 1464.96C2683.41 1479.91 2660.79 1490.66 2659.17 1505.84C2658.27 1514.74 2656.45 1596.92 2653.97 1623.22C2652.23 1641.87 2653.47 1821.36 2654.15 1830.17Z" fill="#AEC3FF"/>
<path d="M2817.91 1233.68C2817.98 1233.98 2821.76 1369.63 2719.69 1386.13C2617.62 1402.64 2685.44 1406.97 2685.44 1406.97C2685.44 1406.97 2877.48 1398.82 2880.64 1393.73C2883.81 1388.65 2817.91 1233.68 2817.91 1233.68Z" fill="#9DB0F4"/>
<path d="M2731.67 1444.37C2731.67 1444.37 2733.58 1445.73 2737.27 1448.1L2737.44 1448.21C2753.03 1458.15 2799.24 1485.24 2866.52 1503.4C2873.59 1505.32 2880.89 1507.14 2888.41 1508.84C2887.81 1493.14 2887.18 1477.38 2886.59 1461.73C2895.08 1461.12 2903.53 1459.95 2911.88 1458.24L2911.06 1452.04C2902.51 1448.53 2894 1445.15 2885.8 1441.94C2879.11 1439.33 2872.65 1436.84 2866.52 1434.53C2838.88 1424.04 2818.4 1416.86 2818.4 1416.86L2736.57 1442.77L2731.67 1444.37Z" fill="#9DB0F4"/>
<path d="M2710.02 1442.1C2710.02 1442.1 2720.53 1444.73 2737.21 1448.1H2737.39C2768.24 1454.3 2820.13 1463.05 2866.46 1462.52C2873.26 1462.44 2880.06 1462.18 2886.53 1461.67C2895.03 1461.05 2903.48 1459.88 2911.82 1458.17C2928.76 1454.6 2942.94 1448.55 2952.23 1439.14C3021.17 1368.92 2914.61 1116.94 2892.2 1092.47C2866.05 1063.84 2818.32 1053.79 2791.95 1050.32L2788.77 1049.91C2779.5 1048.81 2773.56 1048.55 2773.23 1048.55C2773.23 1048.55 2775.3 1055.2 2778.75 1066.47C2780.11 1070.82 2781.66 1075.89 2783.37 1081.52C2799.57 1134.54 2830.8 1238.74 2844.56 1297.51C2849.6 1319 2852.31 1334.42 2851.07 1339.03C2845.7 1359.09 2790 1369.41 2754.71 1373.98C2740 1375.87 2728.88 1376.78 2726.32 1376.97H2725.81L2723.77 1385.34L2718.88 1405.41L2714.08 1425.12L2710.02 1442.1Z" fill="#AEC3FF"/>
<path d="M2517.75 1562.88L2754.49 1552.92L2706.47 1257.89L2469.71 1267.87L2517.75 1562.88Z" fill="#F99746"/>
<path d="M2725.86 1377.02C2725.86 1377.02 2679.78 1373.8 2677.47 1384.54C2672.03 1409.58 2717.09 1430.14 2731.67 1428.74C2746.24 1427.34 2736.47 1375.35 2725.86 1377.02Z" fill="#FFB27D"/>
<path d="M2482.66 1327.78C2482.66 1327.78 2526.75 1314 2531.48 1323.91C2542.52 1347.02 2503.49 1377.43 2488.98 1379.44C2474.47 1381.46 2471.96 1328.6 2482.66 1327.78Z" fill="#FFB27D"/>
<path d="M2768.49 1033.75C2768.49 1033.75 2787.87 1042.99 2797.6 1056.94C2797.6 1056.94 2725.13 1182.75 2725.45 1181.58C2725.78 1180.41 2749.94 1049.87 2768.49 1033.75Z" fill="#9DB0F4"/>
<path d="M2678.22 1035.53C2671.84 1037.94 2659.59 1050.49 2656.84 1057.41L2648.22 1167.25C2648.22 1167.25 2666.62 1086.63 2675.97 1050.2C2677.32 1045.42 2678.07 1040.49 2678.22 1035.53Z" fill="#9DB0F4"/>
<path d="M2627.99 1261.21C2627.99 1261.21 2626.11 1253.05 2615.33 1253.98C2604.55 1254.9 2544.02 1257.89 2544.02 1257.89C2544.02 1257.89 2532.34 1257.7 2533.43 1265.19L2627.99 1261.21Z" fill="#233862"/>
<path d="M2697.43 983.122C2694.56 985.375 2691.25 986.983 2687.7 987.835C2684.16 988.686 2680.47 988.762 2676.9 988.057C2669.38 986.698 2665.16 976.963 2665.16 976.963C2665.16 976.963 2679.62 974.367 2697.43 983.122Z" fill="white"/>
<path d="M3839.82 2340.11H361.508C359.218 2340.11 357.361 2341.96 357.361 2344.25V2346.16C357.361 2348.45 359.218 2350.3 361.508 2350.3H3839.82C3842.11 2350.3 3843.97 2348.45 3843.97 2346.16V2344.25C3843.97 2341.96 3842.11 2340.11 3839.82 2340.11Z" fill="#2E3552"/>
<path d="M1777.98 1254.27C1772.9 1244.47 1889.01 1209.13 1890.83 1305.94C1890.83 1305.94 2108.38 1300.59 2004.49 1179.37C1968.54 1137.4 1972.24 1102.7 1973.31 1070.4C1974.39 1038.1 1950.92 944.213 1870.41 953.675C1870.41 953.675 1849.32 945.097 1823.01 958.746C1763.19 989.825 1629.14 1290 1777.98 1254.27Z" fill="#163560"/>
<path d="M2133.59 1362.56C2133.59 1362.56 2147.76 1341.01 2159.16 1340.59C2170.57 1340.17 2191.7 1334.24 2190.02 1338.47C2188.33 1342.7 2175.22 1343.12 2173.96 1345.66C2172.69 1348.2 2193.4 1352 2199.32 1352.46C2205.23 1352.92 2219.18 1352.46 2218.76 1355.42C2218.34 1358.39 2193.62 1370.63 2176.17 1368.94C2158.73 1367.24 2137.19 1374.01 2137.19 1374.01L2133.59 1362.56Z" fill="#FFB27D"/>
<path d="M1928.82 1369.53C1935.01 1381.1 1942.27 1392.06 1950.48 1402.28C1967.32 1423.34 1993.26 1447.69 2025.82 1452.49C2041.38 1454.79 2056.59 1451.44 2070.58 1445.23C2110.13 1427.67 2139.93 1387.29 2139.93 1387.29C2146.9 1368.26 2135.48 1355.38 2135.48 1355.38C2135.48 1355.38 2055.6 1373.35 2048 1369.55C2040.4 1365.74 1996.02 1237.92 1985.45 1221.85C1974.89 1205.78 1938.87 1197.38 1938.87 1197.38L1928.82 1369.53Z" fill="#F9DDBF"/>
<path d="M1950.48 1402.28C1967.32 1423.34 1993.26 1447.69 2025.82 1452.49C2041.38 1454.79 2056.59 1451.44 2070.58 1445.23C2069.03 1445.43 2029.52 1450.31 2013.77 1422.12C1997.72 1393.38 1980.34 1347.74 1956.48 1362.95C1946.19 1369.55 1946.65 1385.86 1950.48 1402.28Z" fill="#F2CCAA"/>
<path d="M1630.82 2231.66C1630.82 2231.66 1606.45 2253.9 1611.2 2269.73C1615.96 2285.55 1637.95 2296.07 1640.93 2315.38C1643.9 2334.68 1655.79 2345.29 1666.49 2345.29H1717.5C1717.5 2345.29 1725.38 2331.69 1706.35 2327.61C1687.33 2323.53 1680.17 2300.82 1681.35 2279.75C1682.53 2258.67 1679.57 2230.59 1679.57 2230.59L1639.15 2221.22L1630.82 2231.66Z" fill="#233862"/>
<path d="M1837.11 2241.11C1837.11 2241.11 1828.34 2335.32 1839.04 2340.6L1975.99 2340.31C1975.99 2340.31 1975.99 2324.5 1954 2320.99C1932.02 2317.49 1893.36 2304.68 1886.82 2275.93C1880.28 2247.17 1837.11 2241.11 1837.11 2241.11Z" fill="#233862"/>
<path d="M1739.53 1565.15C1767.72 1501.96 1784.96 1483.83 1781.68 1464.21C1779.22 1449.62 1789.13 1192.04 1789.13 1192.04C1792.48 1191 1799.18 1190.08 1802.85 1189.32C1808.54 1188.1 1813.83 1185.46 1818.22 1181.64C1822.61 1177.82 1825.96 1172.95 1827.95 1167.48C1832.75 1154.05 1836.57 1134.22 1836.47 1109.37L1840.09 1110.09L1900.79 1122.1C1900.79 1122.1 1899.43 1141.14 1899.43 1159.19V1159.65C1899.38 1167.25 1901.82 1174.66 1906.36 1180.75C1910.91 1186.84 1917.32 1191.28 1924.62 1193.4C1932.29 1195.61 1938.95 1197.47 1938.95 1197.47C1938.95 1197.47 1961.25 1261.1 1965.51 1326.46C1969.76 1391.83 1924.98 1420.27 1965.85 1550.78C2007.48 1684.19 1723.96 1600.13 1739.53 1565.15Z" fill="#FFB27D"/>
<path d="M1900.81 1122.05C1900.81 1122.05 1899.45 1141.08 1899.45 1159.14C1865.46 1158.17 1847.54 1127.2 1840.19 1110.03L1900.81 1122.05Z" fill="#E8945B"/>
<path d="M1912.11 1139.08C1912.11 1139.08 1831.76 1140.44 1831.7 1090.36C1831.65 1040.28 1821.23 1006.76 1872.49 1003.8C1923.75 1000.84 1933.8 1019.92 1937.88 1036.63C1941.96 1053.34 1933.01 1137.44 1912.11 1139.08Z" fill="#FFB27D"/>
<path d="M1909.14 1002.58C1909.14 1002.58 1887.14 1061.29 1853.39 1069.98C1819.64 1078.67 1804.98 1069.61 1804.98 1069.61C1804.98 1069.61 1830.82 1049.04 1836.26 1013.13C1836.23 1013.13 1892.55 974.626 1909.14 1002.58Z" fill="#163560"/>
<path d="M1903.68 1007.39C1903.68 1007.39 1920 1013.48 1926.72 1025.38C1934.83 1039.27 1938.61 1055.27 1937.59 1071.33C1937.59 1071.33 1954.17 1031.43 1935.54 1008.79C1915.77 984.863 1903.68 1007.39 1903.68 1007.39Z" fill="#163560"/>
<path d="M1894.63 1107.99C1896.69 1110.33 1899.27 1112.16 1902.15 1113.34C1905.04 1114.52 1908.16 1115.02 1911.27 1114.79C1913.87 1114.64 1916.38 1113.81 1918.56 1112.38C1920.73 1110.95 1922.48 1108.96 1923.64 1106.63C1923.64 1106.63 1907.23 1102.68 1894.63 1107.99Z" fill="#EBF3FA"/>
<path d="M1750.48 1305.98C1750.48 1305.98 1750.77 1344.04 1752.81 1378.61C1754.17 1401.5 1756.28 1422.8 1759.61 1430.38C1767.85 1449.42 1777.14 1452.49 1777.14 1452.49L1849.04 1470.16L1874.33 1476.35L1954.04 1452.54C1954.04 1452.54 1990.36 1351.21 1975.8 1294.16C1961.24 1237.12 1938.88 1197.43 1938.88 1197.43C1938.88 1197.43 1873.82 1261.13 1789.12 1192L1750.48 1305.98Z" fill="#F9DDBF"/>
<path d="M1752.81 1378.62C1754.17 1401.5 1756.28 1422.8 1759.61 1430.38C1767.85 1449.42 1777.14 1452.49 1777.14 1452.49L1849.04 1470.16L1880.31 1460.99C1880.31 1460.99 1768.82 1413.4 1780.39 1323.68L1752.81 1378.62Z" fill="#F2CCAA"/>
<path d="M1948.93 1467.88C1948.93 1467.88 1988.36 1590.75 1990.96 1632.58C1993.56 1674.41 1915.48 2226.9 1912.34 2246.18C1909.39 2264.34 1886.82 2275.92 1886.82 2275.92C1886.82 2275.92 1876.45 2282.04 1861.63 2277.87C1841.08 2272.06 1834.58 2265.12 1834.58 2265.12C1834.58 2265.12 1803.86 1871.09 1822.86 1730.34C1834.44 1643.31 1840.87 1555.67 1842.12 1467.88H1948.93Z" fill="#ED7D2B"/>
<path d="M1781.67 1464.18C1781.67 1464.18 1721.43 1544.98 1715.82 1599.6C1710.2 1654.23 1707.02 1846.07 1695.06 1899.32C1683.09 1952.57 1639.15 2055.02 1639.15 2221.1C1639.15 2221.1 1643.71 2230.61 1657.81 2235.68C1663.2 2237.5 1668.68 2239.02 1674.24 2240.22C1679.89 2241.51 1685.82 2240.86 1691.05 2238.38C1696.29 2235.89 1700.54 2231.71 1703.12 2226.52C1732.83 2166.7 1827.47 1973.79 1832.29 1933.74C1835.71 1905.39 1865.6 1717.84 1930.78 1607.77C1946.43 1581.36 1921.18 1476.27 1921.18 1476.27L1781.67 1464.18Z" fill="#F99746"/>
<path d="M1896.41 1109.35C1896.41 1109.35 1897.77 1115.25 1912.48 1114.34C1912.48 1114.34 1924.8 1113.58 1924.42 1107.1C1924.42 1107.11 1912.48 1102.55 1896.41 1109.35Z" fill="white"/>
<path d="M1955.2 1448.9C1955.2 1448.9 1939.36 1461.45 1907.87 1462.07C1870.26 1462.84 1777.06 1452.56 1777.06 1452.56C1774.5 1460.23 1773.16 1468.25 1773.09 1476.34C1773.09 1476.34 1886.92 1505.05 1952.86 1480.54C1952.9 1480.5 1961.41 1464.47 1955.2 1448.9Z" fill="#233862"/>
<path d="M1899.77 1475.06C1899.77 1464.36 1907.46 1455.64 1916.93 1455.64C1926.39 1455.64 1934.1 1464.36 1934.1 1475.06C1934.1 1485.76 1926.39 1494.48 1916.93 1494.48C1907.46 1494.48 1899.77 1485.77 1899.77 1475.06ZM1905.46 1475.06C1905.46 1482.63 1910.6 1488.8 1916.93 1488.8C1923.25 1488.8 1928.4 1482.63 1928.4 1475.06C1928.4 1467.48 1923.26 1461.33 1916.93 1461.33C1910.59 1461.33 1905.46 1467.48 1905.46 1475.06Z" fill="white"/>
<path d="M1789.16 1554.04C1789.16 1554.04 1795.41 1568.62 1803.33 1570.77C1811.24 1572.91 1817.22 1580.15 1820.09 1582.27C1822.96 1584.39 1828.11 1584.99 1826.68 1587.27C1825.26 1589.56 1810.98 1585.46 1809.01 1584.74C1807.04 1584.02 1820.46 1598.19 1824.84 1602.58C1829.21 1606.97 1839.03 1613.26 1836.64 1616.17C1834.24 1619.08 1806.44 1615.85 1794.95 1608.3C1783.46 1600.76 1773.09 1570.41 1773.09 1570.41L1789.16 1554.04Z" fill="#FFB27D"/>
<path d="M1789.12 1192.04C1789.12 1192.04 1742.49 1198.83 1724.49 1231.92C1706.49 1265.02 1663.61 1416.82 1672.83 1443.29C1682.04 1469.76 1773.11 1581.96 1773.11 1581.96C1773.11 1581.96 1798.01 1575.58 1798.01 1562.92C1798.01 1562.92 1742.93 1433.69 1743.85 1423.59C1744.78 1413.49 1795.52 1335.99 1793.67 1300.95C1791.82 1265.9 1789.12 1192.04 1789.12 1192.04Z" fill="#F9DDBF"/>
<path d="M2139.19 2112.89C2138.28 2121.16 2139.07 2133.75 2140.93 2148.55C2148.26 2207.24 2172.2 2300.95 2172.2 2300.95L2202.12 2304.58C2199.93 2288.01 2206.19 2224.55 2214.43 2154.24C2226.93 2048.2 2244.1 1926.4 2244.1 1926.4C2244.1 1926.4 2178.84 1872.51 2140.46 1887.39C2102.07 1902.28 2143.7 2071.77 2139.19 2112.89Z" fill="#ED975D"/>
<path d="M2140.93 2148.55C2148.26 2207.24 2172.2 2300.95 2172.2 2300.95L2202.12 2304.58C2199.93 2288.01 2206.2 2224.55 2214.43 2154.24C2203.78 2156.11 2174.85 2159.82 2150.65 2150.72C2147.55 2149.47 2144.27 2148.74 2140.93 2148.55Z" fill="#DFEBFD"/>
<path d="M2168.37 1490.86C2173.68 1488.64 2179.37 1487.51 2185.13 1487.51C2190.88 1487.51 2196.57 1488.64 2201.89 1490.86C2219.56 1498.44 2232.5 1530.7 2224.56 1560.84C2216.62 1590.98 2243.42 1591.49 2231.02 1615.66C2226.62 1624.24 2168.37 1631.52 2166.38 1598.15C2165.15 1577.46 2183.87 1576.4 2178.42 1553.96C2172.97 1531.53 2168.37 1490.86 2168.37 1490.86Z" fill="#2C3A64"/>
<path d="M2084.72 2106.48C2082.97 2116.61 2083.44 2133.67 2085.14 2153.41C2090.24 2213.23 2106.49 2298.72 2106.49 2298.72L2136.12 2305.52C2134.99 2289.21 2144.67 2227.6 2156.88 2158.7C2175.92 2051.57 2200.95 1926.72 2200.95 1926.72C2200.95 1926.72 2139.18 1868.9 2099.9 1881.41C2060.62 1893.92 2091.75 2065.72 2084.72 2106.48Z" fill="#FFB27D"/>
<path d="M2201.76 2298.68C2201.76 2298.68 2208.89 2311.75 2222.44 2314.78C2230.56 2316.38 2237.81 2320.89 2242.84 2327.45C2243.71 2328.64 2244.23 2330.05 2244.34 2331.52C2244.46 2332.98 2244.16 2334.46 2243.49 2335.77C2242.82 2337.08 2241.8 2338.18 2240.54 2338.94C2239.28 2339.71 2237.84 2340.11 2236.37 2340.11L2167.46 2339.71C2166.07 2339.71 2164.7 2339.41 2163.44 2338.84C2162.18 2338.27 2161.05 2337.44 2160.12 2336.41C2159.2 2335.38 2158.5 2334.16 2158.08 2332.84C2157.65 2331.53 2157.51 2330.13 2157.66 2328.76C2158.2 2323.66 2158.77 2317.72 2159.01 2313.15C2159.57 2303.21 2170.35 2294.26 2170.35 2294.26C2170.35 2294.26 2179.87 2299.7 2183.46 2300.33C2191.37 2301.73 2201.76 2298.68 2201.76 2298.68Z" fill="#212D4C"/>
<path d="M2214.9 1634.79C2214.9 1634.79 2259.93 1710.7 2269.01 1772.6C2269.01 1772.6 2247.11 1802.15 2238.2 1781.41C2229.3 1760.66 2165.35 1649.58 2214.9 1634.79Z" fill="#FFB27D"/>
<path d="M2206.32 1500.02C2205.84 1499.22 2185.69 1467.39 2148.01 1461C2117.5 1455.85 2088.94 1477.41 2084.25 1508C2079.56 1538.59 2084.34 1578.56 2134.49 1592.9L2206.32 1500.02Z" fill="#2C3A64"/>
<path d="M2197.11 1636.97L2140.36 1670.68L2126.02 1630.73C2126.02 1630.73 2132.6 1616.19 2134.51 1592.9C2135.42 1581.71 2135.12 1570.46 2133.6 1559.33L2182.94 1580.76C2182.32 1584.42 2181.91 1588.12 2181.73 1591.83C2181.17 1600.41 2182 1609.03 2184.2 1617.34C2186.41 1624.98 2190.34 1632.15 2197.11 1636.97Z" fill="#FFB27D"/>
<path d="M2184.17 1617.34C2156.98 1618.34 2134.49 1592.87 2134.49 1592.87L2181.72 1591.8C2181.15 1600.39 2181.98 1609.02 2184.17 1617.34Z" fill="#ED975D"/>
<path d="M2196.39 1601.35C2196.39 1601.35 2143.09 1619.12 2121.61 1577.21C2098.5 1531.98 2118.46 1496.67 2136.72 1493.22C2173.13 1486.33 2195.35 1498.96 2202.74 1513.34C2210.14 1527.72 2225.77 1591.82 2196.39 1601.35Z" fill="#FFB27D"/>
<path d="M2173.36 1578.46C2173.36 1578.46 2175.98 1583.9 2190.08 1579.82C2190.08 1579.82 2201.93 1576.42 2200.16 1570.18C2200.16 1570.22 2187.53 1568.31 2173.36 1578.46Z" fill="white"/>
<path d="M2061.25 2069.38C2076.67 2084.09 2190.42 2114.53 2254.56 2092.65C2266.05 2088.72 2247.66 1734.25 2236.69 1665.77C2235.24 1656.63 2230.88 1648.21 2224.27 1641.74C2217.66 1635.27 2209.15 1631.1 2199.98 1629.84C2196.8 1629.4 2193.35 1628.98 2189.62 1628.61C2190.42 1637.04 2187.54 1644.93 2172.87 1647.82C2153.34 1651.64 2134.88 1639.33 2125.39 1630.76C2110.11 1633.94 2101.22 1635.11 2089.07 1640.18C2082.6 1642.89 2077.2 1647.66 2073.71 1653.75C2070.22 1659.84 2068.83 1666.91 2069.77 1673.87L2073.44 1700.9L2085.12 1787.02C2086.6 1797.85 2086.52 1808.84 2084.87 1819.65C2079.9 1852.39 2071.98 1932.12 2066.69 1992.77C2062.93 2035.4 2060.49 2068.63 2061.25 2069.38Z" fill="#F99746"/>
<path d="M2159.04 1498.17C2159.04 1498.17 2164.1 1548.16 2116.66 1565.87C2097.8 1572.93 2087.99 1496.54 2127.39 1481.31C2166.79 1466.08 2205.68 1484.18 2210.33 1510.83C2214.98 1537.47 2211.44 1543.05 2211.44 1543.05C2211.44 1543.05 2192.98 1492.36 2159.04 1498.17Z" fill="#2C3A64"/>
<path d="M2130.24 1661.74C2130.24 1661.74 2152 1747.77 2152.84 1781.99C2152.84 1781.99 2200.59 1865.37 2203.39 1871.3C2206.2 1877.22 2186.15 1885.33 2186.15 1885.33C2186.15 1885.33 2126.33 1821.43 2114.72 1794.62C2103.11 1767.81 2062.22 1680.5 2078.6 1654.46C2094.99 1628.41 2130.24 1661.74 2130.24 1661.74Z" fill="#FFB27D"/>
<path d="M2269.01 1772.6C2269.01 1772.6 2273.29 1831.21 2231.58 1877.37C2231.58 1877.37 2220.19 1863.67 2221.63 1859.42C2223.07 1855.16 2239.38 1789.85 2251.31 1780.56C2263.23 1771.28 2269.01 1772.6 2269.01 1772.6Z" fill="#FFB27D"/>
<path d="M2203.39 1871.3C2203.39 1871.3 2230.1 1871.11 2231.58 1877.37C2233.06 1883.64 2224.78 1903.3 2205.19 1896.41C2185.6 1889.51 2186.15 1885.29 2186.15 1885.29L2203.39 1871.3Z" fill="#FFB27D"/>
<path d="M2221.7 1859.42C2221.7 1859.42 2200.25 1869.33 2207.54 1879.89C2214.83 1890.45 2229.39 1884.13 2231.65 1877.37C2233.91 1870.62 2221.7 1859.42 2221.7 1859.42Z" fill="#FFB27D"/>
<path d="M2145.95 1707.14C2145.95 1707.14 2117.95 1733.17 2074.78 1729.13C2074.78 1729.13 2053.52 1653.75 2087.63 1644.51C2121.75 1635.26 2149.93 1679.92 2145.95 1707.14Z" fill="#F99746"/>
<path d="M2229.61 1648.07L2254.29 1690.21C2254.29 1690.21 2251.11 1709.79 2232.64 1711.73C2214.18 1713.68 2229.61 1648.07 2229.61 1648.07Z" fill="#F99746"/>
<path d="M2100.17 1491.28C2094.93 1488.8 2089.21 1487.51 2083.42 1487.51C2077.62 1487.51 2071.9 1488.8 2066.67 1491.28C2048.99 1499.81 2036.03 1536.14 2043.97 1570.13C2051.91 1604.12 2025.11 1604.63 2037.51 1631.85C2041.92 1641.5 2100.17 1649.71 2102.17 1612.12C2103.39 1588.83 2084.67 1587.65 2090.13 1562.38C2095.6 1537.11 2100.17 1491.28 2100.17 1491.28Z" fill="#2C3A64"/>
<path d="M2085.14 2153.45C2090.24 2213.27 2106.49 2298.77 2106.49 2298.77L2136.12 2305.56C2134.99 2289.25 2144.67 2227.64 2156.88 2158.74C2141.07 2160.44 2111.96 2161.7 2085.14 2153.45Z" fill="white"/>
<path d="M2136.96 2298.68C2136.96 2298.68 2144.09 2311.75 2157.64 2314.78C2165.76 2316.38 2173.01 2320.89 2178.04 2327.45C2178.9 2328.64 2179.42 2330.05 2179.54 2331.52C2179.65 2332.98 2179.36 2334.46 2178.69 2335.77C2178.02 2337.08 2177 2338.18 2175.74 2338.94C2174.48 2339.71 2173.04 2340.11 2171.56 2340.11L2102.64 2339.71C2101.26 2339.7 2099.89 2339.4 2098.63 2338.83C2097.37 2338.26 2096.24 2337.44 2095.32 2336.4C2094.4 2335.37 2093.7 2334.16 2093.28 2332.84C2092.85 2331.52 2092.71 2330.13 2092.85 2328.76C2093.4 2323.66 2093.97 2317.72 2094.21 2313.15C2094.77 2303.21 2105.55 2294.26 2105.55 2294.26C2105.55 2294.26 2115.07 2299.7 2118.66 2300.33C2126.52 2301.73 2136.96 2298.68 2136.96 2298.68Z" fill="#2C3A64"/>
<path d="M1517.39 1097.7C1517.39 1097.7 1632.96 1299.59 1609.75 1369.21C1586.54 1438.83 1509.05 1443.29 1509.05 1443.29L1517.39 1097.7Z" fill="#F9DDBF"/>
<path d="M1577.21 2340.11H1415.93C1404.37 2332.26 1419.04 2255.66 1419.04 2255.66C1419.04 2255.66 1463.07 2238.95 1470.71 2272.92C1478.35 2306.89 1526.78 2317.65 1552.41 2321.79C1569.94 2324.64 1575.49 2334.26 1577.21 2340.11Z" fill="#233862"/>
<path d="M1338.01 2340.11H1176.7C1165.14 2332.26 1179.82 2255.66 1179.82 2255.66C1179.82 2255.66 1223.85 2238.95 1231.49 2272.92C1239.13 2306.89 1287.56 2317.65 1313.21 2321.79C1330.71 2324.64 1336.25 2334.26 1338.01 2340.11Z" fill="#233862"/>
<path d="M1533.84 1558.49C1533.84 1558.49 1526.59 1648.94 1518.07 1757.66C1506.48 1905.34 1475.24 2271.55 1475.24 2271.55C1475.24 2271.55 1454.76 2289.02 1409.4 2279.46C1409.4 2279.46 1370.79 2153.13 1359.25 2008.92C1359.07 2006.55 1358.88 2004.17 1358.7 2001.8C1347.96 1854.97 1331.26 1545.94 1331.26 1545.94L1533.84 1558.49Z" fill="#2B478B"/>
<path d="M1536.31 1527.24C1536.31 1527.24 1526.59 1648.94 1518.07 1757.66L1359.25 2008.93C1359.07 2006.57 1358.88 2004.19 1358.7 2001.81C1347.96 1854.98 1331.26 1545.96 1331.26 1545.96L1536.31 1527.24Z" fill="#233862"/>
<path d="M1490.02 1527.23C1490.02 1527.23 1374.83 1813.93 1338.01 1922.6C1311.78 2000.01 1237.8 2271.57 1237.8 2271.57C1237.8 2271.57 1205.63 2281.36 1178.6 2262.44C1178.6 2262.44 1151.08 1985.01 1206.66 1906.77C1236.17 1865.26 1213.99 1475.32 1333.59 1471.98C1453.18 1468.65 1490.02 1527.23 1490.02 1527.23Z" fill="#2B478B"/>
<path d="M1438.53 1104.61C1423.32 1112.7 1405.71 1115.07 1388.9 1111.28C1376.95 1108.59 1365.58 1103.79 1355.32 1097.12C1350.5 1094.11 1345.95 1090.7 1341.72 1086.91C1341.72 1086.91 1342.32 1086.05 1343.31 1084.35C1348.5 1075.47 1364.26 1043.57 1357.25 992.204C1357.16 991.524 1362.24 992.489 1369.92 994.297C1392.79 999.735 1438.73 1012.75 1440.77 1013.33C1440.77 1013.33 1441.34 1024.12 1443.23 1043.48C1443.38 1045.18 1443.56 1046.96 1443.75 1048.81C1443.98 1051.08 1444.21 1053.49 1444.5 1055.96C1446.69 1076.04 1438.53 1104.61 1438.53 1104.61Z" fill="#FFB27D"/>
<path d="M1443.34 1043.44C1409.21 1051.26 1358.29 1000.89 1358.29 1000.89C1361.89 998.207 1365.81 995.983 1369.96 994.271C1392.83 999.709 1438.77 1012.72 1440.81 1013.3C1440.81 1013.3 1441.45 1024.08 1443.34 1043.44Z" fill="#ED975D"/>
<path d="M1551.86 1478.95C1549.37 1511.82 1542.42 1535.34 1527.19 1535.34C1527.19 1535.34 1459.52 1559.17 1378.65 1559.81C1362.83 1559.92 1340.44 1556.85 1321.88 1553.73C1302.85 1550.52 1287.89 1547.29 1287.89 1547.29C1271.57 1543.54 1253.68 1533.49 1256.09 1514.95C1257.37 1505.08 1258.29 1492.41 1258.92 1477.72C1258.92 1476.78 1259 1475.85 1259.04 1474.88C1260.83 1431.93 1260.55 1372.76 1260.75 1316.11C1260.91 1281.32 1261.25 1247.49 1262.42 1218.97C1262.42 1218.97 1246.46 1106.89 1264.18 1088.46C1284.95 1066.95 1345.93 1060.34 1349.75 1061.17C1350.9 1060.93 1352.05 1060.64 1353.22 1060.45C1353.22 1060.45 1405.15 1089.71 1443.75 1068.05C1443.75 1068.05 1444.1 1068.12 1444.84 1068.21C1454.23 1069.71 1501.13 1080.54 1517.32 1097.66C1522.92 1103.56 1545.22 1139.81 1545.87 1179.46C1546.72 1234.86 1544.51 1297.74 1544.51 1297.74C1545.1 1306.74 1546.08 1318.33 1547.12 1331.58C1548.25 1345.69 1549.5 1361.62 1550.56 1378.25C1551.09 1386.61 1551.58 1395.16 1551.92 1403.71C1553.16 1430.19 1553.53 1456.7 1551.86 1478.95Z" fill="#F9DDBF"/>
<path d="M1350.01 1061.27C1350.01 1061.27 1407.49 1120.54 1448.58 1108.4C1448.58 1108.4 1454.01 1100.39 1435.54 1097.82C1417.06 1095.25 1397.06 1096.31 1350.01 1061.27Z" fill="#F2CCAA"/>
<path d="M1454.92 1010.57C1444.55 1014.05 1433.86 1016.54 1423.01 1018.01C1396.85 1021.54 1362.45 1019.46 1351.66 987.813C1333.45 934.548 1310.2 902.613 1363.76 880.861C1392.43 869.21 1410.78 868.626 1423.23 873.044C1434.11 876.878 1440.44 884.532 1445.27 892.077C1455.67 908.418 1476.6 1001.24 1454.92 1010.57Z" fill="#FFB27D"/>
<path d="M1449.32 859.952C1461.42 862.888 1466.88 881.935 1455.36 889.861C1434.71 904.068 1409.47 898.494 1400.19 902.627C1386.86 908.54 1384.47 930.891 1384.24 937.974C1384 945.057 1383.05 951.066 1364.97 946.824C1362.01 946.131 1359.87 946.335 1358.4 947.218C1350.9 951.664 1360.48 973.239 1363.38 977.916C1363.38 977.916 1367.54 993.373 1358.31 1000.89C1357.18 1001.79 1339.04 1009.73 1295.31 942.813C1288.43 932.305 1281.88 908.649 1292.49 885.864C1303.09 863.079 1335.89 834.869 1375.24 834.869C1406.36 834.869 1423.73 853.766 1449.32 859.952Z" fill="#163560"/>
<path d="M1455.33 976.121C1455.33 976.121 1456.46 983.014 1440.38 988.52C1440.38 988.52 1426.92 993.142 1424.46 986.073C1424.51 986.127 1435.2 975.945 1455.33 976.121Z" fill="white"/>
<path d="M1397.32 1439.71C1397.32 1439.71 1440.55 1468.26 1457.24 1470.05C1468.59 1471.29 1513.43 1469.46 1513.69 1463.79C1514.03 1455.79 1486.29 1447.34 1479.1 1444.12C1471.91 1440.89 1466.29 1437.2 1466.35 1434.1C1466.4 1431 1494.14 1441.26 1491.15 1434.49C1488.16 1427.72 1462.59 1415.95 1456.33 1414.82C1450.06 1413.69 1430.17 1420.46 1422.4 1416.87C1414.64 1413.28 1397.32 1439.71 1397.32 1439.71Z" fill="#ED975D"/>
<path d="M1416.3 1414.7C1422.05 1425.49 1397.26 1439.72 1397.26 1439.72C1397.26 1439.72 1328.92 1472.2 1258.86 1477.79C1258.86 1476.85 1258.94 1475.91 1258.98 1474.95C1260.78 1432 1260.49 1372.82 1260.7 1316.17C1260.75 1316.1 1406.81 1396.91 1416.3 1414.7Z" fill="#F2CCAA"/>
<path d="M1279.16 1078.08C1279.16 1078.08 1249.56 1090.59 1214.36 1156.34C1179.16 1222.08 1145.89 1361.31 1160.15 1383.97C1174.41 1406.63 1294.57 1458.44 1399.3 1444.62C1399.3 1444.62 1425.28 1420.96 1420.05 1411.84C1420.05 1411.84 1244.43 1340.26 1244.33 1331.63C1244.22 1323 1306.98 1249.38 1310.54 1212.67C1314.1 1175.97 1279.16 1078.08 1279.16 1078.08Z" fill="#F9DDBF"/>
<path d="M1452.93 1244.4C1452.93 1244.4 1450.83 1266.92 1452.93 1272.76C1455.02 1278.61 1514.82 1279.91 1516.33 1274.42C1517.84 1268.93 1520.08 1252.32 1516.33 1249.41C1512.57 1246.5 1452.93 1244.4 1452.93 1244.4Z" fill="#FFB27D"/>
<path d="M1492.4 1453.54H1478.95C1462.91 1453.49 1447.54 1447.09 1436.2 1435.75C1424.86 1424.41 1418.47 1409.05 1418.42 1393.01V1335.03C1418.42 1301.73 1419.14 1272.17 1454.94 1261.17L1517.86 1265.91C1572.25 1280.87 1552.93 1301.73 1552.93 1335.03V1393.02C1552.88 1409.06 1546.48 1424.42 1535.14 1435.76C1523.8 1447.1 1508.43 1453.49 1492.4 1453.54Z" fill="#FFB27D"/>
<path d="M1516.4 1265.08C1516.4 1265.08 1531.23 1268.89 1541.82 1263.04C1557.12 1254.6 1575.4 1249.88 1578.53 1246.02C1583.97 1239.5 1610.33 1212.62 1610.33 1212.62L1623.02 1221.08C1623.02 1221.08 1610.78 1270.74 1600.91 1279.6C1591.04 1288.47 1573.31 1319.95 1543.47 1324.47C1528.02 1326.72 1516.4 1265.08 1516.4 1265.08Z" fill="#FFB27D"/>
<path d="M1610.4 1212.67C1610.4 1212.67 1605.78 1200.18 1609.6 1198.55C1613.42 1196.92 1615.65 1206 1615.65 1206C1615.65 1206 1625.6 1185.35 1635.73 1194.27C1645.86 1203.18 1623.09 1221.13 1623.09 1221.13L1610.4 1212.67Z" fill="#FFB27D"/>
<path d="M1452.65 1261.83C1452.65 1261.83 1437.82 1265.64 1427.21 1259.78C1411.93 1251.35 1393.64 1246.62 1390.5 1242.77C1385.07 1236.23 1358.69 1209.36 1358.69 1209.36L1346.02 1217.83C1346.02 1217.83 1358.25 1267.48 1368.11 1276.28C1377.97 1285.09 1395.71 1316.63 1425.57 1321.15C1441.02 1323.47 1452.65 1261.83 1452.65 1261.83Z" fill="#FFB27D"/>
<path d="M1358.63 1209.36C1358.63 1209.36 1363.27 1196.88 1359.45 1195.23C1355.63 1193.59 1353.4 1202.69 1353.4 1202.69C1353.4 1202.69 1343.43 1182.03 1333.32 1190.95C1323.2 1199.87 1345.96 1217.83 1345.96 1217.83L1358.63 1209.36Z" fill="#FFB27D"/>
<path d="M1542.32 1369.21C1542.32 1369.21 1577.53 1384.65 1596.1 1390.12C1613.42 1395.2 1634.84 1407.35 1635.28 1409.33C1635.73 1411.3 1635.95 1428.48 1627.13 1431.84C1618.3 1435.2 1523.07 1448.83 1508.93 1443.29C1508.99 1443.29 1519.14 1374.98 1542.32 1369.21Z" fill="#FFB27D"/>
<path d="M1633.97 1373.54C1633.97 1373.54 1617.17 1374.73 1607.3 1387.06C1605.97 1388.65 1604.18 1389.8 1602.18 1390.34C1600.18 1390.89 1598.06 1390.81 1596.1 1390.12C1596.1 1390.12 1569.68 1406.97 1586.51 1438.84C1586.51 1438.84 1622.11 1436.61 1627.18 1431.84C1632.25 1427.07 1633.97 1373.54 1633.97 1373.54Z" fill="white"/>
<path d="M1627.18 1431.84C1627.18 1431.84 1644.97 1427.64 1648.16 1409.84C1651.36 1392.05 1648.07 1375.22 1636.35 1373.73C1624.62 1372.25 1617.31 1378.59 1614.03 1387.07C1610.76 1395.55 1601.4 1432.7 1627.18 1431.84Z" fill="#AFCDFB"/>
<path d="M1490.47 1124.31C1490.47 1124.31 1525.97 1122.72 1539.5 1156.46C1553.02 1190.2 1555.69 1248.24 1524.31 1257.39C1502.89 1263.63 1479.85 1259.22 1459.18 1251.31C1448.3 1247.12 1444.55 1237.93 1438.32 1230.66C1398.28 1183.92 1411.21 1128.45 1490.47 1124.31Z" fill="#FFB27D"/>
<path d="M1418.42 1360.86C1418.42 1360.86 1488.2 1375.81 1552.85 1360.86C1552.85 1360.86 1560.24 1373.46 1561.2 1377.17C1563.22 1385.17 1559.56 1398.27 1545.19 1414.97C1524.04 1439.52 1451.78 1457.85 1426.43 1442.16C1404.22 1428.39 1399.22 1381.52 1418.42 1360.86Z" fill="white"/>
<path d="M1496.52 1390.54C1509.49 1395.05 1528.28 1405.49 1545.19 1415.01C1560.95 1423.8 1579.18 1440.39 1579.18 1442.42C1579.18 1444.44 1575.6 1461.24 1566.29 1462.59C1556.99 1463.94 1461.06 1456.13 1448.49 1447.64C1444.06 1446.11 1440.16 1443.35 1437.25 1439.67C1434.34 1435.99 1432.55 1431.56 1432.1 1426.89C1429.34 1402.72 1441.25 1371.27 1496.52 1390.54Z" fill="#FFB27D"/>
<path d="M1585.78 1407.2C1585.78 1407.2 1569.15 1404.65 1556.79 1414.48C1555.14 1415.74 1553.14 1416.46 1551.07 1416.55C1549 1416.64 1546.95 1416.09 1545.19 1414.98C1545.19 1414.98 1515.69 1425.58 1525.06 1460.37C1525.06 1460.37 1560.27 1466.08 1566.27 1462.56C1572.26 1459.04 1585.78 1407.2 1585.78 1407.2Z" fill="white"/>
<path d="M1566.34 1462.56C1566.34 1462.56 1584.6 1462.39 1591.67 1445.75C1598.74 1429.11 1599.23 1411.95 1588.13 1407.93C1577.04 1403.9 1568.43 1408.43 1563.41 1415.99C1558.4 1423.55 1540.94 1457.68 1566.34 1462.56Z" fill="#AFCDFB"/>
<path d="M1504.66 1225.89C1504.66 1225.89 1511.83 1234.33 1521.24 1231.26C1530.64 1228.19 1532.11 1217.96 1532.11 1217.96C1522.46 1218.38 1513.05 1221.1 1504.66 1225.89Z" fill="white"/>
<path d="M1459.6 1204.37C1459.6 1204.37 1445.83 1192.29 1441.45 1201.05C1437.07 1209.81 1447.08 1222.64 1455.21 1222.8C1463.34 1222.97 1465.01 1208.23 1459.6 1204.37Z" fill="#ED975D"/>
<path d="M1461.64 1203.89C1461.64 1203.89 1451.13 1194.67 1447.79 1201.36C1444.44 1208.05 1452.08 1217.84 1458.3 1217.96C1464.51 1218.08 1465.72 1206.84 1461.64 1203.89Z" fill="#FFB27D"/>
<path d="M1449.25 1141.98C1449.25 1141.98 1466.31 1165.09 1502.12 1164.29C1502.12 1164.29 1516.19 1162.26 1522.16 1153.16C1522.16 1153.16 1510.86 1157.68 1504.89 1155.77C1504.89 1155.77 1538.65 1150.61 1538.23 1141.59C1537.81 1132.56 1520.08 1122.44 1507.15 1120.89C1496.86 1119.66 1465.73 1119.86 1456.33 1124.97C1446.92 1130.08 1446.69 1138.98 1449.25 1141.98Z" fill="#FF9843"/>
<path d="M1464.46 1122.44C1464.46 1122.44 1425.37 1128.79 1418.42 1159.94C1415.62 1172.47 1421.53 1190.75 1421.53 1190.75C1421.53 1190.75 1420.74 1153.67 1451.99 1152.12C1474.74 1150.98 1489.62 1148.68 1489.62 1148.68L1464.46 1122.44Z" fill="#FF9843"/>
<path d="M1470.07 1309.2C1470.07 1309.66 1469.93 1310.12 1469.67 1310.51C1469.42 1310.89 1469.05 1311.2 1468.62 1311.37C1468.19 1311.55 1467.71 1311.6 1467.26 1311.5C1466.8 1311.41 1466.38 1311.19 1466.05 1310.86C1465.72 1310.53 1465.5 1310.11 1465.41 1309.65C1465.32 1309.19 1465.37 1308.72 1465.55 1308.29C1465.73 1307.86 1466.03 1307.49 1466.42 1307.24C1466.81 1306.98 1467.27 1306.84 1467.73 1306.85C1468.04 1306.85 1468.35 1306.91 1468.63 1307.03C1468.92 1307.14 1469.17 1307.32 1469.39 1307.54C1469.61 1307.75 1469.78 1308.01 1469.9 1308.3C1470.01 1308.58 1470.07 1308.89 1470.07 1309.2Z" fill="#ED975D"/>
<path d="M1528.84 1309.2C1528.84 1309.66 1528.7 1310.12 1528.44 1310.51C1528.18 1310.89 1527.81 1311.2 1527.38 1311.37C1526.95 1311.55 1526.48 1311.6 1526.02 1311.5C1525.56 1311.41 1525.14 1311.19 1524.82 1310.86C1524.49 1310.53 1524.26 1310.11 1524.18 1309.65C1524.09 1309.19 1524.13 1308.72 1524.31 1308.29C1524.49 1307.86 1524.8 1307.49 1525.19 1307.24C1525.58 1306.98 1526.03 1306.84 1526.5 1306.85C1526.81 1306.85 1527.11 1306.91 1527.4 1307.03C1527.68 1307.14 1527.94 1307.32 1528.16 1307.54C1528.37 1307.75 1528.55 1308.01 1528.66 1308.3C1528.78 1308.58 1528.84 1308.89 1528.84 1309.2Z" fill="#ED975D"/>
<path d="M1578.12 1353.56C1577.2 1350.11 1575.53 1346.9 1573.23 1344.17C1570.93 1341.44 1568.05 1339.25 1564.8 1337.76C1556.44 1333.89 1544.59 1328.71 1539.2 1327.73C1530.4 1326.12 1512.41 1315.49 1510.94 1321.04C1509.47 1326.59 1523.64 1332.91 1523.71 1338.96C1523.78 1345.01 1483.93 1359.84 1484.99 1366.15C1486.05 1372.46 1497.4 1386.54 1512.85 1382.73C1528.29 1378.93 1566.65 1370 1575.5 1367.51C1580.19 1366.18 1579.73 1359.65 1578.12 1353.56Z" fill="#ED975D"/>
</svg>
