<svg width="2996" height="2123" viewBox="0 0 2996 2123" fill="none" xmlns="http://www.w3.org/2000/svg">
<g clip-path="url(#clip0_2_2)">
<rect width="2996" height="2123" fill="white"/>
<path d="M765.818 749.094C765.818 749.094 738.539 726.781 695.769 792.94C652.999 859.1 635.316 898.22 635.316 898.22C635.316 898.22 624.404 911.91 615.343 901.29C606.283 890.669 595.225 862.071 577.64 865.238C560.054 868.405 551.481 887.697 551.919 917.123C552.357 946.549 550.799 1011.15 550.652 1016.95C550.506 1022.74 546.414 1030.73 539.059 1024.5C531.703 1018.26 491.417 962.967 466.33 983.672C441.243 1004.38 455.857 1085.98 457.27 1095.19C458.682 1104.4 456.636 1107.71 452.398 1109.46C448.16 1111.22 436.225 1091.34 424.145 1076.09C412.064 1060.84 395.307 1045.25 381.862 1058.41C368.417 1071.56 358.431 1130.8 405.293 1233.55L430.136 1279.73L482.698 1282.17C595.615 1280.56 644.912 1246.22 651.05 1228.58C657.188 1210.94 635.949 1202.37 616.951 1197.94C597.953 1193.5 575.009 1191.41 574.717 1186.68C574.424 1181.96 576.714 1178.59 585.434 1176.01C594.153 1173.43 674.384 1151.65 682.324 1120.13C690.264 1088.61 623.089 1075.85 614.126 1071.9C605.162 1067.96 610.862 1060.74 615.977 1058.16C621.092 1055.58 678.865 1026.54 705.657 1014.32C732.45 1002.09 746.43 986.742 741.559 968.862C736.688 950.982 706.339 953.857 692.846 950.203C679.352 946.549 687.049 930.716 687.049 930.716C687.049 930.716 714.718 898.074 756.319 831.038C797.92 764.001 765.185 748.655 765.185 748.655" fill="#EBEBEB"/>
<path d="M420.832 1288.41C451.57 1239.3 507.639 1152.87 555.426 1078.48C603.214 1004.09 646.374 936.659 677.209 887.697L713.841 829.674L723.584 813.889L726.214 809.797C726.799 808.871 727.14 808.432 727.14 808.432L726.36 809.894C725.727 810.868 724.899 812.281 723.876 814.035L714.133 829.966C705.706 843.802 693.333 863.728 677.94 888.428C647.202 937.585 604.188 1005.06 556.401 1079.5C508.613 1153.94 452.398 1240.27 421.417 1288.99" fill="#E0E0E0"/>
<path d="M591.571 905.918C592.005 907.118 592.315 908.358 592.497 909.621C593.033 912.008 593.666 915.467 594.445 919.754C595.956 928.328 597.709 940.216 599.317 953.418C600.924 966.621 602.483 978.167 603.603 987.132C604.139 991.175 604.626 994.585 604.967 997.362C605.218 998.597 605.349 999.854 605.357 1001.11C604.841 999.952 604.497 998.721 604.334 997.46C603.847 995.073 603.214 991.614 602.483 987.326C601.07 978.703 599.414 966.767 597.612 953.613C595.809 940.459 594.251 928.913 593.081 919.9L591.62 909.718C591.439 908.459 591.422 907.181 591.571 905.918Z" fill="#E0E0E0"/>
<path d="M610.18 1002.53C610.18 1002.09 634.536 997.362 664.641 991.906C694.746 986.449 719.297 982.455 719.346 982.893C719.394 983.331 694.989 988.106 664.933 993.514C634.877 998.921 610.277 1002.97 610.18 1002.53Z" fill="#E0E0E0"/>
<path d="M531.654 1113.51C532.95 1113.37 534.256 1113.37 535.551 1113.51L545.976 1114.63C554.842 1115.55 567.02 1116.77 580.562 1117.65C594.104 1118.52 606.331 1118.91 615.197 1119.11H625.719C627.009 1119.02 628.305 1119.12 629.568 1119.4C628.297 1119.63 627.009 1119.74 625.719 1119.74C623.235 1119.74 619.63 1119.74 615.197 1119.74C606.283 1119.74 594.007 1119.74 580.416 1118.77C566.825 1117.79 554.647 1116.53 545.83 1115.31C541.446 1114.68 537.89 1114.14 535.454 1113.65C534.186 1113.72 532.914 1113.67 531.654 1113.51Z" fill="#E0E0E0"/>
<path d="M495.607 1029.81C496.275 1030.81 496.846 1031.87 497.312 1032.98L501.55 1041.74C505.008 1049.15 509.733 1059.48 514.848 1070.98C519.963 1082.47 524.591 1092.85 527.709 1100.21L531.411 1109.17C531.947 1110.25 532.34 1111.4 532.58 1112.58C531.866 1111.6 531.277 1110.54 530.826 1109.41L526.637 1100.65C523.178 1093.24 518.453 1082.91 513.338 1071.41C508.223 1059.92 503.596 1049.59 500.478 1042.18C499.017 1038.68 497.75 1035.65 496.776 1033.22C496.24 1032.14 495.847 1030.99 495.607 1029.81Z" fill="#E0E0E0"/>
<path d="M413.817 1119.01C414.673 1120.27 415.407 1121.61 416.009 1123.01L421.465 1134.26C425.947 1143.76 432.085 1156.92 438.807 1171.53C445.53 1186.15 451.424 1199.4 455.711 1209.04C457.708 1213.62 459.364 1217.47 460.582 1220.49C461.273 1221.86 461.828 1223.3 462.238 1224.78C461.382 1223.5 460.648 1222.15 460.046 1220.74L454.59 1209.53C450.109 1199.79 443.971 1186.83 437.248 1172.21C430.526 1157.6 424.583 1144.35 420.345 1134.7L415.474 1123.3C414.801 1121.92 414.247 1120.49 413.817 1119.01Z" fill="#E0E0E0"/>
<path d="M461.8 1221.91C463.421 1221.78 465.05 1221.78 466.671 1221.91L479.97 1222.83C491.223 1223.61 506.762 1224.58 523.812 1225.22C540.861 1225.85 556.547 1226.05 567.653 1226.1H581.001C582.621 1225.95 584.251 1225.95 585.872 1226.1C584.261 1226.36 582.633 1226.5 581.001 1226.53C577.883 1226.53 573.304 1226.87 567.653 1226.97C556.401 1226.97 540.812 1226.97 523.812 1226.58C506.811 1226.19 491.076 1224.73 479.97 1223.71L466.72 1222.25C465.073 1222.26 463.428 1222.15 461.8 1221.91Z" fill="#E0E0E0"/>
<path d="M336.705 934.905C336.946 942.936 336.49 950.972 335.341 958.923C332.371 981.64 324.937 1003.55 313.469 1023.38L312.981 1022.5H314.004L313.517 1023.38L177.121 1265.36L176.293 1266.87L175.318 1265.41L31.1276 1035.31L24.0155 1023.96L22.8951 1022.21H24.9897L24.0155 1023.96C13.091 1005.21 5.72536 984.594 2.28942 963.162C0.543895 952.718 -0.190185 942.129 0.097342 931.544L0.974179 915.905C1.75359 910.741 2.53298 905.626 3.26368 900.51C11.0026 861.271 31.7531 825.79 62.1578 799.809C76.3559 788.044 92.3614 778.65 109.556 771.991L115.84 769.653L118.957 768.483L122.172 767.607L134.886 764.294C143.281 762.68 151.777 761.655 160.315 761.224C168.547 760.783 176.801 760.93 185.012 761.663C189.055 762.004 193.001 762.881 196.947 763.417L202.792 764.391C204.692 764.781 206.592 765.365 208.492 765.853L219.647 768.873L230.218 772.917C231.972 773.599 233.725 774.184 235.43 774.914L240.301 777.399L250.044 782.271C272.294 795.189 291.421 812.854 306.064 834.01C316.965 849.98 325.191 867.62 330.421 886.236C332.316 893.016 333.748 899.918 334.707 906.892C335.621 911.962 336.174 917.09 336.364 922.239C336.364 926.331 336.364 929.498 336.705 931.739C337.046 933.98 336.705 934.954 336.705 934.954C336.705 934.954 336.705 933.834 336.705 931.739C336.705 929.644 336.412 926.38 336.169 922.287C335.877 917.154 335.259 912.045 334.318 906.99C333.264 900.064 331.767 893.213 329.836 886.479C324.539 868.04 316.316 850.571 305.48 834.74C290.779 813.803 271.654 796.356 249.46 783.635L239.717 778.763L234.846 776.376C233.189 775.596 231.436 775.06 229.682 774.378L219.209 770.383L208.151 767.46C206.3 766.973 204.449 766.389 202.549 765.999L196.752 765.073C192.855 764.537 188.958 763.709 184.963 763.368C176.863 762.674 168.724 762.56 160.607 763.027C152.167 763.458 143.767 764.483 135.471 766.096L122.903 769.409L119.737 770.286L116.668 771.407L110.481 773.745C93.4282 780.299 77.5523 789.579 63.473 801.222C33.4234 826.962 12.9598 862.107 5.40707 900.949C4.67637 905.82 3.89695 911.033 3.16625 916.1C2.43556 921.167 2.5817 926.38 2.33814 931.592C2.06035 942.046 2.77804 952.503 4.48151 962.821C7.89371 983.956 15.1589 1004.28 25.9153 1022.79L26.9382 1024.55H24.941L25.9153 1022.79C28.1561 1026.4 30.7866 1030.25 32.9787 1034.14L177.072 1264.39H175.27C232.654 1163.44 280.538 1079.26 312.494 1022.84L313.03 1023.72H311.958L312.446 1022.84C323.934 1003.16 331.509 981.436 334.756 958.875C335.877 951.129 336.169 945.088 336.461 941.093C336.461 939.095 336.461 937.585 336.461 936.513C336.461 935.441 336.705 934.905 336.705 934.905Z" fill="#E0E0E0"/>
<path d="M275.521 932.762C275.471 932.195 275.471 931.624 275.521 931.057C275.521 929.79 275.521 928.134 275.131 926.185C275.131 925.064 275.131 923.846 275.131 922.482C275.131 921.118 274.693 919.608 274.449 918C273.95 914.3 273.202 910.638 272.208 907.039C269.71 897.1 265.736 887.592 260.42 878.831C247.872 857.725 228.363 841.652 205.248 833.374C182.134 825.097 156.857 825.132 133.766 833.474C129.04 835.155 124.434 837.157 119.98 839.466C115.48 841.933 111.151 844.7 107.022 847.748C102.816 850.885 98.8138 854.286 95.0391 857.93C91.3109 861.753 87.8445 865.822 84.6632 870.11C78.0886 878.984 72.9742 888.852 69.5134 899.341C62.2725 920.95 62.2725 944.33 69.5134 965.939C72.8766 976.44 77.9456 986.316 84.517 995.17C87.6642 999.488 91.0981 1003.59 94.7955 1007.45C98.5638 1011.09 102.549 1014.51 106.73 1017.68C110.858 1020.74 115.187 1023.53 119.688 1026.01C123.844 1028.2 128.14 1030.13 132.548 1031.76C155.625 1040.19 180.915 1040.34 204.09 1032.18C227.265 1024.02 246.885 1008.06 259.592 987.034C264.994 978.317 269.02 968.819 271.527 958.875C272.557 955.282 273.322 951.618 273.816 947.913C273.816 946.306 274.352 944.844 274.547 943.48V939.729C274.547 937.634 274.839 935.928 274.936 934.857C274.884 934.273 274.884 933.686 274.936 933.103C275.001 933.686 275.001 934.274 274.936 934.857C274.936 936.123 274.936 937.78 274.936 939.729V943.48C274.936 944.844 274.547 946.354 274.352 947.962C273.905 951.708 273.205 955.419 272.257 959.07C269.847 969.145 265.904 978.79 260.566 987.667C247.821 1009.17 227.962 1025.54 204.425 1033.95C180.887 1042.35 155.153 1042.27 131.671 1033.71C121.891 1030.28 112.704 1025.35 104.441 1019.09C100.131 1015.9 96.0462 1012.42 92.2137 1008.67C88.5225 1004.71 85.1047 1000.51 81.984 996.096C75.2875 987.082 70.0896 977.047 66.5906 966.377C63.0892 955.344 61.2504 943.85 61.1348 932.275C61.2914 920.687 63.1964 909.19 66.7855 898.172C70.3193 887.528 75.5504 877.525 82.2762 868.551C85.5388 864.165 89.0863 859.999 92.8957 856.079C96.7689 852.384 100.869 848.935 105.171 845.751C109.398 842.653 113.824 839.837 118.421 837.323C122.991 835.053 127.711 833.1 132.548 831.476C156.069 823.034 181.801 823.078 205.293 831.601C228.785 840.123 248.56 856.588 261.199 878.148C266.468 887.079 270.36 896.753 272.744 906.844C273.687 910.474 274.355 914.171 274.742 917.903C274.742 919.559 275.229 921.021 275.326 922.434C275.424 923.846 275.326 925.016 275.326 926.136C275.326 928.28 275.326 929.985 275.326 931.252C275.433 931.749 275.498 932.254 275.521 932.762Z" fill="#E0E0E0"/>
<path d="M166.794 982.601L104.831 939.339L119.932 917.757L161.484 946.744L215.263 878.392L235.966 894.713L166.794 982.601Z" fill="#E0E0E0"/>
<path fill-rule="evenodd" clip-rule="evenodd" d="M1901.22 181.866C1919.35 184.128 1937.09 188.797 1953.98 195.75L1992.71 163.304L2059.25 213.971L2038.3 259.961C2049.5 274.385 2058.73 290.226 2065.77 307.072L2116.1 311.505L2127.35 394.326L2080 412.011C2077.77 430.244 2073.09 448.092 2066.07 465.065L2098.56 504.04L2047.9 570.638L2001.91 549.641C1987.5 560.854 1971.66 570.094 1954.81 577.118L1950.37 627.444L1867.56 638.698L1849.88 591.343C1831.72 588.98 1813.96 584.196 1797.07 577.118L1758.1 609.564L1691.56 558.897L1712.56 512.907C1701.33 498.502 1692.09 482.657 1685.08 465.796L1634.76 461.363L1623.51 378.542L1670.81 360.808C1673.09 342.697 1677.78 324.97 1684.74 308.095L1652.4 269.169L1703.01 202.571L1749.04 223.569C1763.46 212.363 1779.3 203.123 1796.15 196.091L1800.58 145.765L1883.39 134.511L1901.08 181.866H1901.22ZM1876.48 296.159C1857.96 296.756 1840.08 303.073 1825.29 314.241C1810.5 325.41 1799.54 340.882 1793.9 358.533C1788.26 376.185 1788.22 395.15 1793.79 412.824C1799.36 430.498 1810.26 446.015 1825 457.243C1839.74 468.471 1857.6 474.859 1876.11 475.532C1894.63 476.204 1912.9 471.127 1928.42 460.997C1943.93 450.868 1955.93 436.183 1962.77 418.959C1969.6 401.735 1970.94 382.817 1966.59 364.803C1961.75 344.747 1950.14 326.973 1933.73 314.472C1917.31 301.97 1897.1 295.503 1876.48 296.159Z" fill="#F5F5F5"/>
<path fill-rule="evenodd" clip-rule="evenodd" d="M1146.51 446.845C1158.23 448.339 1169.7 451.386 1180.61 455.906L1205.75 434.811L1248.95 467.696L1235.36 497.561C1242.64 506.924 1248.63 517.212 1253.19 528.156L1285.88 531.03L1293.14 584.62L1262.45 596.118C1260.94 607.835 1257.9 619.302 1253.39 630.221L1274.48 655.359L1241.7 698.914L1211.83 685.321C1202.48 692.589 1192.19 698.57 1181.24 703.103L1178.37 735.793L1124.78 743.101L1113.29 712.36C1101.57 710.895 1090.1 707.863 1079.19 703.347L1054.05 724.442L1010.84 691.557L1024.48 661.693C1017.19 652.341 1011.2 642.051 1006.66 631.098L973.969 628.223L966.662 574.39L997.4 562.941C998.876 551.223 1001.91 539.755 1006.41 528.838L985.027 503.553L1017.91 460.34L1047.77 473.932C1057.12 466.667 1067.39 460.671 1078.31 456.101L1081.19 423.411L1135.01 416.347L1146.51 447.04V446.845ZM1130.34 521.043C1118.26 521.388 1106.58 525.469 1096.91 532.726C1087.25 539.983 1080.07 550.059 1076.36 561.565C1072.66 573.072 1072.61 585.444 1076.23 596.978C1079.85 608.512 1086.95 618.641 1096.56 625.97C1106.17 633.3 1117.82 637.47 1129.9 637.905C1141.98 638.341 1153.89 635.021 1164.01 628.403C1174.12 621.785 1181.94 612.194 1186.38 600.95C1190.81 589.707 1191.66 577.364 1188.79 565.62C1185.62 552.622 1178.09 541.105 1167.45 532.992C1156.81 524.879 1143.71 520.661 1130.34 521.043Z" fill="#EBEBEB"/>
<path d="M1597.93 840.197C1605.1 843.379 1611.68 847.725 1617.42 853.059C1633.53 867.485 1644.17 887.036 1647.52 908.403C1649.91 923.171 1648.77 938.294 1644.21 952.541C1638.91 968.964 1629.3 983.666 1616.4 995.121C1609.48 1001.36 1601.65 1006.49 1593.16 1010.32C1584.38 1014.5 1574.99 1017.25 1565.35 1018.46C1544.94 1021.27 1524.17 1017.44 1506.11 1007.54C1488.04 997.63 1473.65 982.175 1465.05 963.454C1460.85 954.682 1458.1 945.287 1456.91 935.636C1455.61 926.4 1455.72 917.019 1457.25 907.818C1459.99 890.786 1467.22 874.793 1478.2 861.487C1487.76 849.98 1499.92 840.898 1513.66 834.984C1533.52 826.289 1555.78 824.74 1576.65 830.599C1584.23 832.657 1591.42 835.948 1597.93 840.343C1597.64 840.928 1590.48 836.494 1576.11 832.889C1555.74 827.965 1534.3 830.006 1515.22 838.687C1502.24 844.587 1490.83 853.447 1481.9 864.556C1471.6 877.315 1464.88 892.581 1462.41 908.792C1459.72 926.702 1462.38 945.008 1470.06 961.408C1478.26 979.011 1491.86 993.537 1508.88 1002.87C1525.91 1012.2 1545.47 1015.85 1564.71 1013.29C1573.85 1012.19 1582.75 1009.63 1591.07 1005.69C1599.14 1002.13 1606.61 997.309 1613.18 991.419C1624.76 981.338 1633.64 968.519 1639 954.129C1644.36 939.74 1646.03 924.238 1643.87 909.036C1640.85 888.363 1631.03 869.286 1615.96 854.812C1605.19 844.387 1597.54 840.733 1597.93 840.197Z" fill="#EBEBEB"/>
<path d="M1698.38 764.294C1698.56 763.209 1698.81 762.135 1699.11 761.078C1699.74 758.691 1700.57 755.476 1701.64 751.335L1712.17 713.091L1712.56 714.065L1635.4 672.313L1637.05 672.021L1602.12 711.873L1601.49 712.603L1600.57 712.36C1582.09 707.889 1563.11 705.875 1544.11 706.368H1543.03L1542.5 705.442C1534.46 690.826 1525.74 675.383 1516.63 659.111L1518.87 660.036L1434.7 684.785L1436.21 682.593C1437.28 699.011 1438.4 717.037 1439.57 735.55V736.914L1438.4 737.596C1422.27 747.416 1407.53 759.343 1394.56 773.063L1393.58 774.086L1392.22 773.696L1341.22 759.081L1343.99 757.96L1301.66 835.325L1301.13 832.207L1340.83 867.333L1342 868.356L1341.66 869.866C1337.21 888.164 1335.23 906.973 1335.76 925.795V927.354L1334.35 928.134L1287.97 953.906L1289.24 950.836L1313.79 1035.07L1311.06 1033.17L1363.97 1029.91H1365.62L1366.45 1031.32C1376.23 1047.43 1388.1 1062.18 1401.77 1075.17C1402.11 1076.38 1401.09 1072.49 1402.55 1077.89V1078.19V1078.58V1079.4L1402.06 1081.01L1401.13 1084.18L1399.33 1090.61L1395.63 1103.37C1393.19 1111.9 1390.76 1120.38 1388.37 1128.8L1387.06 1125.69L1463.97 1167.93L1460.71 1168.46L1495.83 1128.8L1496.51 1127.64L1498.07 1128.02C1516.44 1132.56 1535.33 1134.64 1554.24 1134.21H1555.85L1556.58 1135.58C1565.31 1151.26 1573.89 1166.74 1582.3 1182L1579.33 1180.79L1663.55 1156.43L1661.8 1158.96C1660.73 1141.03 1659.65 1123.35 1658.63 1106.05V1104.54L1659.9 1103.81C1676.13 1094.06 1690.99 1082.18 1704.08 1068.49L1705.05 1067.47L1706.42 1067.86L1757.32 1082.47L1754.74 1083.55L1797.12 1006.72L1797.56 1009.25L1757.96 974.026L1757.08 973.247L1757.32 972.126C1761.95 953.705 1764.08 934.747 1763.66 915.759V914.687L1764.58 914.151L1811.01 888.574L1810.27 890.426C1800.92 857.735 1792.93 829.917 1785.92 806.094L1787.18 806.922L1734.23 809.845H1733.7L1733.41 809.407C1726.09 797.049 1717.58 785.446 1707.98 774.768L1700.77 766.973C1699.91 766.153 1699.11 765.274 1698.38 764.342C1699.33 765.04 1700.22 765.805 1701.06 766.632C1702.81 768.24 1705.4 770.676 1708.66 774.135C1718.58 784.656 1727.38 796.184 1734.92 808.53L1734.14 808.092L1787.04 804.535H1787.96L1788.26 805.509C1795.32 829.284 1803.55 857.053 1813.2 889.646L1813.54 890.864L1812.42 891.449L1766.14 917.367L1767.07 915.759C1767.6 935.075 1765.55 954.376 1760.98 973.149L1760.34 971.201L1800.14 1006.28L1801.41 1007.35L1800.58 1008.81L1758.54 1085.83L1757.66 1087.39L1755.96 1086.91L1704.96 1072.29L1707.3 1071.66C1693.97 1085.7 1678.81 1097.89 1662.24 1107.9L1663.41 1105.71C1664.48 1123.02 1665.58 1140.66 1666.72 1158.62V1160.62L1664.82 1161.15L1580.64 1185.8L1578.64 1186.39L1577.67 1184.59L1551.9 1138.21L1554.24 1139.57C1534.85 1140.06 1515.49 1137.96 1496.66 1133.34L1499.29 1132.51L1464.17 1172.21L1462.76 1173.82L1460.9 1172.8L1383.94 1130.61L1382.04 1129.58L1382.67 1127.49C1385.07 1119.08 1387.49 1110.62 1389.93 1102.11L1393.58 1089.29L1395.43 1082.91L1396.36 1079.7L1396.8 1078.09L1397.04 1077.31V1076.87V1076.58C1398.5 1081.99 1397.43 1078.09 1397.77 1079.26C1383.75 1065.88 1371.58 1050.69 1361.58 1034.1L1364.06 1035.41L1311.11 1038.63H1308.97L1308.38 1036.58L1284.03 952.347L1283.44 950.3L1285.29 949.277L1331.67 923.603L1330.35 925.941C1329.87 906.568 1331.98 887.217 1336.64 868.405L1337.47 870.938C1323.68 858.71 1310.14 846.579 1297.76 835.764L1296.3 834.399L1297.23 832.646L1339.56 755.768L1340.49 754.063L1342.34 754.599L1393.24 769.214L1390.9 769.848C1404.31 755.885 1419.49 743.748 1436.06 733.747L1434.99 735.793C1433.92 717.329 1432.85 699.255 1431.87 682.885V681.18L1433.53 680.693L1517.8 656.334L1519.26 655.895L1519.99 657.259C1529.01 673.531 1537.63 689.219 1545.62 703.688L1544.01 702.811C1563.31 702.378 1582.57 704.54 1601.3 709.242L1599.74 709.729L1635.01 670.17L1635.74 669.342L1636.71 669.877L1713.38 712.506L1714.02 712.847V713.529C1709.15 729.85 1705.35 742.468 1702.72 751.188L1699.74 760.932C1699.39 762.092 1698.94 763.217 1698.38 764.294Z" fill="#EBEBEB"/>
<path d="M1904.68 852.376L1828.25 548.374L2139.23 543.21L1904.68 852.376Z" fill="#EBEBEB"/>
<path d="M2045.39 602.171L1938.56 742.976L2507.93 1175.04L2614.76 1034.24L2045.39 602.171Z" fill="#EBEBEB"/>
<path d="M2461.03 1629.43L2500.54 1719.03C2500.54 1719.03 2422.6 1789.28 2428.44 1806.72L2604.88 1736.32L2549.06 1594.21L2461.03 1629.43Z" fill="#0AAFF7"/>
<path opacity="0.5" d="M2461.03 1629.43L2500.54 1719.03C2500.54 1719.03 2422.6 1789.28 2428.44 1806.72L2604.88 1736.32L2549.06 1594.21L2461.03 1629.43Z" fill="black"/>
<path d="M2604.88 1736.27L2598.7 1722L2431.8 1795.08C2431.8 1795.08 2425.33 1801.61 2428.39 1806.82L2604.88 1736.27Z" fill="#263238"/>
<path d="M2771.73 1756.44L2821.22 1840.97C2821.22 1840.97 2751.95 1919.6 2759.55 1936.36L2926.83 1846.33L2855.17 1711.28L2771.73 1756.44Z" fill="#0AAFF7"/>
<path opacity="0.5" d="M2771.73 1756.44L2821.22 1840.97C2821.22 1840.97 2751.95 1919.6 2759.55 1936.36L2926.83 1846.33L2855.17 1711.28L2771.73 1756.44Z" fill="black"/>
<path d="M2926.83 1846.08L2918.94 1832.78L2761.59 1924.08C2761.59 1924.08 2755.89 1931.34 2759.55 1936.12L2926.83 1846.08Z" fill="#263238"/>
<path d="M2555.93 571.125L2447.49 579.602L2443.89 518.899C2443.89 518.899 2400.04 518.266 2393.61 475.54C2387.18 432.814 2380.66 333.526 2380.66 333.526C2403.52 319.654 2429.66 312.137 2456.4 311.751C2483.14 311.366 2509.49 318.126 2532.74 331.334L2539.75 335.329L2555.93 571.125Z" fill="#FFBE9D"/>
<path d="M2443.74 518.266C2463.55 515.865 2482.21 507.623 2497.32 494.589C2497.32 494.589 2487.87 528.204 2444.62 530.348L2443.74 518.266Z" fill="#EB996E"/>
<path d="M2540.73 380.344C2541.41 379.906 2568.93 367.483 2572.1 396.909C2575.27 426.334 2545.11 423.411 2544.97 422.583C2544.82 421.755 2540.73 380.344 2540.73 380.344Z" fill="#FFBE9D"/>
<path d="M2552.76 410.452C2552.76 410.452 2553.3 410.745 2554.22 411.086C2555.48 411.466 2556.85 411.344 2558.02 410.745C2559.83 409.358 2561.24 407.51 2562.1 405.393C2562.96 403.277 2563.23 400.969 2562.89 398.711C2562.71 396.189 2561.96 393.74 2560.7 391.55C2560.32 390.663 2559.73 389.881 2558.99 389.271C2558.24 388.66 2557.36 388.238 2556.41 388.042C2555.8 387.952 2555.18 388.078 2554.66 388.399C2554.13 388.719 2553.74 389.213 2553.54 389.796C2553.25 390.624 2553.54 391.208 2553.54 391.257C2553.54 391.306 2552.86 390.867 2552.95 389.601C2553.04 388.858 2553.39 388.168 2553.93 387.652C2554.28 387.295 2554.71 387.015 2555.18 386.831C2555.65 386.646 2556.15 386.561 2556.66 386.58C2557.89 386.696 2559.07 387.123 2560.1 387.822C2561.12 388.521 2561.95 389.468 2562.5 390.575C2564.03 392.98 2564.95 395.723 2565.18 398.565C2565.6 401.169 2565.24 403.838 2564.15 406.239C2563.06 408.64 2561.28 410.664 2559.04 412.06C2558.27 412.404 2557.42 412.561 2556.58 412.519C2555.73 412.476 2554.91 412.236 2554.17 411.816C2552.86 411.183 2552.66 410.55 2552.76 410.452Z" fill="#EB996E"/>
<path d="M2399.12 400.757C2399.34 402.348 2400.17 403.792 2401.43 404.783C2402.69 405.774 2404.29 406.234 2405.89 406.068C2406.68 406.025 2407.44 405.824 2408.15 405.477C2408.86 405.13 2409.49 404.644 2410 404.048C2410.51 403.453 2410.9 402.759 2411.14 402.009C2411.38 401.259 2411.47 400.469 2411.39 399.685C2411.2 398.09 2410.38 396.634 2409.13 395.632C2407.87 394.63 2406.27 394.161 2404.67 394.326C2403.88 394.376 2403.11 394.582 2402.4 394.934C2401.69 395.285 2401.06 395.775 2400.54 396.374C2400.03 396.973 2399.63 397.669 2399.39 398.422C2399.14 399.175 2399.05 399.969 2399.12 400.757Z" fill="#263238"/>
<path d="M2397.22 392.573C2398.1 393.255 2402.09 389.162 2408.81 388.285C2415.53 387.408 2420.7 389.991 2421.28 389.065C2421.87 388.139 2420.6 387.311 2418.31 386.093C2415.18 384.539 2411.64 383.978 2408.18 384.485C2404.76 384.955 2401.57 386.489 2399.07 388.87C2397.27 390.721 2396.83 392.28 2397.22 392.573Z" fill="#263238"/>
<path d="M2463.08 393.352C2463.3 394.943 2464.13 396.386 2465.39 397.377C2466.65 398.368 2468.25 398.829 2469.85 398.662C2470.63 398.613 2471.4 398.408 2472.1 398.059C2472.81 397.71 2473.43 397.224 2473.94 396.629C2474.46 396.035 2474.85 395.344 2475.09 394.597C2475.33 393.85 2475.42 393.063 2475.35 392.28C2475.15 390.69 2474.33 389.242 2473.08 388.242C2471.82 387.242 2470.23 386.769 2468.63 386.921C2467.84 386.97 2467.07 387.177 2466.36 387.528C2465.65 387.88 2465.02 388.369 2464.5 388.969C2463.99 389.568 2463.59 390.264 2463.35 391.017C2463.1 391.769 2463.01 392.563 2463.08 393.352Z" fill="#263238"/>
<path d="M2462.06 384.68C2462.93 385.411 2466.93 381.319 2473.65 380.393C2480.37 379.467 2485.49 382.098 2486.12 381.221C2486.75 380.344 2485.44 379.467 2483.1 378.249C2480 376.654 2476.47 376.075 2473.02 376.593C2469.59 377.067 2466.4 378.619 2463.91 381.026C2462.1 382.878 2461.62 384.388 2462.06 384.68Z" fill="#263238"/>
<path d="M2445.05 436.809C2441.43 436.254 2437.75 436.123 2434.09 436.419C2432.39 436.419 2430.73 436.419 2430.29 435.25C2429.96 433.618 2430.11 431.924 2430.73 430.378C2431.71 426.091 2432.78 421.56 2433.9 416.883C2436.98 405.399 2439.13 393.685 2440.33 381.854C2436.33 393.054 2433.24 404.556 2431.07 416.25L2428.15 429.793C2427.35 431.963 2427.35 434.346 2428.15 436.516C2428.48 437.075 2428.93 437.551 2429.47 437.906C2430.01 438.261 2430.63 438.486 2431.27 438.563C2432.22 438.71 2433.19 438.71 2434.14 438.563C2437.84 438.444 2441.51 437.855 2445.05 436.809Z" fill="#263238"/>
<path d="M2465.03 438.66C2463.96 438.66 2465.03 445.87 2459.52 451.814C2454.02 457.758 2446.42 458.001 2446.52 459.024C2446.61 460.047 2448.42 460.194 2451.63 459.804C2455.81 459.278 2459.68 457.294 2462.54 454.201C2465.3 451.23 2466.79 447.295 2466.68 443.24C2466.54 440.219 2465.51 438.563 2465.03 438.66Z" fill="#263238"/>
<path d="M2456.7 359.152C2457.62 360.857 2464.05 359.152 2471.9 359.152C2479.74 359.152 2486.51 360.224 2487.09 358.47C2487.44 357.642 2486.12 356.083 2483.34 354.718C2479.7 353.022 2475.71 352.22 2471.7 352.38C2467.69 352.481 2463.75 353.515 2460.2 355.4C2457.57 356.765 2456.16 358.372 2456.7 359.152Z" fill="#263238"/>
<path d="M2396.97 373.183C2398.34 374.498 2402.67 372.354 2408.08 371.477C2413.49 370.601 2418.31 371.088 2419.14 369.383C2419.48 368.554 2418.55 367.142 2416.36 366.021C2413.42 364.675 2410.14 364.266 2406.96 364.852C2403.76 365.332 2400.79 366.816 2398.48 369.09C2396.78 370.893 2396.34 372.501 2396.97 373.183Z" fill="#263238"/>
<path d="M2356.01 309.41C2355.35 306.794 2355.36 304.055 2356.03 301.443C2356.7 298.831 2358.02 296.428 2359.86 294.454C2361.79 292.599 2364.32 291.488 2366.99 291.319C2369.67 291.149 2372.32 291.932 2374.47 293.528C2373.82 291.796 2373.55 289.947 2373.66 288.101C2373.77 286.256 2374.26 284.453 2375.11 282.811C2375.96 281.168 2377.14 279.721 2378.59 278.563C2380.03 277.405 2381.69 276.562 2383.48 276.087C2390.4 274.674 2397.12 279.108 2404.14 279.984C2411.01 280.425 2417.85 278.631 2423.62 274.869C2429.61 271.459 2435.02 267.074 2441.11 263.859C2453.95 257.006 2468.98 255.501 2482.93 259.67C2496.88 263.839 2508.61 273.346 2515.59 286.123C2520.2 284.253 2525.27 283.84 2530.12 284.937C2534.97 286.034 2539.37 288.59 2542.72 292.261C2549.35 299.77 2552.95 309.479 2552.81 319.495C2552.81 326.181 2552.07 332.847 2550.62 339.372C2550.62 339.908 2550.62 340.444 2550.86 341.029C2553.73 364.608 2554.95 392.621 2544.97 394.18C2527.48 396.908 2527.04 363.342 2527.04 363.342C2504.39 358.08 2507.85 324.757 2501.81 320.664C2495.76 316.572 2482.9 306.78 2441.21 336.059C2425.54 345.903 2407.16 350.557 2388.69 349.359H2387.52H2387.23H2386.84C2382.64 348.906 2378.53 347.805 2374.66 346.095C2370.1 344.261 2366.25 341.018 2363.66 336.839C2362.41 334.738 2361.81 332.321 2361.91 329.883C2362.02 327.444 2362.82 325.088 2364.24 323.1C2360.22 319.44 2357.35 314.68 2356.01 309.41Z" fill="#263238"/>
<path d="M2443.74 556.071L2448.61 725.952L2554.27 498.438L2551.64 477.343L2443.74 556.071Z" fill="#EBEBEB"/>
<path d="M2513.84 1063.96C2509.99 1065.23 2289.76 1287.82 2294.63 1327.82C2299.5 1367.82 2456.21 1663.98 2456.21 1663.98L2568.25 1608.88L2463.37 1349.3L2464.73 1333.18L2592.9 1228.19L2586.03 1059.43L2513.84 1063.96Z" fill="#263238"/>
<path d="M2561.28 1107.86C2563.87 1111.7 2601.96 1461.4 2612.19 1479.48C2622.42 1497.55 2775.48 1796.15 2775.48 1796.15L2889.12 1750.35L2750.39 1422.24L2766.17 1111.7L2757.65 1024.01L2586.03 1059.43L2561.28 1107.86Z" fill="#263238"/>
<path d="M2610.19 1473.54C2609.83 1472.4 2609.58 1471.22 2609.46 1470.03C2609.02 1467.49 2608.49 1464.13 2607.81 1459.94C2606.44 1450.88 2604.49 1438.26 2602.15 1422.77C2597.62 1391.06 2591.39 1347.74 2584.47 1299.9C2577.55 1252.06 2571.9 1208.61 2567.52 1176.94C2565.52 1161.35 2563.87 1148.68 2562.65 1139.62L2561.48 1129.44C2561.36 1128.26 2561.36 1127.06 2561.48 1125.88C2561.48 1125.88 2561.77 1127.1 2562.21 1129.39C2562.65 1131.68 2563.18 1135.28 2563.87 1139.47L2569.47 1176.69C2574.05 1208.36 2580.28 1251.67 2587.15 1299.56C2594.02 1347.45 2599.77 1390.81 2604.1 1422.53C2606.15 1438.07 2607.81 1450.74 2608.97 1459.8C2609.46 1464.04 2609.9 1467.45 2610.19 1469.98C2610.31 1471.16 2610.31 1472.35 2610.19 1473.54Z" fill="#455A64"/>
<path d="M2747.51 1412.2C2746.08 1421.61 2743.86 1430.88 2740.89 1439.92C2738.68 1449.17 2735.68 1458.22 2731.93 1466.96C2733.42 1457.61 2735.68 1448.4 2738.7 1439.43C2740.83 1430.11 2743.78 1421 2747.51 1412.2Z" fill="#455A64"/>
<path d="M2764.71 1491.42C2762.16 1488.91 2760.06 1485.99 2758.47 1482.79C2749.99 1467.68 2746.31 1450.35 2747.9 1433.1C2748.02 1429.54 2748.75 1426.03 2750.05 1422.72C2747.36 1446.6 2752.49 1470.7 2764.66 1491.42H2764.71Z" fill="#455A64"/>
<path d="M2426.93 1311.55C2440.57 1316.92 2451.75 1327.11 2458.35 1340.19C2457.77 1340.58 2452.31 1332.64 2443.74 1324.8C2435.17 1316.95 2426.4 1312.18 2426.93 1311.55Z" fill="#455A64"/>
<path d="M2443.98 1301.22C2448.54 1304.36 2452.25 1308.58 2454.8 1313.5C2458.07 1317.98 2460.19 1323.2 2460.98 1328.7C2457.98 1324.21 2455.24 1319.56 2452.75 1314.76C2449.58 1310.41 2446.65 1305.89 2443.98 1301.22Z" fill="#455A64"/>
<path d="M2459.18 791.04L2487.29 930.667L2510.18 1125.54C2510.18 1125.54 2604.59 1112.34 2644.83 1099.62C2691.49 1085.01 2793.01 1072.24 2793.01 1072.24L2775.86 1089.2C2812.2 1079.01 2835.34 1044.38 2835.34 1044.38C2772.8 986.352 2719.21 866.7 2719.21 866.7L2671.62 630.318C2671.62 630.318 2664.41 596.995 2660.03 582.136C2655.64 567.277 2583.4 519.484 2573.36 513.443L2567.08 510.471L2565.08 491.519L2557.63 487.037L2479.49 558.118C2464.26 571.919 2454.58 590.797 2452.26 611.221C2448.96 640.735 2447.82 670.451 2448.85 700.132C2449.78 728.145 2459.18 791.04 2459.18 791.04Z" fill="#0AAFF7"/>
<path d="M2512.86 549.251C2512.86 549.251 2471.55 571.418 2464.39 590.223C2457.23 609.028 2478.52 815.204 2478.52 815.204L2330.09 818.03L2329.51 906.454C2329.51 906.454 2565.23 925.113 2574.44 912.349C2586.81 895.102 2601.23 733.991 2601.23 733.991L2606.59 618.041C2606.59 618.041 2593.09 529.666 2512.86 549.251Z" fill="#0AAFF7"/>
<g opacity="0.3">
<path d="M2487.29 930.667C2506.49 936.676 2526.74 938.552 2546.72 936.172C2567.62 934.272 2588.9 922.823 2596.8 903.336C2602.84 888.477 2600.3 871.669 2601.23 855.641C2602.06 841.658 2605.47 828.017 2607.61 814.23C2609.75 800.443 2602.74 775.255 2597.87 761.858C2597.87 761.858 2592.61 857.541 2577.6 897.733C2575.93 903.346 2572.77 908.399 2568.44 912.349C2563.13 916.636 2555.83 917.221 2548.96 917.708C2530.01 919.705 2484.32 916.392 2484.32 916.392" fill="black"/>
</g>
<path d="M2606.49 630.708C2606.55 631.421 2606.55 632.138 2606.49 632.852C2606.49 634.313 2606.49 636.359 2606.25 638.99C2606.25 644.544 2605.61 652.485 2605.13 662.667C2604.64 672.849 2603.91 685.565 2603.13 700.132C2602.35 714.698 2601.76 731.409 2599.96 749.727C2598.16 768.045 2596.46 788.117 2594.17 809.65C2591.88 831.184 2589.29 854.179 2585.15 878.197C2584.18 884.336 2582.81 890.406 2581.06 896.369C2579.04 902.612 2575.33 908.176 2570.34 912.446C2565.22 916.862 2558.64 919.208 2551.88 919.023C2545.36 919.023 2538.78 919.023 2532.4 919.023C2505.9 918.341 2478.52 917.026 2450.46 915.467C2408.33 913.177 2367.65 910.595 2329.8 907.867H2328.73V906.795C2328.73 875.372 2329.07 845.799 2329.26 818.468V817.445H2330.29L2473.55 814.376L2513.59 813.694H2524.16C2526.55 813.694 2527.77 813.694 2527.77 813.694C2527.77 813.694 2526.55 813.694 2524.16 813.938L2513.64 814.376L2473.55 815.643L2330.34 819.589L2331.36 818.566C2331.36 845.848 2331.36 875.42 2331.07 906.844L2329.95 905.674C2367.89 908.256 2408.52 910.887 2450.61 913.177C2478.62 914.687 2505.99 916.1 2532.45 916.782C2539.07 916.782 2545.6 917.026 2551.93 916.782C2558.17 917.016 2564.26 914.874 2568.98 910.79C2573.63 906.809 2577.09 901.614 2578.97 895.785C2580.68 889.93 2582.03 883.975 2583.01 877.954C2587.15 854.033 2589.78 831.038 2592.27 809.748C2594.75 788.458 2596.65 768.24 2598.35 749.922C2600.06 731.604 2600.89 714.942 2601.86 700.375C2602.84 685.808 2603.62 673.288 2604.25 662.959C2604.88 652.631 2605.47 644.836 2605.86 639.331C2605.86 636.7 2606.2 634.459 2606.34 633.144C2606.3 632.329 2606.35 631.511 2606.49 630.708Z" fill="#263238"/>
<path d="M2358.74 905.139C2357.58 890.879 2357.24 876.565 2357.71 862.266C2357.39 847.959 2357.88 833.646 2359.17 819.394C2360.32 833.654 2360.67 847.968 2360.2 862.266C2360.52 876.573 2360.03 890.887 2358.74 905.139Z" fill="#263238"/>
<path d="M2343.05 832.84C2342.76 832.84 2344.22 830.989 2347.04 831.964C2347.87 832.252 2348.59 832.774 2349.13 833.465C2349.67 834.157 2349.99 834.989 2350.06 835.861C2350.19 836.949 2349.97 838.049 2349.44 839.006C2348.91 839.963 2348.09 840.727 2347.09 841.191C2346.1 841.655 2344.99 841.794 2343.91 841.589C2342.84 841.385 2341.85 840.846 2341.1 840.051C2340.47 839.474 2340.01 838.744 2339.75 837.932C2339.5 837.12 2339.46 836.254 2339.64 835.423C2340.32 832.597 2342.27 832.012 2342.32 832.305C2342.37 832.597 2341.39 833.62 2341.34 835.617C2341.33 836.141 2341.43 836.662 2341.64 837.142C2341.85 837.622 2342.17 838.05 2342.56 838.394C2343.04 838.788 2343.61 839.046 2344.22 839.14C2344.83 839.234 2345.45 839.162 2346.02 838.93C2346.56 838.654 2347.01 838.236 2347.33 837.72C2347.65 837.205 2347.82 836.613 2347.82 836.007C2347.81 835.497 2347.66 835 2347.4 834.564C2347.13 834.128 2346.76 833.769 2346.31 833.523C2344.61 832.499 2343.2 833.133 2343.05 832.84Z" fill="#263238"/>
<path d="M2672.35 650.585C2672.35 650.585 2749.61 751.578 2759.01 779.055C2768.41 806.533 2761.15 846.092 2745.42 864.995C2729.69 883.897 2717.02 876.2 2717.02 876.2L2672.35 650.585Z" fill="#0AAFF7"/>
<path d="M2714.34 868.112C2708.05 870.384 2701.51 871.905 2694.86 872.643C2688.38 874.171 2681.73 874.891 2675.08 874.787C2681.37 872.507 2687.91 870.986 2694.56 870.256C2701.04 868.728 2707.69 868.008 2714.34 868.112Z" fill="#263238"/>
<path d="M2728.95 942.505C2729.83 944.202 2730.53 945.981 2731.05 947.816C2732.22 951.323 2733.97 956.293 2736.26 962.431C2742.26 978.428 2749.19 994.061 2757.01 1009.25C2764.89 1024.4 2773.54 1039.13 2782.93 1053.39C2786.53 1058.89 2789.5 1063.13 2791.6 1066.3C2792.79 1067.8 2793.8 1069.44 2794.62 1071.17C2793.2 1069.89 2791.92 1068.45 2790.82 1066.88C2788.53 1064.01 2785.32 1059.77 2781.52 1054.36C2771.64 1040.37 2762.72 1025.72 2754.82 1010.52C2746.92 995.261 2740.18 979.431 2734.65 963.162C2732.56 956.926 2731 951.811 2730.12 948.254C2729.48 946.398 2729.09 944.465 2728.95 942.505Z" fill="#263238"/>
<g opacity="0.3">
<path d="M2734.31 954.49C2746.59 976.316 2759.16 998.337 2777.77 1015.24C2784.8 1020.59 2791.18 1026.75 2796.76 1033.61C2801.63 1040.87 2803.92 1051 2799.15 1058.46C2798.44 1059.84 2797.32 1060.98 2795.95 1061.72C2794.57 1062.46 2793.01 1062.77 2791.45 1062.6C2789.42 1061.82 2787.7 1060.37 2786.58 1058.5C2763.28 1028.49 2745.88 994.341 2735.29 957.852" fill="black"/>
</g>
<g opacity="0.3">
<path d="M2724.08 875.81C2734.65 868.21 2738.36 853.789 2736.8 840.83C2735.24 827.871 2729.3 815.984 2723.99 804.145C2707.94 768.745 2695.36 731.871 2686.43 694.042L2678.88 666.029L2717.07 865.774L2724.08 875.81Z" fill="black"/>
</g>
<path d="M2532.98 540.287C2537.54 535.186 2542.42 530.386 2547.6 525.915C2552.16 520.747 2557.04 515.866 2562.21 511.299C2558.96 517.37 2554.67 522.827 2549.54 527.425C2544.87 532.701 2539.25 537.062 2532.98 540.287Z" fill="#263238"/>
<path d="M2525.19 557.63C2525.19 558.069 2520.71 559.433 2513.89 562.795C2495.99 571.677 2481.57 586.286 2472.92 604.303C2469.61 611.172 2468.05 615.751 2468.05 615.654C2468.03 614.511 2468.21 613.374 2468.58 612.292C2469.33 609.315 2470.31 606.4 2471.51 603.572C2479.56 584.647 2494.52 569.505 2513.35 561.236C2516.16 560.004 2519.06 558.994 2522.02 558.215C2523.04 557.846 2524.11 557.648 2525.19 557.63Z" fill="#263238"/>
<path d="M2732.56 895.931C2732.07 895.339 2731.66 894.683 2731.34 893.982L2728.27 888.185C2725.5 882.777 2721.75 875.42 2717.12 866.456C2712.25 844.338 2705.47 812.086 2698.02 776.181C2691.1 742.127 2685.11 711.483 2680.24 689.17L2675.37 662.716C2674.88 659.842 2674.44 657.454 2674.1 655.506C2673.9 654.677 2673.82 653.824 2673.86 652.972C2674.19 653.757 2674.43 654.573 2674.59 655.408C2675.03 657.308 2675.61 659.695 2676.3 662.57C2677.76 669.098 2679.75 677.965 2682.14 688.829C2687.01 711.337 2693.35 741.932 2700.46 775.694C2707.91 811.599 2714.44 843.899 2718.77 866.164C2723.11 875.274 2726.62 882.728 2729.2 888.233L2731.93 894.226C2732.19 894.772 2732.4 895.343 2732.56 895.931Z" fill="#263238"/>
<path d="M2475.99 815.156C2475.37 812.762 2474.98 810.315 2474.82 807.848C2474.28 802.684 2473.55 795.912 2472.68 787.776C2470.92 770.871 2468.68 747.437 2466.39 721.616C2464.1 695.796 2462.15 672.313 2460.84 655.311C2460.25 647.175 2459.81 640.403 2459.43 635.239C2459.2 632.775 2459.2 630.297 2459.43 627.834C2459.98 630.238 2460.35 632.681 2460.55 635.141C2461.08 640.305 2461.81 647.077 2462.74 655.213C2464.44 672.119 2466.68 695.503 2468.97 721.373C2471.26 747.242 2473.21 770.676 2474.53 787.63C2475.11 795.766 2475.55 802.538 2475.94 807.75C2476.13 810.215 2476.14 812.689 2475.99 815.156Z" fill="#263238"/>
<path d="M2331.99 828.358C2331.99 828.358 2299.94 803.999 2292.14 802.586C2286.15 801.466 2250.45 802.099 2234.03 802.586C2230.96 802.56 2228.01 803.74 2225.8 805.873C2223.6 808.005 2222.32 810.919 2222.24 813.986C2222.19 814.375 2222.19 814.767 2222.24 815.156C2222.65 817.1 2223.6 818.89 2224.98 820.32C2226.35 821.751 2228.11 822.763 2230.04 823.243C2227.55 824.043 2225.37 825.609 2223.82 827.717C2222.27 829.825 2221.43 832.368 2221.41 834.984C2221.41 844.241 2232.47 846.189 2232.47 846.189L2230.86 847.651C2229.48 849.056 2228.49 850.807 2228.01 852.721C2227.53 854.636 2227.57 856.645 2228.12 858.539C2228.68 860.433 2229.73 862.144 2231.18 863.493C2232.62 864.843 2234.39 865.782 2236.32 866.213L2241.19 867.382C2239.32 868.14 2237.7 869.403 2236.5 871.028C2235.31 872.654 2234.59 874.579 2234.42 876.59C2234.42 888.769 2262.09 891.205 2262.09 891.205C2262.09 891.205 2329.95 901.972 2331.41 901.485C2332.87 900.997 2331.99 828.358 2331.99 828.358Z" fill="#FFBE9D"/>
<path d="M2240.31 787.971C2240.61 792.014 2241.58 800.589 2248.4 804.438L2286.25 802.976C2286.25 802.976 2258.09 793.232 2254.05 788.361C2252.48 786.365 2250.67 784.58 2248.64 783.05C2247.8 782.485 2246.82 782.169 2245.81 782.139C2244.8 782.109 2243.8 782.367 2242.93 782.881C2242.05 783.396 2241.35 784.148 2240.88 785.048C2240.42 785.949 2240.22 786.962 2240.31 787.971Z" fill="#FFBE9D"/>
<path d="M2268.42 802.586C2262.78 803.923 2256.95 804.334 2251.18 803.804C2245.4 804.146 2239.6 803.737 2233.93 802.586C2239.6 801.316 2245.43 800.905 2251.23 801.368C2256.99 801.079 2262.76 801.488 2268.42 802.586Z" fill="#EB996E"/>
<path d="M2259.94 823.73C2255.14 825.279 2250.06 825.794 2245.04 825.24C2240.04 825.427 2235.06 824.547 2230.42 822.658C2235.36 822.123 2240.34 822.123 2245.28 822.658C2250.19 822.462 2255.11 822.822 2259.94 823.73Z" fill="#EB996E"/>
<path d="M2279.19 821.002C2279.77 821.392 2279.19 823.438 2276.9 824.802C2274.61 826.166 2272.56 826.02 2272.51 825.338C2272.46 824.656 2273.88 823.827 2275.53 822.756C2277.19 821.684 2278.6 820.71 2279.19 821.002Z" fill="#EB996E"/>
<path d="M2264.09 847.7C2253.26 848.968 2242.31 848.606 2231.59 846.628C2236.97 845.559 2242.47 845.313 2247.91 845.897C2253.36 845.691 2258.81 846.299 2264.09 847.7Z" fill="#EB996E"/>
<path d="M2285.67 837.566C2285.96 837.566 2286.54 838.248 2286.74 839.71C2286.95 841.7 2286.37 843.694 2285.13 845.267C2283.9 846.84 2282.1 847.87 2280.11 848.138C2278.65 848.138 2277.77 848.138 2277.77 847.602C2277.77 847.066 2281.04 846.53 2283.18 843.753C2285.32 840.976 2285.08 837.712 2285.67 837.566Z" fill="#EB996E"/>
<path d="M2269.83 871.133C2264.96 871.73 2260.03 871.533 2255.22 870.548C2250.21 870.373 2245.27 869.352 2240.61 867.528C2245.48 866.931 2250.41 867.128 2255.22 868.113C2260.22 868.316 2265.16 869.336 2269.83 871.133Z" fill="#EB996E"/>
<path d="M2290.93 859.197C2291.22 859.197 2291.71 859.977 2291.66 861.487C2291.47 863.276 2290.75 864.969 2289.61 866.359C2286.88 869.72 2283.77 870.938 2283.42 870.451C2283.08 869.964 2285.42 867.674 2287.71 864.848C2290 862.023 2290.54 859.343 2290.93 859.197Z" fill="#EB996E"/>
<path d="M2763.05 1091.15C2769.75 1090.5 2776.2 1088.29 2781.9 1084.71C2787.59 1081.12 2792.36 1076.25 2795.84 1070.49C2796.62 1069.17 2797.3 1067.37 2796.28 1066.25C2795.88 1065.92 2795.42 1065.67 2794.93 1065.52C2794.43 1065.37 2793.92 1065.32 2793.4 1065.37C2782.81 1065.29 2772.28 1067.11 2762.32 1070.73C2761.74 1070.87 2761.19 1071.12 2760.71 1071.48C2760.23 1071.84 2759.83 1072.3 2759.55 1072.83C2759.28 1073.65 2759.28 1074.54 2759.55 1075.36C2760.86 1080.48 2762.18 1085.59 2763.54 1090.76" fill="#0AAFF7"/>
<g opacity="0.4">
<path d="M2763.05 1091.15C2769.75 1090.5 2776.2 1088.29 2781.9 1084.71C2787.59 1081.12 2792.36 1076.25 2795.84 1070.49C2796.62 1069.17 2797.3 1067.37 2796.28 1066.25C2795.88 1065.92 2795.42 1065.67 2794.93 1065.52C2794.43 1065.37 2793.92 1065.32 2793.4 1065.37C2782.81 1065.29 2772.28 1067.11 2762.32 1070.73C2761.74 1070.87 2761.19 1071.12 2760.71 1071.48C2760.23 1071.84 2759.83 1072.3 2759.55 1072.83C2759.28 1073.65 2759.28 1074.54 2759.55 1075.36C2760.86 1080.48 2762.18 1085.59 2763.54 1090.76" fill="black"/>
</g>
<path d="M2443.74 556.071C2443.74 556.071 2428.15 608.346 2432.44 605.374C2436.72 602.403 2446.03 594.169 2446.03 594.169L2443.74 556.071Z" fill="#EBEBEB"/>
<path d="M2444.62 580.187L2436.14 600.551C2435.29 602.659 2434.74 604.871 2434.48 607.128C2433.75 612.828 2432.97 623.254 2436.34 623.985C2438.04 624.081 2439.74 623.793 2441.32 623.144C2442.89 622.495 2444.3 621.5 2445.44 620.234L2444.62 580.187Z" fill="#263238"/>
<path d="M2708.64 583.402C2708.64 583.402 2625.39 550.907 2579.26 579.602C2533.13 608.297 2524.75 654.093 2497.28 654.093C2443.69 654.093 2445.44 616.287 2445.44 616.287L2434.05 619.746C2434.05 627.492 2421.67 683.08 2477.89 689.852C2534.1 696.624 2558.07 619.795 2608.83 619.746C2640.58 620.283 2671.54 629.792 2698.12 647.175L2734.61 624.131L2708.64 583.402Z" fill="#263238"/>
<path d="M2495.13 689.17C2509.49 680.614 2520.74 667.692 2527.23 652.29C2540.19 622.426 2567.96 588.372 2591.15 579.797C2614.33 571.223 2667.97 565.182 2705.04 589.541L2728.76 621.598L2697.97 641.621C2680.66 632.525 2662.46 625.228 2643.66 619.844C2605.37 609.174 2582.08 621.257 2559.82 642.303C2558.46 643.618 2557.14 644.934 2556.07 646.2C2545.31 657.67 2533.51 668.109 2520.8 677.38C2509.75 684.834 2500 689.17 2495.13 689.17Z" fill="#455A64"/>
<path d="M770.69 235.456C721.295 243.105 685.101 201.353 673.556 164.668C662.888 130.565 657.821 95.0495 642.866 62.3594C621.92 17.0514 566.484 -3.89754 516.748 0.292241C467.012 4.48202 416.838 29.5233 372.801 52.9568L384.98 325.78C384.98 325.78 480.798 223.471 526.881 221.815C603.75 218.745 599.561 345.072 674.189 363.731C674.189 363.731 778.825 392.085 849.556 300.738C894.421 242.715 898.269 172.268 898.269 172.268C898.269 172.268 863.878 221.084 770.69 235.456Z" fill="#0AAFF7"/>
<path d="M370.658 7.94104C371.34 7.94104 384.785 297.718 400.665 655.164C416.546 1012.61 428.919 1302.49 428.237 1302.53C427.555 1302.58 414.159 1012.81 398.229 655.262C382.3 297.718 369.976 7.98976 370.658 7.94104Z" fill="#263238"/>
<g opacity="0.2">
<path d="M634.293 145.765C642.662 174.592 654.886 202.156 670.633 227.71C684.857 249.974 706.437 268.73 732.304 274.138C737.039 274.776 741.682 275.97 746.138 277.695C748.36 278.599 750.297 280.085 751.746 281.997C753.194 283.908 754.101 286.175 754.371 288.559C754.371 295.72 747.21 300.397 740.78 303.564C731.848 308.465 722.295 312.136 712.38 314.477C702.637 316.328 694.551 317.4 687.683 309.605C681.038 303.091 675.065 295.926 669.854 288.218C647.299 249.779 636.144 194.825 634.293 151.368" fill="black"/>
</g>
<path d="M701.274 321.005C701.274 321.005 700.494 320.664 699.081 319.739C697.037 318.405 695.069 316.957 693.187 315.403C686.25 309.662 680.121 303.008 674.968 295.623C667.338 284.661 661.195 272.734 656.701 260.156C651.237 244.812 646.73 229.143 643.208 213.24C636.516 184.421 632.295 155.084 630.591 125.547C629.958 114.244 629.86 105.085 629.86 98.7521C629.86 95.7802 629.86 93.393 629.86 91.4443C629.777 90.6019 629.777 89.7534 629.86 88.9109C630.08 89.7368 630.178 90.5902 630.152 91.4443C630.152 93.393 630.152 95.7802 630.445 98.7033C630.737 105.037 631.078 114.196 631.955 125.45C634.168 154.811 638.597 183.962 645.205 212.656C648.78 228.476 653.269 244.076 658.65 259.376C663.065 271.797 669.022 283.615 676.381 294.551C681.332 301.916 687.173 308.641 693.772 314.574C698.497 318.91 701.42 320.859 701.274 321.005Z" fill="#263238"/>
<path d="M72.8259 1360.12L725.435 1466.96V1360.12H72.8259Z" fill="#E0E0E0"/>
<path d="M833.188 1601.52L1485.8 1708.36V1601.52H833.188Z" fill="#E0E0E0"/>
<path d="M1588.29 1832.4L2240.9 1939.23V1832.4H1588.29Z" fill="#E0E0E0"/>
<path d="M2342.42 2016.11L2995.03 2123V2016.11H2342.42Z" fill="#E0E0E0"/>
<path d="M725.435 1280.07H72.8259V1360.12H725.435V1280.07Z" fill="#0AAFF7"/>
<g opacity="0.3">
<path d="M725.484 1280.07H521.814V1360.12H725.484V1280.07Z" fill="black"/>
</g>
<path d="M1485.8 1521.47H833.188V1601.52H1485.8V1521.47Z" fill="#0AAFF7"/>
<g opacity="0.3">
<path d="M1485.8 1521.47H1282.13V1601.52H1485.8V1521.47Z" fill="black"/>
</g>
<path d="M2240.9 1752.35H1588.29V1832.4H2240.9V1752.35Z" fill="#0AAFF7"/>
<g opacity="0.3">
<path d="M2240.95 1752.35H2037.28V1832.4H2240.95V1752.35Z" fill="black"/>
</g>
<path d="M2996 1936.12H2343.39V2016.16H2996V1936.12Z" fill="#0AAFF7"/>
<g opacity="0.3">
<path d="M2996.05 1936.12H2792.38V2016.16H2996.05V1936.12Z" fill="black"/>
</g>
<path d="M2593.82 1644.83C2593.83 1648.33 2594.88 1651.76 2596.84 1654.67C2598.79 1657.58 2601.56 1659.84 2604.8 1661.18C2608.05 1662.51 2611.61 1662.86 2615.05 1662.17C2618.48 1661.48 2621.64 1659.78 2624.11 1657.3C2626.59 1654.82 2628.27 1651.66 2628.95 1648.22C2629.63 1644.78 2629.28 1641.22 2627.93 1637.98C2626.59 1634.75 2624.32 1631.98 2621.4 1630.03C2618.49 1628.09 2615.06 1627.05 2611.56 1627.05C2609.22 1627.05 2606.91 1627.51 2604.76 1628.4C2602.6 1629.3 2600.65 1630.61 2599 1632.26C2597.35 1633.91 2596.05 1635.87 2595.16 1638.03C2594.27 1640.19 2593.82 1642.5 2593.82 1644.83Z" fill="#EBEBEB"/>
</g>
<defs>
<clipPath id="clip0_2_2">
<rect width="2996" height="2123" fill="white"/>
</clipPath>
</defs>
</svg>
