<svg width="2920" height="2920" viewBox="0 0 2920 2920" fill="none" xmlns="http://www.w3.org/2000/svg">
<path d="M2920 0H0V2920H2920V0Z" fill="white"/>
<path d="M2410.38 2266.98C2365.52 2314.2 2323.11 2344.63 2289.58 2368.68C1895.53 2651.42 1429.26 2569 1330.16 2548.88C1183.83 2519.15 900.971 2461.7 696.468 2221.22C387.082 1857.37 435.258 1284.15 675.218 905.761C719.12 836.547 950.996 452.414 1422.29 390.787C1707.51 353.504 2039.98 428.699 2280.75 630.416C2786.18 1053.84 2750.2 1909.27 2410.38 2266.98Z" fill="#EBFAFF"/>
<path d="M2027.65 2057.65C2357.85 1727.45 2357.85 1192.08 2027.65 861.882C1697.44 531.681 1162.08 531.681 831.882 861.882C501.681 1192.08 501.681 1727.45 831.882 2057.65C1162.08 2387.85 1697.44 2387.85 2027.65 2057.65Z" fill="#1BB0F0"/>
<path d="M1429.77 2181.39C1828.31 2181.39 2151.39 1858.31 2151.39 1459.77C2151.39 1061.22 1828.31 738.141 1429.77 738.141C1031.22 738.141 708.141 1061.22 708.141 1459.77C708.141 1858.31 1031.22 2181.39 1429.77 2181.39Z" fill="#0AAFF7"/>
<path d="M1429.76 2217.54C1011.93 2217.54 671.991 1877.61 671.991 1459.77C671.991 1041.92 1011.93 701.999 1429.76 701.999C1847.59 701.999 2187.53 1041.93 2187.53 1459.77C2187.53 1877.6 1847.59 2217.54 1429.76 2217.54ZM1429.76 738.141C1031.85 738.141 708.14 1061.86 708.14 1459.77C708.14 1857.67 1031.85 2181.4 1429.76 2181.4C1827.67 2181.4 2151.38 1857.68 2151.38 1459.77C2151.38 1061.85 1827.67 738.117 1429.76 738.117V738.141Z" fill="white"/>
<path d="M1740.85 1770.85C1912.65 1599.04 1912.65 1320.49 1740.85 1148.68C1569.04 976.877 1290.49 976.877 1118.68 1148.68C946.877 1320.49 946.877 1599.04 1118.68 1770.85C1290.49 1942.65 1569.04 1942.65 1740.85 1770.85Z" fill="#0AAFF7"/>
<path d="M1429.76 1935.85C1167.25 1935.85 953.68 1722.28 953.68 1459.77C953.68 1197.25 1167.25 983.681 1429.76 983.681C1692.27 983.681 1905.84 1197.25 1905.84 1459.76C1905.84 1722.27 1692.27 1935.85 1429.76 1935.85ZM1429.76 1055.97C1207.11 1055.97 1026 1237.11 1026 1459.74C1026 1682.36 1207.14 1863.54 1429.76 1863.54C1652.38 1863.54 1833.56 1682.39 1833.56 1459.77C1833.56 1237.15 1652.42 1055.97 1429.76 1055.97Z" fill="white"/>
<path d="M1550.29 1580.29C1616.85 1513.72 1616.85 1405.8 1550.29 1339.24C1483.72 1272.68 1375.8 1272.68 1309.24 1339.24C1242.68 1405.8 1242.68 1513.72 1309.24 1580.29C1375.8 1646.85 1483.72 1646.85 1550.29 1580.29Z" fill="url(#paint0_linear_5_449)"/>
<path d="M1429.76 1666.36C1315.85 1666.36 1223.17 1573.69 1223.17 1459.77C1223.17 1345.85 1315.85 1253.18 1429.76 1253.18C1543.67 1253.18 1636.35 1345.86 1636.35 1459.77C1636.35 1573.68 1543.68 1666.36 1429.76 1666.36ZM1429.76 1325.46C1355.7 1325.46 1295.46 1385.71 1295.46 1459.77C1295.46 1533.82 1355.7 1594.07 1429.76 1594.07C1503.81 1594.07 1564.06 1533.83 1564.06 1459.77C1564.06 1385.7 1503.81 1325.46 1429.76 1325.46Z" fill="white"/>
<path d="M1556.76 1334.97L1574.71 1352.93L2254.53 673.104L2236.58 655.15L1556.76 1334.97Z" fill="url(#paint1_linear_5_449)"/>
<path d="M1569.44 1291.67C1579.74 1281.37 1628.29 1329.93 1617.99 1340.22L1437.88 1481.8C1431.23 1487.03 1422.61 1478.41 1427.84 1471.75L1569.44 1291.67Z" fill="url(#paint2_linear_5_449)"/>
<path d="M2254.11 673.507L2345.57 682.59L2220.02 808.166C2199.7 828.474 2175.13 844.02 2148.08 853.683C2121.04 863.347 2092.18 866.887 2063.59 864.047L2254.11 673.507Z" fill="#91B3FA"/>
<path d="M2236.16 655.554L2227.07 564.09L2101.52 689.65C2081.2 709.966 2065.66 734.537 2055.99 761.591C2046.33 788.645 2042.79 817.507 2045.63 846.094L2236.16 655.554Z" fill="#91B3FA"/>
<path d="M763.03 2513.91C763.03 2513.91 758.481 2538.31 756.136 2562.48C755.925 2564.72 756.169 2566.98 756.853 2569.12C757.538 2571.26 758.649 2573.24 760.12 2574.94C761.591 2576.65 763.39 2578.03 765.411 2579.02C767.431 2580.01 769.631 2580.58 771.877 2580.69C804.083 2582.34 872.967 2585.6 897.704 2584.74C898.568 2584.7 899.411 2584.47 900.164 2584.04C900.916 2583.62 901.556 2583.02 902.031 2582.3C902.505 2581.57 902.8 2580.75 902.891 2579.89C902.982 2579.03 902.866 2578.16 902.553 2577.36C901.424 2574.45 899.221 2572.08 896.398 2570.75L783.061 2517.35L763.03 2513.91Z" fill="url(#paint3_linear_5_449)"/>
<path d="M759.63 2499.51L762.825 2528.79C762.825 2528.79 782.675 2538.23 796.394 2527.94L788.444 2495.28L759.63 2499.51Z" fill="url(#paint4_linear_5_449)"/>
<path d="M767.485 1949.97C765.911 1957.59 755.805 2330.84 794.119 2498.55C794.431 2499.88 794.259 2501.26 793.635 2502.47C793.012 2503.68 791.977 2504.62 790.719 2505.13C780.298 2509.05 769.289 2511.18 758.158 2511.42C755.995 2511.47 753.877 2510.81 752.133 2509.52C750.39 2508.24 749.121 2506.42 748.525 2504.34C737.506 2465.41 684.686 2270.42 679.326 2084.58C673.345 1876.92 679.397 2077.5 679.397 2077.5L685.292 1949.21L767.485 1949.97Z" fill="url(#paint5_linear_5_449)"/>
<path d="M631.969 2525.41C631.969 2525.41 624.979 2537.69 618.014 2570.41C617.712 2571.8 617.706 2573.24 617.997 2574.63C618.287 2576.03 618.868 2577.35 619.7 2578.5C620.533 2579.66 621.599 2580.63 622.83 2581.34C624.061 2582.06 625.429 2582.51 626.845 2582.67C637.478 2583.82 653.841 2585.32 666.985 2585.35C668.413 2585.36 669.827 2585.07 671.134 2584.49C672.441 2583.92 673.612 2583.07 674.571 2582.02C675.529 2580.96 676.253 2579.71 676.696 2578.35C677.138 2576.99 677.289 2575.56 677.138 2574.14C675.792 2562.16 671.455 2542.48 657.619 2527.05L631.969 2525.41Z" fill="url(#paint6_linear_5_449)"/>
<path d="M626.294 2487.76L633.976 2532.04C633.976 2532.04 641.933 2538.07 657.824 2533.91L654.408 2486.31L626.294 2487.76Z" fill="url(#paint7_linear_5_449)"/>
<path d="M609.435 1959.92C574.915 2156.57 611.867 2446.8 624.72 2503.65C625.101 2505.36 625.976 2506.91 627.236 2508.12C628.497 2509.32 630.086 2510.13 631.804 2510.44C637.769 2511.49 647.608 2512.39 657.336 2509.65C658.972 2509.19 660.422 2508.23 661.481 2506.9C662.541 2505.57 663.155 2503.94 663.239 2502.25C665.474 2456.4 664.923 2174.83 696.398 2063.85C697.988 2058.23 701.479 2053.34 706.275 2050L765.699 2008.6L770.87 1940.82L609.435 1959.92Z" fill="url(#paint8_linear_5_449)"/>
<path d="M820.95 1588.7C723.165 1586.15 614.984 1612.42 614.984 1612.42C584.21 1782.25 606.397 1978.68 606.397 1978.68C681.955 1999.27 767.642 1968.08 767.642 1968.08C780.904 1897.11 841.532 1697.56 841.532 1697.56C889.377 1692.05 928.895 1678.67 961.464 1660.76C937.01 1631.86 925.7 1595.27 920.844 1573.66C886.15 1584.08 851.11 1589.49 820.95 1588.7Z" fill="url(#paint9_linear_5_449)"/>
<path d="M1111.25 1447.39C1101.75 1435.7 1089.54 1441.1 1089.54 1441.1C1074.58 1501.76 998.629 1550.33 920.868 1573.69C925.724 1595.3 937.034 1631.88 961.488 1660.78C1090.83 1589.64 1111.25 1447.39 1111.25 1447.39Z" fill="url(#paint10_linear_5_449)"/>
<path d="M1108.89 1450.32C1109.86 1453.53 1098.18 1458.29 1091.44 1445.15C1091.27 1438.85 1087.71 1412.01 1091.5 1406.94C1111.7 1379.95 1150.67 1346.25 1150.67 1346.25C1157.15 1352.76 1151.7 1359.04 1151.7 1359.04L1132.77 1378.39C1136.62 1385.48 1141.35 1391.54 1143.51 1400.14C1145.09 1406.7 1144.08 1413.61 1140.7 1419.45C1137.36 1425.35 1132.79 1433.01 1128.49 1439C1120.32 1450.35 1108.89 1450.32 1108.89 1450.32Z" fill="url(#paint11_linear_5_449)"/>
<path d="M1124.43 1390.99L1107.2 1405.31L1101.69 1419.68L1116.76 1436.73C1116.76 1436.73 1122.16 1408.16 1126.02 1402C1129.89 1395.85 1127.95 1392.83 1124.43 1390.99Z" fill="url(#paint12_linear_5_449)"/>
<path d="M651.606 1707.48L614.992 1612.42C614.992 1612.42 523.047 1673.62 507.274 1752.18C524.519 1753.61 555.891 1758.4 586.484 1774.21C593.592 1737.12 651.606 1707.48 651.606 1707.48Z" fill="url(#paint13_linear_5_449)"/>
<path d="M730.58 1797.35C730.58 1797.35 627.474 1854.34 593.324 1804.52C586.24 1794.17 584.619 1783.94 586.476 1774.21C555.883 1758.4 524.511 1753.61 507.266 1752.18C502.544 1775.86 504.661 1801.12 518.364 1826.75C577.929 1938.22 743.912 1822.81 743.912 1822.81L730.58 1797.35Z" fill="url(#paint14_linear_5_449)"/>
<path d="M722.638 1508.35L690.66 1598.08C690.397 1598.8 690.398 1599.59 690.661 1600.31C690.925 1601.03 691.435 1601.63 692.1 1602.01C700.546 1606.78 730.973 1620.63 768.028 1597.63C769.94 1596.46 771.571 1594.88 772.805 1593C774.039 1591.13 774.845 1589.01 775.167 1586.79L785.981 1509L722.638 1508.35Z" fill="url(#paint15_linear_5_449)"/>
<path d="M791.152 1425.66C791.152 1425.66 824.712 1490.31 820.076 1516.25C815.441 1542.2 773.12 1539.93 736.333 1518.47L711.147 1448.76L791.152 1425.66Z" fill="url(#paint16_linear_5_449)"/>
<path d="M738.293 1484.38C738.648 1484.23 738.966 1484 739.225 1483.71C739.483 1483.43 739.676 1483.09 739.79 1482.72C739.904 1482.35 739.936 1481.96 739.884 1481.58C739.832 1481.2 739.697 1480.83 739.489 1480.51C736.79 1476.29 731.745 1467.72 730.178 1460.23C730.178 1460.23 724.071 1456.24 745.92 1451.23C767.768 1446.23 800.306 1438.44 807.31 1419.97C814.134 1401.96 797.079 1356.34 768.839 1392.29C768.591 1392.61 768.273 1392.87 767.908 1393.05C767.544 1393.23 767.143 1393.33 766.737 1393.33C766.331 1393.33 765.931 1393.23 765.566 1393.05C765.202 1392.87 764.884 1392.61 764.636 1392.29C760.118 1386.29 748.21 1373.82 731.446 1381.15C715.759 1388.02 713.886 1399.45 714.051 1405.22C714.064 1405.61 713.986 1406.01 713.825 1406.37C713.664 1406.73 713.423 1407.05 713.121 1407.31C712.818 1407.56 712.462 1407.75 712.078 1407.85C711.694 1407.95 711.292 1407.96 710.903 1407.88C703.033 1406.31 684.072 1404.83 675.037 1424.19C667.599 1440.14 672.251 1449.25 676.524 1453.72C676.841 1454.05 677.067 1454.45 677.181 1454.9C677.294 1455.34 677.292 1455.8 677.174 1456.24C677.056 1456.68 676.826 1457.08 676.507 1457.41C676.188 1457.73 675.79 1457.97 675.352 1458.1C670.141 1459.67 663.396 1463.98 663.955 1476.15C664.742 1492.97 683.529 1491.67 688.889 1490.95C689.323 1490.89 689.765 1490.93 690.177 1491.08C690.589 1491.23 690.957 1491.48 691.25 1491.81C695.792 1496.93 716.263 1518.69 738.616 1521.5C739.062 1521.55 739.514 1521.49 739.93 1521.32C740.346 1521.15 740.712 1520.88 740.995 1520.53C741.279 1520.18 741.469 1519.77 741.55 1519.32C741.631 1518.88 741.599 1518.43 741.457 1518L732.012 1489.75C731.8 1489.12 731.833 1488.43 732.106 1487.82C732.379 1487.21 732.871 1486.73 733.484 1486.46L738.293 1484.38Z" fill="url(#paint17_linear_5_449)"/>
<path d="M742.118 1488.41C742.118 1488.41 717.947 1471.49 716.035 1485.53C714.122 1499.57 737.75 1506.1 749.532 1500.97L742.118 1488.41Z" fill="url(#paint18_linear_5_449)"/>
<path d="M709.502 1887.42L765.683 1691.25C765.991 1690.16 766.615 1689.19 767.475 1688.46C768.335 1687.73 769.393 1687.26 770.515 1687.13C780.7 1685.94 810.191 1682.61 844.239 1679.73C885.253 1676.26 932.886 1673.43 961.346 1675.84C962.284 1675.91 963.19 1676.21 963.985 1676.71C964.78 1677.21 965.44 1677.9 965.907 1678.71C966.373 1679.53 966.632 1680.45 966.66 1681.39C966.688 1682.33 966.485 1683.26 966.069 1684.1C949.887 1716.84 883.309 1850.05 849.969 1893.68C849.428 1894.4 848.726 1894.97 847.921 1895.37C847.116 1895.76 846.23 1895.97 845.334 1895.96L715.004 1894.74C714.116 1894.74 713.241 1894.53 712.448 1894.13C711.654 1893.73 710.964 1893.16 710.431 1892.45C709.898 1891.74 709.537 1890.91 709.376 1890.04C709.215 1889.17 709.258 1888.27 709.502 1887.42Z" fill="url(#paint19_linear_5_449)"/>
<path d="M723.079 1840C723.079 1840 715.256 1807.83 718.412 1796.42C721.568 1785 727.683 1770.32 748.068 1773.59C768.453 1776.87 792.498 1785.4 792.498 1785.4C792.498 1785.4 791.286 1800.27 775.789 1795.47L785.399 1802.9C785.399 1802.9 784.021 1814.81 770.94 1808.41L779.897 1818.36C779.897 1818.36 774.277 1828.13 764.652 1821.86C755.026 1815.59 750.382 1843.89 723.079 1840Z" fill="url(#paint20_linear_5_449)"/>
<path d="M840.501 1738.28C840.501 1741.55 841.47 1744.75 843.286 1747.47C845.103 1750.18 847.684 1752.3 850.704 1753.55C853.724 1754.81 857.048 1755.13 860.254 1754.49C863.46 1753.86 866.405 1752.28 868.717 1749.97C871.028 1747.66 872.602 1744.71 873.24 1741.51C873.878 1738.3 873.55 1734.98 872.299 1731.96C871.048 1728.94 868.93 1726.36 866.212 1724.54C863.494 1722.73 860.298 1721.76 857.029 1721.76C852.646 1721.76 848.442 1723.5 845.342 1726.6C842.242 1729.7 840.501 1733.9 840.501 1738.28Z" fill="#91B3FA"/>
<path d="M772.026 1749.15L783.462 1710.36C784.127 1708.04 785.408 1705.95 787.168 1704.31C788.929 1702.66 791.102 1701.52 793.458 1701.02C829.308 1693.54 927.424 1691.96 928.407 1691.94L928.344 1687.56C924.299 1687.62 828.82 1689.13 792.568 1696.73C789.437 1697.4 786.546 1698.9 784.203 1701.08C781.859 1703.26 780.151 1706.04 779.259 1709.12L767.831 1747.92L772.026 1749.15Z" fill="#BDD0FB"/>
<path d="M2232.03 1457.41C2232.37 1456.75 2232.91 1456.2 2233.56 1455.85C2234.22 1455.5 2234.97 1455.36 2235.71 1455.43C2236.45 1455.51 2237.15 1455.81 2237.72 1456.3C2238.29 1456.78 2238.7 1457.42 2238.9 1458.14C2242.23 1470.13 2250.29 1491.05 2267.23 1498.48C2268.08 1498.86 2268.89 1499.27 2269.67 1499.62C2270.13 1498.33 2270.27 1496.95 2270.08 1495.59C2269.9 1494.24 2269.39 1492.95 2268.61 1491.83C2263.35 1483.8 2272.85 1472.82 2272.85 1472.82C2272.85 1472.82 2273.47 1482.49 2280.82 1488.56C2287.12 1493.81 2290.2 1505.47 2285.87 1515.05C2276.72 1550.62 2263.04 1597.65 2316.41 1632.02C2369.79 1666.39 2445.04 1567.16 2445.04 1567.16L2407.71 1685.51C2407.71 1685.51 2350.09 1728.01 2283.06 1668.24C2216.03 1608.47 2260.46 1521.44 2260.46 1521.44C2260.46 1521.44 2209.3 1500.84 2232.03 1457.41Z" fill="url(#paint21_linear_5_449)"/>
<path d="M2454.35 1393.29C2454.35 1393.29 2438.87 1323.88 2518.38 1342.25C2518.38 1342.25 2556.95 1335.95 2558.94 1372.37C2558.94 1372.37 2583.82 1388.77 2565.6 1420.3C2565.6 1420.3 2639.54 1391.73 2671.75 1456.5C2703.96 1521.27 2674.35 1556.96 2643.31 1566.25C2643.31 1566.25 2668.5 1578.84 2656.55 1607.39C2644.6 1635.93 2584.36 1656 2548.72 1621.33C2548.72 1621.33 2447.39 1634.71 2449.42 1563.14C2449.42 1563.14 2402.28 1532.7 2451.78 1473.56C2501.28 1414.41 2454.35 1393.29 2454.35 1393.29Z" fill="url(#paint22_linear_5_449)"/>
<path d="M2449.98 1554.17C2465.96 1549.39 2512.48 1540.54 2556.73 1581.38C2560.41 1584.77 2563.09 1589.12 2564.48 1593.93C2565.87 1598.75 2565.91 1603.85 2564.6 1608.69C2552.71 1652.44 2521.36 1781.71 2548.86 1837.64C2548.86 1837.64 2500.41 1891.05 2447.55 1848C2447.55 1848 2423.83 1744.64 2392.77 1699.25C2371.32 1667.91 2426.97 1581.6 2441.05 1560.72C2443.18 1557.58 2446.34 1555.26 2449.98 1554.17Z" fill="url(#paint23_linear_5_449)"/>
<path d="M2494.12 1467.25C2494.12 1467.25 2517.73 1534.09 2519.52 1563.57C2519.52 1563.57 2493.41 1575.45 2468.81 1555.4C2468.81 1555.4 2466.22 1488.64 2462.51 1476.7L2494.12 1467.25Z" fill="url(#paint24_linear_5_449)"/>
<path d="M2461.27 1376.13C2461.27 1376.13 2399.47 1462.61 2436.42 1487.73C2473.36 1512.85 2517.35 1451.39 2517.35 1451.39C2517.35 1451.39 2531.69 1404.05 2516.7 1387.99C2501.7 1371.94 2461.27 1376.13 2461.27 1376.13Z" fill="url(#paint25_linear_5_449)"/>
<path d="M2489.88 1355.45C2489.88 1355.45 2461.49 1362.18 2457.51 1375.02C2453.54 1387.87 2497.77 1399.78 2510.17 1400.37L2520.15 1452.2C2520.15 1452.2 2549.68 1403.41 2537.99 1375.28C2526.29 1347.15 2489.88 1355.45 2489.88 1355.45Z" fill="url(#paint26_linear_5_449)"/>
<path d="M2505.37 1445.02C2505.37 1445.02 2529.43 1417.17 2539 1435.33C2548.57 1453.49 2517.34 1467.13 2506.54 1458.21L2505.37 1445.02Z" fill="url(#paint27_linear_5_449)"/>
<path d="M2385.86 2065.02C2386.04 2069.75 2377.8 2106.94 2373.31 2126.79C2371.51 2134.78 2372.77 2143.15 2376.84 2150.25L2532.12 2411.6C2533.99 2414.76 2535.37 2418.19 2536.19 2421.77C2539.04 2434.03 2544.94 2464.09 2541.86 2491.43L2533.83 2508.12L2568.57 2500.25L2576.13 2406.95L2566.29 2400.95C2557.8 2395.77 2551.18 2388.02 2547.4 2378.82C2533.36 2344.72 2498.49 2257.89 2489.51 2215.58C2479.27 2167.49 2425.89 2128.44 2425.89 2128.44L2435.27 2106.26L2385.86 2065.02Z" fill="url(#paint28_linear_5_449)"/>
<path d="M2607.18 2468.13C2607.18 2468.13 2588.42 2438.38 2586.21 2426.8C2584.01 2415.21 2577.86 2394.78 2566.29 2400.93C2566.29 2400.93 2560.84 2457.18 2562.72 2479.15C2564.59 2501.13 2537.88 2500.4 2537.88 2500.4C2537.88 2500.4 2530.51 2501.44 2525.12 2506.83C2521.4 2510.56 2524.06 2517.02 2529.32 2517.36C2541.76 2518.22 2554.26 2517.53 2566.53 2515.3C2569.01 2514.82 2571.25 2513.52 2572.91 2511.62C2574.58 2509.72 2575.56 2507.32 2575.71 2504.8L2579.56 2440.07L2603.23 2469.98L2607.18 2468.13Z" fill="url(#paint29_linear_5_449)"/>
<path d="M2478.62 2106.65C2478.62 2106.65 2484.13 2340.41 2484.84 2373.63C2485.55 2406.85 2479.6 2480.41 2446.31 2502.41L2460.79 2513.13C2460.79 2513.13 2478.9 2497.74 2496.58 2468.14C2516.44 2434.88 2522.45 2428.79 2522.45 2428.79L2515.86 2415.29C2512.97 2409.39 2512.12 2402.69 2513.45 2396.25C2520.63 2361.44 2544.63 2245.65 2551.17 2220.74C2558.9 2191.3 2559.45 2152 2532.57 2119.1C2505.7 2086.2 2478.62 2106.65 2478.62 2106.65Z" fill="url(#paint30_linear_5_449)"/>
<path d="M2509.36 2523.67C2509.85 2523.68 2510.34 2523.5 2510.71 2523.18C2511.09 2522.86 2511.34 2522.41 2511.41 2521.91C2512.52 2514.12 2517.13 2482.88 2520.9 2474.79C2525.22 2465.52 2539.34 2426.52 2520.9 2423.21C2520.9 2423.21 2475.04 2490.22 2466.23 2499.26C2457.43 2508.29 2446.32 2502.4 2446.32 2502.4C2440.38 2504.5 2435.16 2508.25 2431.27 2513.2C2430.59 2514.1 2430.17 2515.17 2430.06 2516.29C2429.95 2517.42 2430.15 2518.55 2430.65 2519.56C2431.14 2520.57 2431.91 2521.43 2432.87 2522.03C2433.82 2522.63 2434.93 2522.95 2436.06 2522.96L2466.95 2523.25C2471.33 2523.29 2475.62 2522 2479.26 2519.56C2482.89 2517.11 2485.71 2513.63 2487.33 2509.56C2492.76 2495.98 2502.11 2476.05 2512.99 2467.22L2507.33 2521.39C2507.3 2521.67 2507.34 2521.96 2507.42 2522.23C2507.51 2522.51 2507.66 2522.76 2507.85 2522.97C2508.04 2523.18 2508.27 2523.36 2508.53 2523.48C2508.79 2523.59 2509.08 2523.66 2509.36 2523.66L2509.36 2523.67Z" fill="url(#paint31_linear_5_449)"/>
<path d="M2440.25 1822.8C2440.25 1822.8 2447.21 1844.99 2436.52 1881.53L2370.17 2113.21C2369.67 2114.96 2369.85 2116.84 2370.69 2118.46C2371.52 2120.08 2372.94 2121.33 2374.66 2121.94C2394.51 2129.06 2459.74 2149.19 2548.79 2143.05C2550.98 2142.91 2553.05 2142.07 2554.71 2140.65C2556.37 2139.23 2557.53 2137.31 2558.01 2135.18C2563.88 2108.77 2583.9 2018.66 2588.02 2000.14C2603.76 1929.59 2621.27 1853.5 2544.11 1807.49C2508.56 1822.69 2475.39 1831.7 2440.25 1822.8Z" fill="url(#paint32_linear_5_449)"/>
<path d="M2563.06 1590.11C2563.06 1590.11 2638.54 1652.84 2657.28 1738.56C2676.01 1824.28 2546.97 1833.39 2546.97 1833.39C2546.97 1833.39 2529.46 1813.83 2508.65 1820.8C2487.85 1827.77 2507.08 1786.66 2531.38 1786.77C2555.67 1786.87 2544.44 1806.12 2578.86 1790.53C2612.39 1775.34 2633.12 1728.35 2547.57 1657.16C2542.58 1653.05 2538.69 1647.76 2536.27 1641.77C2519.65 1599.95 2532.83 1572.52 2563.06 1590.11Z" fill="url(#paint33_linear_5_449)"/>
<path d="M2090.7 2230.58H2063.78V2521.76H2090.7V2230.58Z" fill="#7D97F4"/>
<path d="M2195.15 2527.37H1959.33V2511.79C1959.33 2511.54 1959.38 2511.28 1959.48 2511.05C1959.58 2510.81 1959.72 2510.59 1959.9 2510.41C1960.08 2510.23 1960.29 2510.09 1960.53 2509.99C1960.77 2509.89 1961.02 2509.84 1961.28 2509.84H2193.21C2193.46 2509.84 2193.72 2509.89 2193.95 2509.99C2194.19 2510.09 2194.41 2510.23 2194.59 2510.41C2194.77 2510.59 2194.91 2510.81 2195.01 2511.05C2195.1 2511.28 2195.15 2511.54 2195.15 2511.79V2527.37Z" fill="#7D97F4"/>
<path d="M2208.98 2161.24H1955.41C1938.42 2161.24 1924.64 2175.02 1924.64 2192.02V2219.84C1924.64 2236.84 1938.42 2250.61 1955.41 2250.61H2208.98C2225.98 2250.61 2239.76 2236.84 2239.76 2219.84V2192.02C2239.76 2175.02 2225.98 2161.24 2208.98 2161.24Z" fill="#7D97F4"/>
<path d="M1838.56 2433.33C1838.56 2433.33 1751.52 2470.82 1756.51 2510.06C1756.51 2510.06 1846.48 2492.8 1862.59 2467.08C1878.69 2441.36 1869.81 2426.47 1869.81 2426.47L1838.56 2433.33Z" fill="url(#paint34_linear_5_449)"/>
<path d="M1859.88 2390.48L1864.3 2428.68C1864.66 2431.48 1864.06 2434.32 1862.61 2436.75C1861.16 2439.17 1858.94 2441.04 1856.31 2442.06C1852.76 2443.24 1849.03 2443.81 1845.29 2443.74C1842.06 2443.77 1838.91 2442.74 1836.32 2440.8C1833.74 2438.86 1831.86 2436.13 1830.99 2433.02L1822.42 2402.12L1859.88 2390.48Z" fill="url(#paint35_linear_5_449)"/>
<path d="M2050.03 2097.52C2050.03 2097.52 1889.94 2090.11 1810.27 2136.57C1730.6 2183.03 1814.31 2406.01 1814.31 2406.01C1814.31 2406.01 1835.12 2410.48 1865.08 2394.47C1865.08 2394.47 1822.32 2231.24 1896.56 2202.84C1980.07 2170.92 2066.45 2178.68 2066.45 2178.68L2050.44 2102.56L2050.03 2097.52Z" fill="url(#paint36_linear_5_449)"/>
<path d="M1774 2492.84C1792.2 2488.85 1846.18 2466.48 1854.39 2466.78C1862.59 2467.08 1874.2 2479.37 1874.2 2479.37C1874.2 2479.37 1876.2 2486.09 1870.34 2495.73C1856.43 2506.58 1826.47 2526.5 1791.63 2528.68C1766.01 2530.25 1750.6 2520.08 1741.77 2510.2C1749.49 2502.71 1761.87 2495.49 1774 2492.84Z" fill="url(#paint37_linear_5_449)"/>
<path d="M1791.63 2528.68C1826.47 2526.5 1856.43 2506.59 1870.33 2495.74C1866.4 2502.25 1858.82 2510.1 1844.63 2518.13C1809.42 2538.02 1751.23 2535.11 1739.7 2530.64C1730.46 2527.05 1733.31 2518.42 1741.76 2510.17C1750.59 2520.07 1766.01 2530.26 1791.63 2528.68Z" fill="#0AAFF7"/>
<path d="M1893.31 2459.37C1892.13 2463.88 1879.38 2477.42 1872 2484.97C1870.28 2486.74 1868.14 2488.04 1865.78 2488.75C1863.42 2489.46 1860.92 2489.56 1858.51 2489.03C1855.15 2488.35 1851.91 2487.21 1848.86 2485.64C1846.69 2484.42 1845.08 2482.39 1844.4 2479.99C1843.72 2477.59 1844.01 2475.02 1845.22 2472.83L1863.86 2438.93L1893.31 2459.37Z" fill="url(#paint38_linear_5_449)"/>
<path d="M2208.71 2084.1C2208.71 2084.1 2222.68 2183.27 2182.27 2203.5C2141.86 2223.74 2053.24 2237.03 2022.72 2288.45C1992.19 2339.87 1937.36 2440.8 1887.47 2469.8C1887.47 2469.8 1858.97 2460.53 1850.65 2446.51C1850.65 2446.51 1909.87 2290.83 1934.57 2253C1955.97 2220.23 1987.26 2173.02 2031.7 2152.6C2044.43 2146.75 2045.42 2133.26 2043.19 2119.43L2039.11 2094.25L2208.71 2084.1Z" fill="url(#paint39_linear_5_449)"/>
<path d="M1834.21 1971.7C1890.87 1987.88 1916.21 1828.46 1915.98 1824.57L2002.83 1926.1C2002.83 1926.1 1951.08 2017.16 1872.97 2026.84C1853.2 2029.3 1836.38 2025.88 1822.27 2019.41C1831.09 2005.13 1835.26 1988.46 1834.21 1971.7Z" fill="url(#paint40_linear_5_449)"/>
<path d="M1729.3 1919.5C1753.99 1909.35 1774.95 1929.6 1774.95 1929.6C1799.41 1954.64 1818.82 1967.29 1834.22 1971.68C1835.27 1988.45 1831.09 2005.13 1822.26 2019.42C1791.74 2005.44 1773.94 1977.17 1766.61 1963.07C1765.36 1960.62 1763.19 1958.75 1760.58 1957.87C1757.97 1956.99 1755.12 1957.16 1752.63 1958.35C1747.4 1960.87 1742.01 1964.74 1741.67 1969.98C1741 1980.32 1728.7 1980.93 1728.63 1977.11C1728.56 1973.29 1738.16 1952.87 1738.16 1952.87C1738.16 1952.87 1709.83 1971.07 1698.74 1978.05C1687.66 1985.04 1678.28 1973.53 1678.28 1973.53C1678.28 1973.53 1704.61 1929.67 1729.3 1919.5Z" fill="url(#paint41_linear_5_449)"/>
<path d="M2186.88 1758.94C2186.88 1758.94 2110.76 1706.99 1926.9 1800.93C1926.9 1800.93 1907.96 1824.93 1916.83 1851.98C1925.7 1879.03 2034.89 2025.48 2039.11 2094.23C2039.11 2094.23 2113.73 2138.16 2210.6 2094.61C2210.6 2094.64 2243.08 1913.11 2186.88 1758.94Z" fill="url(#paint42_linear_5_449)"/>
<path d="M2028.36 1692.56L2058.44 1751.51C2059.92 1754.38 2060.55 1757.61 2060.24 1760.82C2059.93 1764.03 2058.71 1767.09 2056.71 1769.62C2048.42 1779.99 2031.13 1793.95 2001.61 1784.95C1997.3 1783.64 1993.4 1781.21 1990.31 1777.92C1987.22 1774.63 1985.04 1770.59 1984 1766.2L1968.41 1700.4L2028.36 1692.56Z" fill="url(#paint43_linear_5_449)"/>
<path d="M2243.26 1964.82C2248.41 1928.98 2153.71 1859.52 2153.71 1859.52L2186.88 1758.94C2186.88 1758.94 2367.57 1887.88 2329.57 1993.19C2324.13 2008.29 2316 2019.28 2306.1 2027.08C2286.96 1987.87 2261.01 1971.56 2243.26 1964.82Z" fill="url(#paint44_linear_5_449)"/>
<path d="M2111.15 1974.76C2111.15 1974.76 2218.26 2004.67 2240.49 1972.07C2241.96 1969.9 2242.9 1967.42 2243.26 1964.82C2261.01 1971.56 2286.96 1987.87 2306.1 2027.11C2255.24 2067.12 2157.18 2022.27 2130.53 2008.82C2126.16 2006.61 2121.1 2006.19 2116.42 2007.64C2106.98 2010.6 2090.53 2015.2 2081.37 2014.72C2067.99 2013.98 2053.62 2062.36 2030.85 2050.14C2030.85 2050.08 2041.2 1967.44 2111.15 1974.76Z" fill="url(#paint45_linear_5_449)"/>
<path d="M1989.8 1596.23C1988.84 1597.01 1949.16 1666.36 1928.96 1701.69C1927.51 1704.24 1926.61 1707.06 1926.32 1709.98C1926.04 1712.89 1926.37 1715.83 1927.3 1718.61C1928.23 1721.39 1929.74 1723.94 1931.73 1726.09C1933.72 1728.25 1936.14 1729.95 1938.83 1731.11L1947.58 1734.85C1959.54 1739.98 1985.25 1744.3 1995.37 1736.1L2059.17 1668.76C2059.17 1668.76 2011.26 1577.65 1989.8 1596.23Z" fill="url(#paint46_linear_5_449)"/>
<path d="M2077.14 1650.39C2084.96 1645.99 2094.37 1637.09 2087.05 1621.35C2079.6 1605.35 2064.89 1603.96 2055.42 1604.98C2053.57 1605.16 2051.71 1604.69 2050.17 1603.65C2048.64 1602.6 2047.51 1601.05 2047 1599.27C2046.37 1597.16 2044.82 1595.33 2041.46 1594.78C2040.38 1594.59 2039.37 1594.18 2038.46 1593.57C2037.56 1592.97 2036.8 1592.18 2036.22 1591.26C2035.64 1590.34 2035.26 1589.31 2035.1 1588.23C2034.94 1587.16 2035.01 1586.06 2035.3 1585.01C2037.57 1576.5 2037.18 1564.95 2023.49 1556.68C1999.21 1541.98 1976.51 1563.33 1970.19 1581.86C1963.87 1600.4 1991.11 1614.87 2008.49 1617.82C2021.71 1620.06 2028.17 1635.31 2030.49 1642.48C2030.85 1643.61 2030.96 1644.8 2030.8 1645.97C2030.64 1647.13 2030.21 1648.25 2029.56 1649.24L2010.17 1678.7C2015.5 1685.42 2020.23 1692.51 2024.89 1699.68C2026.63 1697.81 2028.16 1696.24 2029.35 1695.15C2037.77 1687.42 2052.76 1691.41 2058.93 1693.57C2059.93 1693.92 2060.98 1694.05 2062.04 1693.98C2063.09 1693.9 2064.11 1693.61 2065.05 1693.12C2071.76 1689.65 2085.33 1679.9 2074.21 1661.45C2073.66 1660.54 2073.29 1659.52 2073.14 1658.46C2072.98 1657.41 2073.04 1656.33 2073.32 1655.29C2073.59 1654.26 2074.07 1653.29 2074.73 1652.45C2075.38 1651.61 2076.21 1650.9 2077.14 1650.39Z" fill="url(#paint47_linear_5_449)"/>
<path d="M2017.84 1712.3C2017.84 1712.3 2030.24 1680.43 2044.33 1682.21C2058.42 1683.98 2068.97 1698.54 2050.78 1713.64C2028.18 1732.44 2017.84 1712.3 2017.84 1712.3Z" fill="url(#paint48_linear_5_449)"/>
<path d="M1974.37 2042.96H1973.8L1723.55 2042.7C1720.63 2042.62 1717.86 2041.4 1715.82 2039.31C1713.78 2037.22 1712.64 2034.41 1712.64 2031.49C1712.64 2028.57 1713.78 2025.77 1715.82 2023.67C1717.86 2021.58 1720.63 2020.37 1723.55 2020.29L1973.84 2020.56C1976.79 2020.52 1979.64 2021.64 1981.77 2023.69C1983.89 2025.73 1985.13 2028.54 1985.2 2031.49C1985.27 2034.44 1984.18 2037.3 1982.15 2039.44C1980.13 2041.59 1977.34 2042.85 1974.39 2042.96L1974.37 2042.96Z" fill="url(#paint49_linear_5_449)"/>
<path d="M1498.59 1815.75H1707C1714.53 1815.76 1721.91 1817.9 1728.27 1821.93C1734.63 1825.96 1739.71 1831.72 1742.92 1838.53L1839.28 2042.83H1580.28C1575.43 2042.83 1570.7 2041.38 1566.7 2038.65C1562.7 2035.93 1559.61 2032.07 1557.83 2027.56L1483.11 1838.52C1482.12 1835.99 1481.75 1833.26 1482.05 1830.56C1482.35 1827.87 1483.3 1825.28 1484.83 1823.04C1486.36 1820.8 1488.41 1818.96 1490.81 1817.69C1493.21 1816.42 1495.88 1815.76 1498.59 1815.75Z" fill="url(#paint50_linear_5_449)"/>
<path d="M1645.41 1920.5C1649.93 1934.53 1646.59 1948.16 1637.97 1950.94C1629.34 1953.72 1618.68 1944.6 1614.16 1930.56C1609.64 1916.53 1612.98 1902.91 1621.61 1900.13C1630.25 1897.35 1640.94 1906.47 1645.41 1920.5Z" fill="#91B3FA"/>
<path d="M1532.38 2579.69C1530.95 2579.69 1529.54 2579.41 1528.23 2578.86C1526.97 2578.36 1525.83 2577.62 1524.87 2576.67C1523.91 2575.72 1523.14 2574.59 1522.63 2573.34C1522.12 2572.09 1521.86 2570.75 1521.87 2569.4C1521.89 2568.05 1522.18 2566.72 1522.72 2565.48L1743.26 2069.13C1744.42 2066.62 1746.52 2064.66 1749.09 2063.67C1751.67 2062.67 1754.54 2062.72 1757.08 2063.8C1758.34 2064.29 1759.48 2065.04 1760.44 2065.99C1761.4 2066.94 1762.16 2068.07 1762.68 2069.32C1763.19 2070.57 1763.45 2071.91 1763.43 2073.26C1763.42 2074.61 1763.13 2075.94 1762.59 2077.18L1542.04 2573.55C1541.19 2575.39 1539.83 2576.96 1538.12 2578.05C1536.4 2579.14 1534.41 2579.71 1532.38 2579.69Z" fill="#91B3FA"/>
<path d="M1780.84 2579.69C1778.8 2579.71 1776.81 2579.14 1775.09 2578.04C1773.37 2576.95 1772.01 2575.38 1771.17 2573.53L1550.62 2077.17C1550.08 2075.93 1549.79 2074.6 1549.78 2073.25C1549.77 2071.9 1550.02 2070.56 1550.54 2069.31C1551.05 2068.06 1551.81 2066.93 1552.77 2065.98C1553.73 2065.03 1554.87 2064.29 1556.13 2063.79C1558.67 2062.71 1561.53 2062.67 1564.11 2063.66C1566.69 2064.66 1568.78 2066.61 1569.94 2069.12L1790.48 2565.49C1791.02 2566.72 1791.31 2568.06 1791.32 2569.41C1791.34 2570.76 1791.08 2572.1 1790.57 2573.34C1790.05 2574.59 1789.29 2575.72 1788.33 2576.67C1787.37 2577.62 1786.23 2578.37 1784.98 2578.87C1783.66 2579.41 1782.26 2579.69 1780.84 2579.69Z" fill="#91B3FA"/>
<path d="M2215.06 2579.69C2213.64 2579.69 2212.23 2579.41 2210.91 2578.86C2209.65 2578.36 2208.51 2577.62 2207.55 2576.67C2206.59 2575.72 2205.83 2574.59 2205.32 2573.34C2204.8 2572.09 2204.54 2570.75 2204.56 2569.4C2204.57 2568.05 2204.86 2566.72 2205.4 2565.48L2425.94 2069.12C2427.11 2066.61 2429.2 2064.65 2431.78 2063.66C2434.35 2062.67 2437.22 2062.71 2439.76 2063.79C2441.02 2064.29 2442.16 2065.03 2443.12 2065.98C2444.09 2066.93 2444.85 2068.06 2445.36 2069.31C2445.87 2070.56 2446.13 2071.9 2446.12 2073.25C2446.1 2074.6 2445.81 2075.93 2445.27 2077.17L2224.73 2573.55C2223.88 2575.39 2222.52 2576.95 2220.8 2578.05C2219.09 2579.14 2217.1 2579.71 2215.06 2579.69Z" fill="#91B3FA"/>
<path d="M2463.52 2579.69C2461.48 2579.71 2459.49 2579.14 2457.77 2578.04C2456.06 2576.95 2454.69 2575.38 2453.85 2573.53L2233.3 2077.17C2232.76 2075.93 2232.48 2074.6 2232.46 2073.25C2232.45 2071.9 2232.71 2070.56 2233.22 2069.31C2233.73 2068.06 2234.49 2066.93 2235.45 2065.98C2236.41 2065.03 2237.56 2064.29 2238.81 2063.79C2241.35 2062.71 2244.22 2062.67 2246.79 2063.66C2249.37 2064.66 2251.46 2066.61 2252.62 2069.12L2473.17 2565.48C2473.71 2566.72 2474 2568.05 2474.01 2569.4C2474.03 2570.75 2473.77 2572.09 2473.26 2573.34C2472.74 2574.58 2471.98 2575.72 2471.02 2576.67C2470.06 2577.61 2468.92 2578.36 2467.66 2578.86C2466.35 2579.41 2464.94 2579.69 2463.52 2579.69Z" fill="#91B3FA"/>
<path d="M2489.4 2053.8C2489.68 2052.21 2489.64 2050.58 2489.28 2049C2488.92 2047.42 2488.25 2045.94 2487.3 2044.62C2486.44 2043.39 2485.29 2042.39 2483.96 2041.68C2482.63 2040.98 2481.16 2040.6 2479.65 2040.58H1476.32C1474.34 2040.62 1472.4 2041.19 1470.71 2042.23C1469.02 2043.26 1467.64 2044.73 1466.7 2046.48C1465.66 2048.33 1465.06 2050.4 1464.93 2052.52C1464.8 2054.64 1465.15 2056.76 1465.96 2058.73L1476.82 2085.07C1479.32 2091.11 1484.7 2094.97 1490.65 2094.97H2472.76C2478.27 2094.97 2482.99 2090.59 2484.08 2084.51L2489.4 2053.8Z" fill="#91B3FA"/>
<defs>
<linearGradient id="paint0_linear_5_449" x1="1577.11" y1="298.339" x2="1486.67" y2="1011.28" gradientUnits="userSpaceOnUse">
<stop stop-color="#FF928E"/>
<stop offset="1" stop-color="#FE7062"/>
</linearGradient>
<linearGradient id="paint1_linear_5_449" x1="1237.78" y1="1407.98" x2="1964.87" y2="968.136" gradientUnits="userSpaceOnUse">
<stop stop-color="#09005D"/>
<stop offset="1" stop-color="#1A0F91"/>
</linearGradient>
<linearGradient id="paint2_linear_5_449" x1="1482.89" y1="1407.85" x2="1997.56" y2="980.955" gradientUnits="userSpaceOnUse">
<stop stop-color="#09005D"/>
<stop offset="1" stop-color="#1A0F91"/>
</linearGradient>
<linearGradient id="paint3_linear_5_449" x1="894.78" y1="2480.41" x2="473.698" y2="2929.86" gradientUnits="userSpaceOnUse">
<stop stop-color="#09005D"/>
<stop offset="1" stop-color="#1A0F91"/>
</linearGradient>
<linearGradient id="paint4_linear_5_449" x1="759.173" y1="2512.81" x2="796.195" y2="2513.16" gradientUnits="userSpaceOnUse">
<stop stop-color="#FEBBBA"/>
<stop offset="1" stop-color="#FF928E"/>
</linearGradient>
<linearGradient id="paint5_linear_5_449" x1="932.456" y1="1967.97" x2="573.235" y2="2445.37" gradientUnits="userSpaceOnUse">
<stop stop-color="#09005D"/>
<stop offset="1" stop-color="#1A0F91"/>
</linearGradient>
<linearGradient id="paint6_linear_5_449" x1="802.084" y1="2393.56" x2="380.986" y2="2843.02" gradientUnits="userSpaceOnUse">
<stop stop-color="#09005D"/>
<stop offset="1" stop-color="#1A0F91"/>
</linearGradient>
<linearGradient id="paint7_linear_5_449" x1="625.758" y1="2509.64" x2="657.72" y2="2509.95" gradientUnits="userSpaceOnUse">
<stop stop-color="#FEBBBA"/>
<stop offset="1" stop-color="#FF928E"/>
</linearGradient>
<linearGradient id="paint8_linear_5_449" x1="869.681" y1="1920.74" x2="510.461" y2="2398.13" gradientUnits="userSpaceOnUse">
<stop stop-color="#09005D"/>
<stop offset="1" stop-color="#1A0F91"/>
</linearGradient>
<linearGradient id="paint9_linear_5_449" x1="-10412.8" y1="-6488.1" x2="-10035.1" y2="-6208.78" gradientUnits="userSpaceOnUse">
<stop stop-color="#FF928E"/>
<stop offset="1" stop-color="#FE7062"/>
</linearGradient>
<linearGradient id="paint10_linear_5_449" x1="920.669" y1="1548.33" x2="1109.82" y2="1550.12" gradientUnits="userSpaceOnUse">
<stop stop-color="#FEBBBA"/>
<stop offset="1" stop-color="#FF928E"/>
</linearGradient>
<linearGradient id="paint11_linear_5_449" x1="1067.69" y1="1520.74" x2="937.872" y2="1808.27" gradientUnits="userSpaceOnUse">
<stop stop-color="#FEBBBA"/>
<stop offset="1" stop-color="#FF928E"/>
</linearGradient>
<linearGradient id="paint12_linear_5_449" x1="1110.12" y1="1422.23" x2="1163.85" y2="1341.3" gradientUnits="userSpaceOnUse">
<stop stop-color="#FEBBBA"/>
<stop offset="1" stop-color="#FF928E"/>
</linearGradient>
<linearGradient id="paint13_linear_5_449" x1="-10439.5" y1="-6452" x2="-10061.8" y2="-6172.67" gradientUnits="userSpaceOnUse">
<stop stop-color="#FF928E"/>
<stop offset="1" stop-color="#FE7062"/>
</linearGradient>
<linearGradient id="paint14_linear_5_449" x1="504.23" y1="1812.34" x2="743.605" y2="1814.6" gradientUnits="userSpaceOnUse">
<stop stop-color="#FEBBBA"/>
<stop offset="1" stop-color="#FF928E"/>
</linearGradient>
<linearGradient id="paint15_linear_5_449" x1="680.594" y1="1681.07" x2="771.043" y2="1505.5" gradientUnits="userSpaceOnUse">
<stop stop-color="#FEBBBA"/>
<stop offset="1" stop-color="#FF928E"/>
</linearGradient>
<linearGradient id="paint16_linear_5_449" x1="806.702" y1="1479.98" x2="703.179" y2="1415.83" gradientUnits="userSpaceOnUse">
<stop stop-color="#FEBBBA"/>
<stop offset="1" stop-color="#FF928E"/>
</linearGradient>
<linearGradient id="paint17_linear_5_449" x1="648.626" y1="1348.6" x2="782.187" y2="1455.63" gradientUnits="userSpaceOnUse">
<stop stop-color="#09005D"/>
<stop offset="1" stop-color="#1A0F91"/>
</linearGradient>
<linearGradient id="paint18_linear_5_449" x1="779.225" y1="1503.44" x2="686.089" y2="1445.72" gradientUnits="userSpaceOnUse">
<stop stop-color="#FEBBBA"/>
<stop offset="1" stop-color="#FF928E"/>
</linearGradient>
<linearGradient id="paint19_linear_5_449" x1="808.168" y1="1661.16" x2="940.261" y2="2211.54" gradientUnits="userSpaceOnUse">
<stop stop-color="#09005D"/>
<stop offset="1" stop-color="#1A0F91"/>
</linearGradient>
<linearGradient id="paint20_linear_5_449" x1="717.656" y1="1806.76" x2="792.498" y2="1806.76" gradientUnits="userSpaceOnUse">
<stop stop-color="#FEBBBA"/>
<stop offset="1" stop-color="#FF928E"/>
</linearGradient>
<linearGradient id="paint21_linear_5_449" x1="2224.89" y1="1391.3" x2="2426.55" y2="1711.34" gradientUnits="userSpaceOnUse">
<stop stop-color="#FEBBBA"/>
<stop offset="1" stop-color="#FF928E"/>
</linearGradient>
<linearGradient id="paint22_linear_5_449" x1="2766.78" y1="1344.75" x2="2563.96" y2="1479.99" gradientUnits="userSpaceOnUse">
<stop stop-color="#09005D"/>
<stop offset="1" stop-color="#1A0F91"/>
</linearGradient>
<linearGradient id="paint23_linear_5_449" x1="2709.76" y1="1367.17" x2="2563.44" y2="1593.28" gradientUnits="userSpaceOnUse">
<stop stop-color="#FF928E"/>
<stop offset="1" stop-color="#FE7062"/>
</linearGradient>
<linearGradient id="paint24_linear_5_449" x1="2456.69" y1="1597" x2="2494.33" y2="1513.39" gradientUnits="userSpaceOnUse">
<stop stop-color="#FEBBBA"/>
<stop offset="1" stop-color="#FF928E"/>
</linearGradient>
<linearGradient id="paint25_linear_5_449" x1="2454.73" y1="1393.82" x2="2531.14" y2="1559.22" gradientUnits="userSpaceOnUse">
<stop stop-color="#FEBBBA"/>
<stop offset="1" stop-color="#FF928E"/>
</linearGradient>
<linearGradient id="paint26_linear_5_449" x1="2712.26" y1="1263" x2="2509.45" y2="1398.25" gradientUnits="userSpaceOnUse">
<stop stop-color="#09005D"/>
<stop offset="1" stop-color="#1A0F91"/>
</linearGradient>
<linearGradient id="paint27_linear_5_449" x1="2490.68" y1="1377.22" x2="2567.08" y2="1542.61" gradientUnits="userSpaceOnUse">
<stop stop-color="#FEBBBA"/>
<stop offset="1" stop-color="#FF928E"/>
</linearGradient>
<linearGradient id="paint28_linear_5_449" x1="2666.45" y1="2636.01" x2="2386.23" y2="2129.6" gradientUnits="userSpaceOnUse">
<stop stop-color="#FEBBBA"/>
<stop offset="1" stop-color="#FF928E"/>
</linearGradient>
<linearGradient id="paint29_linear_5_449" x1="2606.05" y1="2457.35" x2="2522.67" y2="2456.51" gradientUnits="userSpaceOnUse">
<stop stop-color="#09005D"/>
<stop offset="1" stop-color="#1A0F91"/>
</linearGradient>
<linearGradient id="paint30_linear_5_449" x1="2346.91" y1="2260.25" x2="2772.17" y2="2400.94" gradientUnits="userSpaceOnUse">
<stop stop-color="#FEBBBA"/>
<stop offset="1" stop-color="#FF928E"/>
</linearGradient>
<linearGradient id="paint31_linear_5_449" x1="2528.59" y1="2471.64" x2="2429.19" y2="2470.65" gradientUnits="userSpaceOnUse">
<stop stop-color="#09005D"/>
<stop offset="1" stop-color="#1A0F91"/>
</linearGradient>
<linearGradient id="paint32_linear_5_449" x1="2826.07" y1="1729.82" x2="2586.64" y2="1913.37" gradientUnits="userSpaceOnUse">
<stop stop-color="#09005D"/>
<stop offset="1" stop-color="#1A0F91"/>
</linearGradient>
<linearGradient id="paint33_linear_5_449" x1="2657.44" y1="1870.8" x2="2253.91" y2="1278.13" gradientUnits="userSpaceOnUse">
<stop stop-color="#FEBBBA"/>
<stop offset="1" stop-color="#FF928E"/>
</linearGradient>
<linearGradient id="paint34_linear_5_449" x1="1775.89" y1="2370.82" x2="1801.9" y2="2472.87" gradientUnits="userSpaceOnUse">
<stop stop-color="#09005D"/>
<stop offset="1" stop-color="#1A0F91"/>
</linearGradient>
<linearGradient id="paint35_linear_5_449" x1="1856.28" y1="2427.15" x2="1809.87" y2="2416.73" gradientUnits="userSpaceOnUse">
<stop stop-color="#FEBBBA"/>
<stop offset="1" stop-color="#FF928E"/>
</linearGradient>
<linearGradient id="paint36_linear_5_449" x1="1948.05" y1="2318.79" x2="1812.91" y2="1998.16" gradientUnits="userSpaceOnUse">
<stop stop-color="#09005D"/>
<stop offset="1" stop-color="#1A0F91"/>
</linearGradient>
<linearGradient id="paint37_linear_5_449" x1="1782.12" y1="2469.5" x2="1896.2" y2="2716.91" gradientUnits="userSpaceOnUse">
<stop stop-color="#09005D"/>
<stop offset="1" stop-color="#1A0F91"/>
</linearGradient>
<linearGradient id="paint38_linear_5_449" x1="1880.22" y1="2477.5" x2="1836.67" y2="2467.73" gradientUnits="userSpaceOnUse">
<stop stop-color="#FEBBBA"/>
<stop offset="1" stop-color="#FF928E"/>
</linearGradient>
<linearGradient id="paint39_linear_5_449" x1="1988.21" y1="2472.47" x2="2060.3" y2="2100.51" gradientUnits="userSpaceOnUse">
<stop stop-color="#09005D"/>
<stop offset="1" stop-color="#1A0F91"/>
</linearGradient>
<linearGradient id="paint40_linear_5_449" x1="2136.45" y1="1749.33" x2="1709.51" y2="2080.51" gradientUnits="userSpaceOnUse">
<stop stop-color="#FF928E"/>
<stop offset="1" stop-color="#FE7062"/>
</linearGradient>
<linearGradient id="paint41_linear_5_449" x1="1826.38" y1="1983.95" x2="1674.47" y2="1949.84" gradientUnits="userSpaceOnUse">
<stop stop-color="#FEBBBA"/>
<stop offset="1" stop-color="#FF928E"/>
</linearGradient>
<linearGradient id="paint42_linear_5_449" x1="1645.61" y1="2209.15" x2="2052.61" y2="1957.77" gradientUnits="userSpaceOnUse">
<stop stop-color="#FF928E"/>
<stop offset="1" stop-color="#FE7062"/>
</linearGradient>
<linearGradient id="paint43_linear_5_449" x1="2055.18" y1="1753.8" x2="1954.39" y2="1731.17" gradientUnits="userSpaceOnUse">
<stop stop-color="#FEBBBA"/>
<stop offset="1" stop-color="#FF928E"/>
</linearGradient>
<linearGradient id="paint44_linear_5_449" x1="1670.21" y1="2248.97" x2="2077.2" y2="1997.6" gradientUnits="userSpaceOnUse">
<stop stop-color="#FF928E"/>
<stop offset="1" stop-color="#FE7062"/>
</linearGradient>
<linearGradient id="paint45_linear_5_449" x1="2144.1" y1="2011.48" x2="2545.86" y2="2572.03" gradientUnits="userSpaceOnUse">
<stop stop-color="#FEBBBA"/>
<stop offset="1" stop-color="#FF928E"/>
</linearGradient>
<linearGradient id="paint46_linear_5_449" x1="2009.87" y1="1618.85" x2="1958.02" y2="1855.21" gradientUnits="userSpaceOnUse">
<stop stop-color="#FEBBBA"/>
<stop offset="1" stop-color="#FF928E"/>
</linearGradient>
<linearGradient id="paint47_linear_5_449" x1="2079.27" y1="1682.45" x2="1979.43" y2="1565.73" gradientUnits="userSpaceOnUse">
<stop stop-color="#09005D"/>
<stop offset="1" stop-color="#1A0F91"/>
</linearGradient>
<linearGradient id="paint48_linear_5_449" x1="2028.38" y1="1844.55" x2="2041.76" y2="1697.41" gradientUnits="userSpaceOnUse">
<stop stop-color="#FEBBBA"/>
<stop offset="1" stop-color="#FF928E"/>
</linearGradient>
<linearGradient id="paint49_linear_5_449" x1="2016.57" y1="1976.7" x2="1817.91" y2="2041.84" gradientUnits="userSpaceOnUse">
<stop stop-color="#09005D"/>
<stop offset="1" stop-color="#1A0F91"/>
</linearGradient>
<linearGradient id="paint50_linear_5_449" x1="1743.94" y1="1846.22" x2="1600.88" y2="1997.42" gradientUnits="userSpaceOnUse">
<stop stop-color="#09005D"/>
<stop offset="1" stop-color="#1A0F91"/>
</linearGradient>
</defs>
</svg>
